<svg width="80" height="81" viewBox="0 0 80 81" fill="none" xmlns="http://www.w3.org/2000/svg">
<rect y="0.5" width="80" height="80" rx="16" fill="#2F3542"/>
<g clip-path="url(#clip0_59_5425)">
<path d="M47.7497 16.5H48.4725C52.5506 16.635 56.3756 18.1509 59.3184 20.9428C62.5853 24.0416 64.3125 27.905 64.5 32.5331V33.1462C64.2047 44.2359 53.6269 51.8466 42.9825 48.4688C42.9612 48.4621 42.9385 48.4617 42.917 48.4677C42.8956 48.4737 42.8763 48.4858 42.8616 48.5025C42.2397 49.2044 41.6072 49.9044 40.9641 50.6025C40.1456 51.4894 39.6169 51.8306 38.46 51.9609C37.8481 52.0297 37.235 52.0947 36.6206 52.1559C36.3291 52.185 36.2203 52.1859 36.2775 52.5328C36.8541 56.0297 34.0669 58.7212 30.5869 58.1034C30.385 58.0678 30.2747 58.1291 30.2559 58.2872C30.1772 58.9672 30.0912 59.6459 29.9981 60.3234C29.8097 61.6912 29.2313 62.2903 28.1934 63.1519C27.1809 63.9928 26.1834 64.4344 24.8841 64.5H24.4406C23.2712 64.4169 22.1016 64.3481 20.9316 64.2937C20.2209 64.2606 19.7275 64.2062 19.4513 64.1306C18.2466 63.8016 17.2509 62.8341 16.8966 61.6472C16.8047 61.3384 16.7366 60.7191 16.6922 59.7891C16.6409 58.7159 16.5769 57.6434 16.5 56.5716V56.0119C16.5831 54.8013 16.9766 53.7975 17.6803 53.0006C22.3234 47.745 27.2594 42.7916 32.4881 38.1403C32.5068 38.1236 32.5203 38.1018 32.527 38.0777C32.5336 38.0536 32.5332 38.0281 32.5256 38.0044C29.1525 27.4359 36.7012 16.8478 47.7497 16.5ZM35.4516 40.2787C30.1472 44.94 25.0988 49.9603 20.4403 55.2684C20.1622 55.5853 20.0356 55.9284 20.0606 56.2978C20.1562 57.7341 20.2328 59.1572 20.2903 60.5672C20.2919 60.604 20.3071 60.6388 20.333 60.6648C20.3589 60.6909 20.3935 60.7062 20.43 60.7078C21.7413 60.7609 23.0556 60.8312 24.3731 60.9187C25.4016 60.9872 25.7269 60.5925 26.4 59.9766C26.4417 59.9385 26.4683 59.8869 26.475 59.8313C26.5481 59.2225 26.6237 58.6256 26.7019 58.0406C26.9634 56.0841 28.1409 54.8222 30.1641 54.5578C30.6694 54.4913 31.3716 54.7284 31.8909 54.6094C32.7994 54.4012 32.8256 53.6766 32.7309 52.8909C32.4731 50.7525 33.8906 48.8775 36.0487 48.6422C36.725 48.5684 37.4047 48.4928 38.0878 48.4153C38.1197 48.4116 38.1462 48.3981 38.1675 48.375C39.0694 47.3962 39.9625 46.41 40.8469 45.4163C42.0216 44.0953 42.7453 44.6269 44.1863 45.1087C45.8831 45.6763 47.685 45.8466 49.5919 45.6197C55.3266 44.9381 59.9709 40.5281 60.795 34.7503C62.2172 24.7819 52.335 17.2641 43.0922 21.0872C39.9422 22.3913 37.3388 25.0791 36.1378 28.2703C34.9559 31.4134 34.9834 34.5719 36.2203 37.7456C36.6769 38.9166 36.3244 39.5128 35.4516 40.2787Z" fill="white"/>
<path d="M57.6051 29.206C57.6051 29.9699 57.4546 30.7263 57.1623 31.4321C56.8699 32.1379 56.4414 32.7792 55.9013 33.3194C55.3611 33.8595 54.7198 34.288 54.014 34.5804C53.3083 34.8727 52.5518 35.0232 51.7879 35.0232C50.2451 35.0232 48.7655 34.4103 47.6745 33.3194C46.5836 32.2284 45.9707 30.7488 45.9707 29.206C45.9707 27.6632 46.5836 26.1835 47.6745 25.0926C48.7655 24.0017 50.2451 23.3888 51.7879 23.3888C53.3307 23.3888 54.8103 24.0017 55.9013 25.0926C56.9922 26.1835 57.6051 27.6632 57.6051 29.206ZM54.0407 29.206C54.0407 28.91 53.9824 28.6169 53.8691 28.3435C53.7559 28.0701 53.5899 27.8216 53.3806 27.6123C53.1713 27.4031 52.9229 27.237 52.6494 27.1238C52.376 27.0105 52.0829 26.9522 51.787 26.9522C51.1892 26.9522 50.616 27.1897 50.1933 27.6123C49.7707 28.035 49.5332 28.6082 49.5332 29.206C49.5332 29.8037 49.7707 30.377 50.1933 30.7996C50.616 31.2223 51.1892 31.4597 51.787 31.4597C52.0829 31.4597 52.376 31.4014 52.6494 31.2882C52.9229 31.1749 53.1713 31.0089 53.3806 30.7996C53.5899 30.5903 53.7559 30.3419 53.8691 30.0685C53.9824 29.795 54.0407 29.5019 54.0407 29.206Z" fill="white"/>
</g>
<defs>
<clipPath id="clip0_59_5425">
<rect width="48" height="48" fill="white" transform="translate(16.5 16.5)"/>
</clipPath>
</defs>
</svg>
