<svg width="80" height="80" viewBox="0 0 80 80" fill="none" xmlns="http://www.w3.org/2000/svg">
<rect width="80" height="80" rx="16" fill="#2F3542"/>
<g clip-path="url(#clip0_59_5446)">
<path d="M38.2712 16H41.6697C43.8947 16.0181 46.12 16.0491 48.3456 16.0928C49.1625 16.1091 49.7831 16.165 50.2075 16.2606C52.1237 16.6919 53.3275 17.7672 54.8659 19.1106C57.2716 21.2106 59.4637 23.2312 61.4425 25.1725C62.0406 25.7594 62.6453 26.4081 63.1591 26.9913C63.6428 27.54 63.9231 28.1912 64 28.945V29.4578C63.9287 30.6397 63.7978 31.8128 63.6072 32.9772C63.3128 34.7753 62.4194 36.2425 60.9719 37.3591C60.8453 37.4575 60.8256 37.525 60.8275 37.6797C60.8969 43.0375 60.7994 48.5284 60.1038 53.9313C60.0088 54.6681 59.8866 55.2797 59.7372 55.7659C58.5372 59.6744 55.1744 62.9256 51.0625 63.5303C49.3387 63.7841 47.3678 63.9406 45.1497 64H36.4891C36.6766 59.8681 36.6897 55.8916 36.5284 52.0703C36.4853 51.0438 35.8225 50.6191 34.8691 50.5431C34.0034 50.4738 33.1384 50.4744 32.2741 50.545C31.3375 50.6219 30.67 51.0672 30.6344 52.0769C30.4981 55.9562 30.5234 59.8231 30.7103 63.6775C30.7128 63.73 30.6881 63.7528 30.6362 63.7459C29.3931 63.5847 28.1941 63.4863 26.9884 63.0306C23.1409 61.5794 20.3987 57.9991 19.8934 53.9453C19.2091 48.46 19.1022 43.21 19.1772 37.5325C19.1778 37.5006 19.1656 37.4747 19.1406 37.4547C17.6444 36.265 16.6637 34.8381 16.3806 32.9209C16.2075 31.7534 16.0806 30.5797 16 29.3997V28.9797C16.0706 28.1941 16.3775 27.5028 16.9206 26.9059C19.8297 23.71 23.155 20.7831 26.5375 17.9134C27.5887 17.0216 28.7663 16.4541 30.07 16.2109C30.4713 16.1366 31.0934 16.0928 31.9366 16.0797C34.0491 16.0484 36.1606 16.0219 38.2712 16ZM22.8588 25.9862C21.5838 27.2003 20.65 28.0919 19.6244 29.2262C19.6089 29.2432 19.5971 29.263 19.5895 29.2844C19.582 29.3058 19.5788 29.3284 19.5803 29.3509C19.6416 30.2866 19.7369 31.2175 19.8663 32.1437C20.0312 33.3259 20.5244 34.1669 21.5425 34.7903C21.5662 34.8053 21.5922 34.8125 21.6203 34.8119C22.2953 34.8016 22.5606 34.4284 22.9262 33.9869C23.8291 32.8956 25.3459 32.8497 26.4288 33.6869C26.4306 33.6888 26.6097 33.8606 26.9659 34.2025C27.85 35.0538 29.3772 35.5197 30.2725 34.4387C30.5513 34.1012 30.6912 33.9322 30.6925 33.9316C31.6356 33.04 33.1159 33.0662 34.0806 33.8875C34.0819 33.8881 34.2375 34.0506 34.5475 34.375C35.3659 35.2291 36.6016 35.5281 37.5841 34.7209C37.6866 34.6372 37.8653 34.4503 38.1203 34.1603C39.0325 33.1244 40.6291 33.0344 41.6941 33.9456C41.9284 34.1462 42.1872 34.5194 42.4431 34.7294C43.4191 35.5291 44.6669 35.2253 45.4909 34.3684C45.8116 34.0353 46.0037 33.8447 46.0675 33.7966C47.1409 32.9837 48.6362 33.1703 49.4912 34.1303C49.8288 34.5097 50.0041 34.705 50.0172 34.7162C51.1131 35.6022 52.4762 34.7425 53.2919 33.9241C54.28 32.9322 55.9328 32.7822 56.9631 33.8153C57.4544 34.3075 57.5228 34.7491 58.3525 34.8241C58.3838 34.8272 58.4128 34.8206 58.4397 34.8044C59.4016 34.2166 59.9584 33.3962 60.1197 32.2872C60.2603 31.3228 60.3616 30.3541 60.4234 29.3809C60.4422 29.0912 58.1397 26.9087 57.7872 26.5722C55.5841 24.4709 53.3175 22.4406 50.9875 20.4812C49.9628 19.6187 48.9747 19.6703 47.3894 19.6422C42.0513 19.5478 36.7128 19.5469 31.3741 19.6394C30.4784 19.6544 29.7197 19.9166 29.0978 20.4259C27.1991 21.9803 25.1194 23.8337 22.8588 25.9862ZM39.9569 37.3937C37.7622 39.2744 34.6984 39.145 32.5187 37.3234C32.4931 37.3022 32.4675 37.3022 32.4419 37.3234C30.1825 39.175 27.2041 38.9809 24.9719 37.1584C24.9557 37.1453 24.9354 37.1382 24.9146 37.1386C24.8938 37.1389 24.8739 37.1466 24.8584 37.1603C24.2603 37.6859 23.5731 38.0434 22.7969 38.2328C22.7575 38.2428 22.7375 38.2681 22.7369 38.3088C22.6553 43.7913 22.7903 48.4459 23.4334 53.4409C23.7381 55.8044 24.9587 57.7319 26.9547 59.0481C26.9595 59.0514 26.9652 59.0533 26.971 59.0535C26.9769 59.0538 26.9827 59.0525 26.9878 59.0497C26.9929 59.0469 26.9972 59.0427 27.0001 59.0376C27.003 59.0326 27.0045 59.0268 27.0044 59.0209C26.9775 56.8866 26.9969 54.7516 27.0625 52.6159C27.0894 51.7553 27.1519 51.135 27.25 50.755C27.6494 49.2109 28.8137 47.92 30.2903 47.3444C30.7509 47.1656 31.3606 47.0438 32.1194 46.9788C33.4131 46.8687 34.6125 46.8909 35.7175 47.0453C37.7688 47.3312 39.4403 48.8116 39.9334 50.8C40.0266 51.1756 40.0881 51.7962 40.1181 52.6619C40.2056 55.2238 40.2266 57.8025 40.1809 60.3981C40.1808 60.4029 40.1817 60.4077 40.1834 60.4122C40.1852 60.4167 40.1879 60.4208 40.1913 60.4242C40.1947 60.4277 40.1987 60.4305 40.2032 60.4325C40.2077 60.4344 40.2126 60.4355 40.2175 60.4356C43.6637 60.4487 46.9478 60.4834 50.4925 59.9978C53.3078 59.6125 55.5691 57.3044 56.3359 54.67C56.4609 54.24 56.5697 53.6256 56.6622 52.8269C57.2191 48.0063 57.2847 43.1763 57.3006 38.3013C57.3013 38.2669 57.2847 38.2456 57.2509 38.2375C56.4591 38.0456 55.7591 37.6809 55.1509 37.1434C55.1404 37.1342 55.127 37.1291 55.1129 37.1289C55.0988 37.1287 55.0851 37.1335 55.0741 37.1425C52.8644 38.9425 49.8822 39.2031 47.6209 37.345C47.6044 37.3315 47.5836 37.3242 47.5622 37.3244C47.5408 37.3245 47.5201 37.3322 47.5037 37.3459C45.3391 39.1759 42.2987 39.2341 40.0984 37.3928C40.0785 37.3762 40.0534 37.3672 40.0275 37.3674C40.0016 37.3676 39.9766 37.3769 39.9569 37.3937Z" fill="white"/>
</g>
<defs>
<clipPath id="clip0_59_5446">
<rect width="48" height="48" fill="white" transform="translate(16 16)"/>
</clipPath>
</defs>
</svg>
