<svg width="80" height="80" viewBox="0 0 80 80" fill="none" xmlns="http://www.w3.org/2000/svg">
<rect width="80" height="80" rx="16" fill="#2F3542"/>
<g clip-path="url(#clip0_59_5454)">
<path d="M63.9994 28.9438V30.9585C63.9525 32.1628 63.9138 32.9813 63.8832 33.4138C63.721 35.6975 61.9941 37.4685 59.7338 37.866C59.415 37.9222 58.9172 37.9675 58.2404 38.0019C54.5022 38.1938 50.766 38.1638 47.0316 37.9119C44.866 37.7666 43.0379 36.4325 42.3769 34.3672C42.2488 33.9685 42.1597 33.3875 42.1097 32.6244C41.8529 28.7175 41.8594 24.8094 42.1294 20.9C42.2513 19.1332 43.0191 17.79 44.4329 16.8707C45.2869 16.3157 46.216 16.176 47.341 16.1263C50.8654 15.9719 54.3807 16.0816 57.8869 16.4553C58.7119 16.5435 59.3254 16.6563 59.7272 16.7938C61.2535 17.315 62.5097 18.4982 63.1304 19.9991C63.3054 20.4203 63.4429 21.0166 63.5429 21.7878C63.8513 24.1503 63.946 26.5625 63.9994 28.9438ZM47.071 20.9319C46.936 20.9432 46.8029 21.0819 46.7963 21.2028C46.5813 25.0485 46.6085 28.8925 46.8779 32.735C46.8966 32.9969 47.0491 33.1375 47.3354 33.1569C51.2347 33.4163 54.9504 33.4541 58.4822 33.2703C58.9716 33.2441 59.1113 33.2769 59.1394 32.7116C59.3282 28.9985 59.2285 25.2925 58.8404 21.5938C58.8188 21.3875 58.7166 21.2282 58.5094 21.2057C55.4619 20.8782 52.3132 20.7532 49.0632 20.8307C48.3988 20.8469 47.7347 20.8807 47.071 20.9319Z" fill="white"/>
<path d="M16 31.1802V28.6743C16.0344 26.9749 16.1747 24.7502 16.4209 22.0002C16.6222 19.7533 17.6709 18.113 19.5672 17.0793C20.3744 16.6396 21.3259 16.5318 22.5325 16.4108C25.8506 16.0783 29.1738 15.9787 32.5019 16.1118C33.33 16.1449 33.9478 16.2208 34.3553 16.3396C36.3194 16.9096 37.675 18.6383 37.8634 20.6877C37.9122 21.219 37.9488 21.7518 37.9731 22.2862C38.1238 25.5724 38.1044 28.8574 37.915 32.1412C37.8813 32.7262 37.8578 33.3627 37.7406 33.8933C37.2597 36.0843 35.4438 37.6724 33.2022 37.889C31.3291 38.0699 29.1063 38.1008 27.0213 38.1252C24.5119 38.154 22.2991 38.0771 20.3828 37.8946C20.0597 37.8633 19.6934 37.7665 19.2841 37.604C17.8525 37.0368 16.7884 35.9699 16.3234 34.5018C16.0225 33.5512 16.0422 32.2555 16 31.1802ZM33.0381 20.9708C32.9713 20.9374 32.8986 20.918 32.8244 20.9137C29.085 20.7074 25.3281 20.803 21.5538 21.2005C21.4156 21.2155 21.3056 21.2655 21.2238 21.3505C21.2012 21.3737 21.1868 21.4033 21.1825 21.4349C21.0744 22.2937 20.9875 23.2474 20.9219 24.2962C20.7391 27.2202 20.6819 30.118 20.8853 32.9605C20.8956 33.1021 21.0063 33.2399 21.1384 33.2474C25.0078 33.4674 28.8747 33.434 32.7391 33.1471C32.8778 33.1368 33.0831 33.0299 33.0925 32.8977C33.3494 29.384 33.4044 25.8665 33.2575 22.3452C33.2463 22.0808 33.2791 21.0908 33.0381 20.9708Z" fill="white"/>
<path d="M29.6898 24.1778C30.1126 24.4872 30.2419 24.8443 30.2748 25.3918C30.3466 26.5931 30.3307 27.7362 30.2269 28.8212C30.1426 29.7006 29.5548 30.2031 28.7101 30.2706C27.7751 30.345 26.6869 30.3631 25.4457 30.325C24.0638 30.2818 23.8341 29.4897 23.8098 28.2503C23.7923 27.3453 23.8201 26.4412 23.8932 25.5381C23.9813 24.444 24.6535 24.024 25.6735 23.934C26.846 23.8303 28.0198 23.8222 29.1948 23.9097C29.2898 23.9172 29.4548 24.0065 29.6898 24.1778Z" fill="white"/>
<path d="M64 48.8745V51.3804C63.9656 53.0798 63.8253 55.3045 63.5791 58.0545C63.3778 60.3013 62.3291 61.9417 60.4328 62.9754C59.6256 63.4151 58.6741 63.5229 57.4675 63.6438C54.1494 63.9763 50.8262 64.076 47.4981 63.9429C46.67 63.9098 46.0522 63.8338 45.6447 63.7151C43.6806 63.1451 42.325 61.4163 42.1366 59.367C42.0878 58.8357 42.0512 58.3029 42.0269 57.7685C41.8762 54.4823 41.8956 51.1973 42.085 47.9135C42.1187 47.3285 42.1422 46.692 42.2594 46.1613C42.7403 43.9704 44.5562 42.3823 46.7978 42.1657C48.6709 41.9848 50.8937 41.9538 52.9787 41.9295C55.4881 41.9007 57.7009 41.9776 59.6172 42.1601C59.9403 42.1913 60.3066 42.2882 60.7159 42.4507C62.1475 43.0179 63.2116 44.0848 63.6766 45.5529C63.9775 46.5035 63.9578 47.7992 64 48.8745ZM46.9619 59.0838C47.0287 59.1172 47.1014 59.1367 47.1756 59.141C50.915 59.3473 54.6719 59.2517 58.4462 58.8542C58.5844 58.8392 58.6944 58.7892 58.7762 58.7042C58.7988 58.681 58.8132 58.6514 58.8175 58.6198C58.9256 57.761 59.0125 56.8073 59.0781 55.7585C59.2609 52.8345 59.3181 49.9367 59.1147 47.0942C59.1044 46.9526 58.9937 46.8148 58.8616 46.8073C54.9922 46.5873 51.1253 46.6207 47.2609 46.9076C47.1222 46.9179 46.9169 47.0248 46.9075 47.157C46.6506 50.6707 46.5956 54.1882 46.7425 57.7095C46.7537 57.9738 46.7209 58.9638 46.9619 59.0838Z" fill="white"/>
<path d="M50.3102 55.8769C49.8874 55.5675 49.7581 55.2103 49.7252 54.6628C49.6534 53.4616 49.6693 52.3185 49.7731 51.2335C49.8574 50.3541 50.4452 49.8516 51.2899 49.7841C52.2249 49.7097 53.3131 49.6916 54.5543 49.7297C55.9362 49.7728 56.1659 50.565 56.1902 51.8044C56.2077 52.7094 56.1799 53.6135 56.1068 54.5166C56.0187 55.6107 55.3465 56.0307 54.3265 56.1207C53.154 56.2244 51.9802 56.2325 50.8052 56.145C50.7102 56.1375 50.5452 56.0482 50.3102 55.8769Z" fill="white"/>
<path d="M49.7464 25.0234C49.7867 24.4159 50.5208 23.9293 51.0804 23.8928C52.2392 23.8178 53.3945 23.8403 54.5464 23.9603C55.5476 24.0653 56.007 24.6221 56.0979 25.5981C56.1904 26.5899 56.2167 27.5828 56.1767 28.5765C56.1326 29.694 55.7342 30.264 54.5989 30.3231C53.267 30.3931 52.1354 30.3778 51.2042 30.2771C50.0679 30.1553 49.7942 29.3574 49.7333 28.2981C49.6708 27.2074 49.6751 26.1159 49.7464 25.0234Z" fill="white"/>
<path d="M32.1887 63.9996H27.2219C25.3994 63.9105 23.5694 63.8158 21.76 63.5852C21.0006 63.4877 20.4072 63.3521 19.9797 63.1783C18.1788 62.4452 16.7866 60.7483 16.5166 58.8199C16.1791 56.4115 16.0787 53.7152 16 51.1493V49.1121C16.0375 47.7096 16.0922 46.7424 16.1641 46.2105C16.4791 43.8827 18.6428 42.2852 20.905 42.1437C24.2806 41.933 27.7081 41.9065 31.1875 42.064C33.0016 42.1465 34.5559 42.138 36.0222 43.3708C38.0106 45.0424 37.9394 47.2146 38.0256 49.743C38.1187 52.4787 38.1009 55.213 37.9722 57.9462C37.9028 59.4002 37.8494 60.6255 36.9353 61.8968C36.1928 62.9287 35.2159 63.574 34.0047 63.8327C33.475 63.9452 32.7897 63.9527 32.1887 63.9996ZM21.1628 58.5574C21.1778 58.7055 21.31 58.8574 21.46 58.8733C25.2881 59.2777 29.1056 59.374 32.9125 59.1621C32.9868 59.158 33.0569 59.1267 33.1095 59.0741C33.1621 59.0215 33.1935 58.9514 33.1975 58.8771C33.4175 55.0433 33.385 51.1846 33.1 47.3008C33.0906 47.1705 33.0016 46.968 32.8759 46.9577C29.0781 46.6343 25.2428 46.6296 21.4384 46.834C21.1816 46.848 20.8863 46.8077 20.8666 47.1715C20.6584 50.9752 20.7572 54.7705 21.1628 58.5574Z" fill="white"/>
<path d="M25.5375 56.1684C24.5053 56.1075 23.985 55.4287 23.8969 54.4518C23.8075 53.4568 23.7831 52.46 23.8237 51.4612C23.8669 50.4159 24.2756 49.8318 25.3434 49.7671C26.414 49.7015 27.4844 49.7118 28.5544 49.7981C29.6447 49.8862 30.1575 50.3662 30.239 51.4546C30.3109 52.4153 30.329 53.3768 30.2934 54.3393C30.2531 55.4259 29.9475 56.175 28.7428 56.2125C27.674 56.2456 26.6056 56.2309 25.5375 56.1684Z" fill="white"/>
</g>
<defs>
<clipPath id="clip0_59_5454">
<rect width="48" height="48" fill="white" transform="translate(16 16)"/>
</clipPath>
</defs>
</svg>
