<svg width="48" height="48" viewBox="0 0 48 48" fill="none" xmlns="http://www.w3.org/2000/svg">
<g clip-path="url(#clip0_59_5224)">
<path d="M8.51437 0H8.86406C9.43719 0.070625 9.90594 0.287812 10.2703 0.651562C12.3159 2.69406 14.3603 4.73812 16.4034 6.78375C17.0138 7.39406 17.4272 7.93219 17.3925 8.74219C17.3231 10.3256 15.7116 11.4234 14.2322 10.7531C13.9828 10.64 13.6456 10.3731 13.2206 9.9525C12.4756 9.21563 11.7331 8.47563 10.9931 7.7325C10.9606 7.7 10.9444 7.70656 10.9444 7.75219C10.945 15.7797 10.9456 23.8197 10.9462 31.8722C10.9462 32.5678 10.99 33.0931 11.0775 33.4481C11.4966 35.1544 12.8709 36.5147 14.5669 36.9197C14.9456 37.0097 15.535 37.0547 16.335 37.0547C24.3113 37.0541 32.2803 37.0544 40.2422 37.0556C40.2488 37.0556 40.2553 37.0537 40.2608 37.0501C40.2664 37.0464 40.2707 37.0412 40.2733 37.0351C40.2759 37.029 40.2767 37.0223 40.2755 37.0158C40.2743 37.0092 40.2712 37.0032 40.2666 36.9984C39.5066 36.2372 38.745 35.4753 37.9819 34.7128C37.6394 34.3697 37.4106 34.0803 37.2956 33.8447C36.3675 31.9341 38.3897 29.9466 40.2863 30.855C40.5269 30.9706 40.8328 31.2137 41.2041 31.5844C43.2772 33.655 45.3491 35.7266 47.4197 37.7991C47.7328 38.1128 47.9263 38.5469 48 39.1012V39.5428C47.9175 40.0978 47.6731 40.5788 47.2669 40.9856C45.1312 43.1237 42.9944 45.2603 40.8562 47.3953C40.5537 47.6978 40.1587 47.8994 39.6712 48H38.9006C37.47 47.6925 36.6112 46.2056 37.2291 44.8688C37.3428 44.6219 37.5778 44.3172 37.9341 43.9547C38.7066 43.1684 39.4859 42.3956 40.2722 41.6362C40.2788 41.6296 40.2833 41.6212 40.2852 41.612C40.287 41.6028 40.2862 41.5933 40.2827 41.5846C40.2792 41.576 40.2732 41.5685 40.2655 41.5632C40.2578 41.5578 40.2487 41.5549 40.2394 41.5547C32.2487 41.5547 24.2572 41.5547 16.2647 41.5547C15.4491 41.5553 14.8263 41.5247 14.3962 41.4628C10.3378 40.8844 7.11656 37.6978 6.53531 33.6272C6.47469 33.2028 6.44438 32.5794 6.44438 31.7569C6.44687 23.7569 6.44687 15.755 6.44438 7.75125C6.44438 7.69938 6.42625 7.69188 6.39 7.72875C5.96625 8.15563 5.14375 8.98062 3.9225 10.2037C2.51437 11.6137 0.290625 10.845 0 8.87625V8.50312C0.06375 7.94437 0.281562 7.47625 0.653437 7.09875C2.19906 5.5325 4.29344 3.44125 6.93656 0.825C7.43906 0.328125 7.85344 0.080625 8.51437 0Z" fill="white"/>
<path d="M21.8724 0H39.0989C43.9842 0.25875 47.6564 3.9525 47.9996 8.81719V26.2078C47.6161 28.6294 44.2974 28.9631 43.6027 26.595C43.5346 26.3625 43.5005 25.9694 43.5005 25.4156C43.4992 20.0375 43.4989 14.6594 43.4996 9.28125C43.4996 7.07438 42.0061 5.15625 39.8602 4.63969C39.4764 4.54781 38.8636 4.50156 38.0217 4.50094C32.7149 4.49969 27.408 4.49969 22.1011 4.50094C19.2389 4.50094 18.9108 0.45375 21.8724 0Z" fill="white"/>
<path d="M35.0668 19.2404C35.5749 19.2447 36.0986 19.2454 36.638 19.2422C36.9393 19.2404 37.1511 19.2613 37.2736 19.3051C37.9693 19.5526 38.0058 20.5247 37.3393 20.8435C37.2236 20.8991 37.0568 20.9272 36.8386 20.9279C35.6155 20.9304 34.3921 20.9307 33.1683 20.9288C32.8646 20.9282 32.6483 20.8969 32.5196 20.8351C31.9393 20.5538 31.9599 19.8497 32.3855 19.4241C33.5136 18.2954 34.6418 17.1663 35.7699 16.0369C36.968 14.8379 35.0171 13.2029 34.0102 14.4544C33.7664 14.7572 33.7889 15.1922 33.5255 15.4697C33.0718 15.9497 32.2786 15.7229 32.1052 15.1172C32.0514 14.9316 32.0655 14.7041 32.1474 14.4347C32.6874 12.6432 34.6768 11.7919 36.3399 12.7079C37.4011 13.2919 38.0358 14.5622 37.7583 15.7829C37.5418 16.7354 37.0477 17.1441 36.203 17.986C35.8099 18.3772 35.4183 18.7632 35.0283 19.1438C34.9633 19.2076 34.9761 19.2397 35.0668 19.2404Z" fill="white"/>
<path d="M19.6168 17.6297C19.6249 17.6402 19.6362 17.6478 19.6489 17.6514C19.6616 17.655 19.675 17.6542 19.6872 17.6494C21.3397 17.005 22.8334 17.2456 24.1684 18.3713C24.1928 18.3913 24.2168 18.3913 24.2406 18.3713C26.619 16.3238 30.1843 17.3663 30.9972 20.4038C31.084 20.7281 31.1303 21.1609 31.1359 21.7022C31.1528 23.2972 31.1553 24.8913 31.1434 26.4844C31.1406 26.8791 31.134 27.2194 30.9231 27.5466C30.3287 28.4681 28.9328 28.2994 28.5868 27.2578C28.53 27.0859 28.5015 26.7825 28.5015 26.3475C28.5009 24.7606 28.4997 23.1734 28.4978 21.5859C28.495 19.3463 25.509 19.4147 25.5034 21.5447C25.499 23.2522 25.4975 24.96 25.4987 26.6681C25.4993 26.9769 25.4593 27.2184 25.3787 27.3928C24.88 28.4738 23.305 28.3716 22.9534 27.2306C22.9028 27.0669 22.8772 26.7816 22.8765 26.3747C22.874 24.7953 22.8734 23.2159 22.8747 21.6366C22.8747 21.2841 22.8384 21.0206 22.7659 20.8463C22.1218 19.3003 19.8803 19.8263 19.8775 21.4744C19.8743 23.2063 19.8731 24.9375 19.8737 26.6681C19.8743 26.9763 19.8347 27.2172 19.7547 27.3909C19.2559 28.4719 17.6818 28.3716 17.3284 27.2297C17.2778 27.0659 17.2522 26.7816 17.2515 26.3766C17.2453 22.2378 17.2456 19.6175 17.2525 18.5156C17.2609 17.2088 18.7843 16.5544 19.6168 17.6297Z" fill="white"/>
</g>
<defs>
<clipPath id="clip0_59_5224">
<rect width="48" height="48" fill="white"/>
</clipPath>
</defs>
</svg>
