<svg width="161" height="68" viewBox="0 0 161 68" fill="none" xmlns="http://www.w3.org/2000/svg">
<g clip-path="url(#clip0_59_2073)">
<path d="M75.2369 32.5261C72.2387 33.0667 69.2766 33.6 66.291 34.1369C66.8279 31.1514 67.3649 28.1712 67.9018 25.1892C65.4171 23.4613 62.9324 21.7351 60.4243 19.991C60.909 19.6559 61.3504 19.3514 61.7919 19.045C63.3288 17.9748 64.864 16.9027 66.4027 15.8342C66.8622 15.5153 67.3288 15.2054 67.7865 14.8811C67.8387 14.845 67.8802 14.7387 67.8694 14.6739C67.6946 13.6721 67.509 12.6739 67.3288 11.6721C67.1162 10.4973 66.9054 9.32252 66.6964 8.14775C66.5631 7.39459 66.4351 6.63964 66.3 5.85586C66.5342 5.8955 66.7649 5.93153 66.9937 5.97297C67.6387 6.08649 68.2856 6.2018 68.9306 6.31712C69.4604 6.41261 69.9883 6.51171 70.518 6.60541C71.1631 6.72072 71.8099 6.83243 72.4549 6.94775C73.1504 7.07387 73.8459 7.2036 74.5414 7.33153C74.7288 7.36577 74.9162 7.41622 75.1054 7.43604C75.1703 7.44324 75.2694 7.4018 75.3072 7.34955C75.9576 6.42703 76.6027 5.5027 77.2459 4.57477C78.2495 3.12613 79.2495 1.67568 80.2513 0.227027C80.3018 0.154955 80.3631 0.0900901 80.4369 0C80.4982 0.0792793 80.563 0.154955 80.6189 0.236036C81.6459 1.71351 82.6712 3.19099 83.6982 4.66847C84.3126 5.55315 84.9234 6.43964 85.545 7.31712C85.5919 7.38378 85.7162 7.44504 85.7919 7.43243C86.6766 7.27928 87.5594 7.11171 88.4423 6.94775C89.2531 6.7982 90.064 6.64504 90.8766 6.5009C91.8495 6.32793 92.8225 6.16577 93.7955 5.9964C94.0459 5.95315 94.2964 5.8991 94.5829 5.84144C94.5054 6.26847 94.4369 6.65045 94.3685 7.03063C94.2549 7.66847 94.1432 8.30811 94.0297 8.94595C93.9342 9.48288 93.8315 10.018 93.736 10.555C93.6063 11.2721 93.482 11.991 93.3522 12.7099C93.2405 13.3333 93.1288 13.9568 93.0063 14.5784C92.9775 14.7279 93.0009 14.8234 93.1306 14.9135C94.2802 15.7009 95.4279 16.4901 96.5721 17.2829C97.8081 18.1387 99.0423 19 100.277 19.8595C100.331 19.8973 100.376 19.9495 100.435 20.0072C99.5216 20.636 98.6189 21.2559 97.7162 21.8793C96.4802 22.7351 95.2459 23.5946 94.0099 24.4541C93.7072 24.6649 93.3991 24.8685 93.1072 25.0919C93.0405 25.1423 92.9865 25.2739 93.0009 25.3568C93.1234 26.0901 93.2621 26.8216 93.3973 27.5513C93.545 28.3477 93.6982 29.1423 93.8405 29.9405C93.9847 30.7459 94.1126 31.5532 94.2567 32.3586C94.3522 32.8937 94.4639 33.427 94.5648 33.9622C94.5739 34.0108 94.5648 34.0649 94.5648 34.1369C93.6099 33.9586 92.673 33.7766 91.7324 33.609C90.7613 33.4342 89.7847 33.2775 88.8135 33.1045C88.118 32.9802 87.4261 32.836 86.7306 32.7081C86.3973 32.6468 86.0622 32.5928 85.727 32.5477C85.673 32.5405 85.5883 32.591 85.554 32.6396C85.0784 33.3153 84.6117 33.9946 84.1396 34.6739C83.0748 36.2054 82.0099 37.7369 80.945 39.2685C80.7847 39.4991 80.6261 39.7279 80.4369 40C78.6964 37.4973 76.9667 35.009 75.2387 32.5225L75.2369 32.5261ZM80.4333 2.52793C79.9649 3.20541 79.5108 3.86847 79.0531 4.52793C78.1955 5.76396 77.3342 6.9964 76.4838 8.23423C76.4315 8.30991 76.4117 8.44504 76.4423 8.52973C76.5793 8.9027 76.7396 9.26667 76.8928 9.63243C77.2495 10.4883 77.6099 11.3423 77.9649 12.1982C78.2603 12.9117 78.5504 13.627 78.8441 14.3423C78.8874 14.4468 78.9324 14.4919 79.0784 14.4559C79.9955 14.227 80.918 14.2432 81.8333 14.4613C81.9667 14.4937 81.9937 14.4396 82.0279 14.3586C82.3775 13.5081 82.7234 12.6577 83.0748 11.8072C83.5306 10.6991 83.9865 9.59099 84.4513 8.48468C84.4928 8.38378 84.4712 8.34054 84.4135 8.25946C83.6748 7.2018 82.945 6.14054 82.2099 5.08108C81.6225 4.23243 81.0315 3.38739 80.4351 2.52973L80.4333 2.52793ZM97.8964 19.991C96.8045 19.2342 95.745 18.5009 94.6856 17.7658C93.8369 17.1766 92.9901 16.5856 92.1396 16.0018C92.091 15.9676 92.0009 15.9532 91.9468 15.9748C91.5775 16.1189 91.2117 16.2739 90.8441 16.427C89.9883 16.7838 89.1342 17.1441 88.2784 17.5009C87.5522 17.8036 86.8243 18.1027 86.0946 18.4018C85.9721 18.4523 85.9342 18.5027 85.9721 18.6504C86.0459 18.9423 86.1036 19.2432 86.1234 19.5441C86.1631 20.1477 86.1324 20.7532 85.9811 21.3405C85.9324 21.5297 86.0135 21.5622 86.1342 21.6108C86.9378 21.9405 87.7414 22.2667 88.5432 22.6C89.6586 23.0631 90.7703 23.5333 91.8874 23.991C91.9703 24.0252 92.1126 24.0144 92.1847 23.964C93.6225 22.9712 95.055 21.9712 96.4892 20.9712C96.9486 20.6504 97.4063 20.3315 97.8946 19.9928L97.8964 19.991ZM80.4261 37.4414C80.4946 37.3586 80.5613 37.2883 80.6153 37.209C81.4315 36.0342 82.2441 34.8577 83.0585 33.6811C83.5 33.045 83.9432 32.4108 84.3811 31.773C84.4279 31.7045 84.482 31.5928 84.4586 31.5315C84.1414 30.7405 83.8081 29.9532 83.482 29.1658C82.9739 27.9423 82.4676 26.7189 81.9595 25.4901C80.9414 25.7784 79.9216 25.7441 78.9108 25.5045C78.5955 26.2522 78.2856 26.9766 77.9865 27.7045C77.473 28.9495 76.9721 30.2 76.4477 31.4396C76.3757 31.609 76.4315 31.7009 76.5108 31.8144C77.2063 32.8126 77.9054 33.809 78.5991 34.8072C79.2081 35.6829 79.8153 36.5604 80.4261 37.4414ZM74.9342 18.4757C74.8964 18.4505 74.873 18.4306 74.8477 18.4198C74.0369 18.0901 73.2261 17.7622 72.4171 17.4288C71.2622 16.9532 70.1054 16.4739 68.9541 15.9892C68.8387 15.9405 68.7739 15.9604 68.6802 16.0252C67.1522 17.0937 65.6207 18.1568 64.091 19.2216C63.7234 19.4775 63.3558 19.7315 62.9775 19.9946C64.0748 20.7568 65.145 21.4991 66.2171 22.2432C67.0405 22.8144 67.8603 23.3892 68.6874 23.9568C68.7486 23.9982 68.8549 24.0342 68.9162 24.0108C69.6531 23.7135 70.3847 23.4054 71.118 23.1009C71.9667 22.7495 72.8189 22.4036 73.6676 22.0505C74.0928 21.8739 74.5162 21.6883 74.9378 21.5081C74.664 20.4865 74.664 19.4865 74.9342 18.4757ZM84.6928 19.9982C84.6874 17.6126 82.7703 15.8486 80.6982 15.7441C78.0351 15.609 76.1595 17.7207 76.1757 19.9838C76.1937 22.4414 78.091 24.2559 80.455 24.2559C82.7919 24.2559 84.6838 22.3532 84.6928 19.9982ZM92.7541 32.3369C92.7577 32.2865 92.7721 32.2342 92.7631 32.1856C92.5685 31.0829 92.3739 29.982 92.1775 28.8793C91.9847 27.8 91.7901 26.7189 91.5883 25.6414C91.5703 25.5441 91.518 25.4126 91.4423 25.3766C91.1468 25.2306 90.8351 25.1171 90.5288 24.991C89.7198 24.6577 88.909 24.3279 88.1 23.9928C87.1973 23.6198 86.2964 23.2414 85.3829 22.8595C84.8712 23.6811 84.2315 24.3604 83.4135 24.8649C83.3666 24.8937 83.3396 25.027 83.3649 25.0883C83.5883 25.6486 83.8243 26.2036 84.0549 26.7604C84.4027 27.6036 84.7468 28.4468 85.0946 29.2901C85.3198 29.8342 85.5432 30.3784 85.7757 30.9189C85.8099 31 85.8856 31.0973 85.9612 31.1207C86.136 31.1748 86.3216 31.1892 86.5036 31.2198C87.1414 31.3297 87.7811 31.4378 88.4189 31.5532C89.1144 31.6793 89.8081 31.8144 90.5036 31.9405C91.2495 32.0757 91.9955 32.2036 92.7523 32.3351L92.7541 32.3369ZM68.0838 32.3423C68.2279 32.3171 68.3486 32.2937 68.4676 32.2721C69.1558 32.1477 69.8441 32.0198 70.5342 31.8973C71.1721 31.7838 71.8135 31.6793 72.4513 31.5658C73.1757 31.4378 73.9018 31.3117 74.6243 31.1694C74.7883 31.1369 74.9955 31.1784 75.0874 30.9459C75.3793 30.2144 75.6838 29.4883 75.9865 28.7622C76.3 28.0072 76.6153 27.2541 76.9288 26.4991C77.145 25.9766 77.354 25.4541 77.5685 24.9279C76.7 24.4144 76.0081 23.7369 75.5036 22.8703C75.473 22.8739 75.4423 22.8703 75.4153 22.8829C74.8513 23.1189 74.2892 23.3586 73.7252 23.591C72.8748 23.9423 72.0243 24.2901 71.1739 24.6414C70.6027 24.8775 70.0315 25.1153 69.4658 25.364C69.3955 25.3946 69.3252 25.4919 69.309 25.5694C69.1955 26.1243 69.0946 26.6829 68.9919 27.2396C68.8838 27.8342 68.7775 28.4288 68.673 29.0234C68.5595 29.6613 68.4495 30.3009 68.336 30.9387C68.255 31.4 68.1685 31.8613 68.082 32.3405L68.0838 32.3423ZM77.5721 15.0523C77.2153 14.1928 76.864 13.3514 76.5162 12.5099C76.0369 11.3477 75.5612 10.1838 75.0784 9.02162C75.0531 8.96216 74.9757 8.8991 74.9126 8.88649C74.4153 8.78739 73.9144 8.7009 73.4153 8.60901C72.6045 8.45946 71.7937 8.30991 70.9829 8.16036C70.2586 8.02703 69.536 7.89009 68.8117 7.75856C68.5757 7.71531 68.3378 7.68829 68.0802 7.65225C68.1919 8.23964 68.2964 8.78018 68.3973 9.32252C68.4928 9.84504 68.5829 10.3676 68.6748 10.8901C68.7865 11.5279 68.8964 12.1676 69.0099 12.8054C69.1054 13.3423 69.2027 13.8775 69.3108 14.4108C69.3252 14.4865 69.3883 14.5856 69.4549 14.6126C70.2117 14.9369 70.9739 15.2486 71.736 15.5658C72.5649 15.9099 73.3919 16.2577 74.2225 16.6C74.6423 16.7748 75.0658 16.9423 75.5 17.1189C76.0171 16.2468 76.6964 15.5622 77.5757 15.0486L77.5721 15.0523ZM83.3162 15.0216C83.6532 15.2847 84.0189 15.5189 84.318 15.8198C84.6676 16.1694 84.9595 16.5766 85.2712 16.9622C85.3378 17.045 85.3757 17.1315 85.518 17.0703C86.0243 16.8523 86.5378 16.6486 87.0477 16.4378C88.5018 15.8324 89.954 15.2288 91.4063 14.618C91.4657 14.5928 91.5324 14.5207 91.545 14.4613C91.6297 14.036 91.7 13.6072 91.7775 13.1784C91.9252 12.3604 92.0748 11.5405 92.2261 10.7225C92.3594 9.9982 92.4964 9.27568 92.6279 8.55135C92.6802 8.26486 92.7234 7.97658 92.7757 7.66667C92.6856 7.66667 92.6243 7.65766 92.5685 7.66667C92.0531 7.75856 91.5396 7.85045 91.0243 7.94595C90.3306 8.07568 89.6369 8.21081 88.9414 8.33874C88.1162 8.49009 87.2928 8.67027 86.4622 8.76937C86.0081 8.82342 85.7775 8.98739 85.6189 9.42703C85.3054 10.2973 84.909 11.1387 84.5541 11.9964C84.1342 13.009 83.7234 14.0252 83.3162 15.0198V15.0216Z" fill="#2F3542"/>
<path d="M19.6613 58.0559C19.645 60.9027 18.8036 63.1658 17.1405 64.8486C15.4775 66.5315 13.2288 67.373 10.3946 67.373C6.98378 67.373 4.28468 66.2108 2.29369 63.8865C0.765766 62.0973 0 60.0288 0 57.6793C0 55.9243 0.43964 54.2955 1.31712 52.7946C2.19459 51.2937 3.3982 50.1189 4.92793 49.2721C6.45766 48.4234 8.18739 48 10.1189 48C13.2541 48 16.0703 49.1874 18.5694 51.5604L17.1532 52.9153C15.0595 50.8595 12.7369 49.8306 10.182 49.8306C8.73333 49.8306 7.36396 50.182 6.07568 50.8829C4.74414 51.5928 3.71892 52.5568 2.9982 53.7766C2.27748 54.9964 1.91892 56.2829 1.91892 57.636C1.91892 59.0721 2.2991 60.4072 3.06126 61.6396C3.82342 62.8721 4.84504 63.8342 6.12613 64.5279C7.43964 65.2468 8.88108 65.6054 10.4468 65.6054C12.2811 65.6054 13.8541 65.1009 15.1694 64.0919C16.5423 63.0414 17.355 61.627 17.6054 59.8505H11.7117V58.0577H19.6613V58.0559Z" fill="#2F3542"/>
<path d="M46.8468 66.9081H44.8649L41.9676 60.8396H34.018L31.1333 66.9081H29.0775L37.7928 48.4631H38.245L46.8468 66.9081ZM41.155 59.0468L38.0198 52.364L34.8468 59.0468H41.155Z" fill="#2F3542"/>
<path d="M67.7225 66.9081H58.782V48.4649H60.6252V65.1171H67.7225V66.9099V66.9081Z" fill="#2F3542"/>
<path d="M89.6901 66.9081H80.7495V48.4649H82.5928V65.1171H89.6901V66.9099V66.9081Z" fill="#2F3542"/>
<path d="M104.56 50.2955V56.0378H113.225V57.8559H104.56V65.0775H113.225V66.9081H102.73V48.4649H113.301V50.2955H104.56Z" fill="#2F3542"/>
<path d="M136.434 66.9081H134.164L127.519 58.3315H126.465V66.9081H124.634V48.4649H128.308C130.357 48.4649 131.744 48.5477 132.47 48.7153C133.607 48.9748 134.508 49.5225 135.173 50.3586C135.838 51.1946 136.169 52.1982 136.169 53.3676C136.169 55.4739 135.254 56.9279 133.425 57.7315C132.544 58.1243 131.328 58.3243 129.775 58.3333L136.432 66.9099L136.434 66.9081ZM134.265 53.3658C134.265 52.7586 134.101 52.2018 133.775 51.6991C133.447 51.1946 133.007 50.8324 132.454 50.6126C131.901 50.3928 130.991 50.2811 129.724 50.2811H126.467V56.5261L129.649 56.5514C131.753 56.5676 133.13 56.0775 133.775 55.0775C134.101 54.5694 134.265 54 134.265 53.3658Z" fill="#2F3542"/>
<path d="M160.859 48.4649L155.016 58.0955V66.9099H153.186V58.0955L147.229 48.4649H149.348L154.081 56.0631L158.739 48.4649H160.859Z" fill="#2F3542"/>
</g>
<defs>
<clipPath id="clip0_59_2073">
<rect width="160.859" height="67.373" fill="white"/>
</clipPath>
</defs>
</svg>
