<svg width="135" height="160" viewBox="0 0 135 160" fill="none" xmlns="http://www.w3.org/2000/svg">
<g clip-path="url(#clip0_59_3291)">
<path d="M133.346 139.405C133.4 141.166 134.84 142.56 136.586 142.542L171.817 142.189C178.757 142.189 184.692 137.62 185.907 130.665L192.476 93.0757C193.259 88.5976 189.877 84.4878 185.408 84.4878H164.366C162.105 84.4878 160.222 86.2335 160.031 88.5046L157.59 117.454C156.091 125.455 146.906 128.13 136.671 130.49C134.595 130.969 133.145 132.864 133.211 135.011L133.346 139.405Z" fill="white"/>
<path d="M136.555 142.826C136.566 142.826 136.578 142.826 136.59 142.826L171.821 142.473C179.068 142.473 184.975 137.638 186.185 130.715L192.754 93.1261C193.144 90.8939 192.543 88.6216 191.103 86.8909C189.682 85.1841 187.607 84.2051 185.41 84.2051H164.369C161.944 84.2051 159.958 86.0438 159.753 88.4808L157.314 117.417C155.851 125.174 147.071 127.802 136.61 130.215C134.409 130.723 132.863 132.744 132.932 135.021L133.067 139.415C133.124 141.304 134.687 142.827 136.556 142.827L136.555 142.826ZM185.409 84.7719C187.44 84.7719 189.358 85.6768 190.672 87.2554C192.004 88.8566 192.562 90.9618 192.201 93.028L185.632 130.617C184.471 137.265 178.79 141.906 171.819 141.906L136.585 142.259C136.575 142.259 136.565 142.259 136.556 142.259C134.987 142.259 133.678 140.981 133.629 139.396L133.494 135.002C133.433 132.995 134.795 131.214 136.736 130.767C147.4 128.309 156.35 125.613 157.87 117.507C157.871 117.499 157.873 117.488 157.873 117.478L160.314 88.5286C160.494 86.3869 162.238 84.7719 164.369 84.7719H185.41H185.409Z" fill="black"/>
<path d="M127.327 121.446H228.56C230.446 121.446 231.913 123.233 231.698 125.275L224.708 192.1H219.661L224.037 129.383C224.114 128.278 223.311 127.335 222.293 127.335H135.393C133.87 127.335 132.668 128.745 132.784 130.399L137.116 192.492H132.069L124.959 124.333C124.798 122.795 125.904 121.446 127.327 121.446Z" fill="white"/>
<path d="M132.069 192.775H137.116C137.195 192.775 137.268 192.743 137.322 192.685C137.375 192.627 137.402 192.55 137.397 192.471L133.065 130.377C133.012 129.623 133.264 128.886 133.755 128.354C134.195 127.879 134.776 127.616 135.394 127.616H222.292C222.678 127.616 223.042 127.781 223.319 128.079C223.629 128.415 223.788 128.882 223.755 129.361L219.379 192.078C219.374 192.156 219.4 192.234 219.454 192.291C219.508 192.349 219.581 192.382 219.66 192.382H224.708C224.851 192.382 224.972 192.273 224.987 192.128L231.977 125.304C232.093 124.196 231.749 123.1 231.033 122.298C230.38 121.566 229.501 121.164 228.559 121.164H127.327C126.597 121.164 125.916 121.475 125.41 122.043C124.857 122.663 124.591 123.509 124.68 124.365L131.79 192.523C131.805 192.667 131.926 192.777 132.069 192.777V192.775ZM136.815 192.208H132.322L125.238 124.304C125.166 123.608 125.38 122.923 125.828 122.422C126.227 121.975 126.759 121.73 127.327 121.73H228.56C229.34 121.73 230.071 122.067 230.615 122.678C231.225 123.361 231.518 124.297 231.418 125.244L224.454 191.816H219.961L224.316 129.402C224.36 128.767 224.146 128.145 223.73 127.694C223.346 127.279 222.836 127.051 222.292 127.051H135.393C134.617 127.051 133.89 127.376 133.343 127.968C132.746 128.614 132.439 129.508 132.503 130.418L136.813 192.208H136.815Z" fill="black"/>
<path d="M166.64 5.03977C166.743 5.03977 166.844 4.98196 166.893 4.88141C166.961 4.74065 166.903 4.57097 166.763 4.50185C148.987 -4.25826 132.442 -5.0664 121.693 -4.20422C110.042 -3.26788 102.486 -0.215036 102.411 -0.183615C102.268 -0.124544 102.198 0.041358 102.256 0.185894C102.315 0.331686 102.48 0.399554 102.623 0.34174C102.696 0.311576 110.189 -2.71361 121.76 -3.64116C132.433 -4.49454 148.863 -3.68892 166.516 5.01087C166.556 5.03098 166.599 5.03977 166.64 5.03977Z" fill="black"/>
<path d="M12.0001 108.46C12.0375 108.46 12.0761 108.452 12.1135 108.436C12.2556 108.373 12.3192 108.206 12.2569 108.061L11.3758 106.049C11.3135 105.906 11.1477 105.842 11.0044 105.904C10.8623 105.967 10.7988 106.134 10.8611 106.279L11.7422 108.291C11.7883 108.397 11.8917 108.46 12.0001 108.46Z" fill="black"/>
<path d="M14.0524 113.146C14.0898 113.146 14.1284 113.139 14.1658 113.122C14.3078 113.059 14.3714 112.891 14.3091 112.748L13.428 110.736C13.3657 110.592 13.2 110.528 13.0566 110.591C12.9146 110.654 12.851 110.822 12.9133 110.966L13.7944 112.978C13.8405 113.083 13.944 113.146 14.0524 113.146Z" fill="black"/>
<path d="M13.9116 109.207C13.949 109.207 13.9877 109.2 14.025 109.184L16.0203 108.295C16.1623 108.232 16.2259 108.065 16.1636 107.92C16.1013 107.778 15.9355 107.713 15.7922 107.776L13.797 108.664C13.6549 108.727 13.5914 108.894 13.6537 109.039C13.6998 109.145 13.8032 109.207 13.9116 109.207Z" fill="black"/>
<path d="M9.26465 111.277C9.30204 111.277 9.34068 111.27 9.37807 111.253L11.3733 110.365C11.5154 110.302 11.5789 110.134 11.5166 109.99C11.4543 109.848 11.2885 109.783 11.1452 109.846L9.15 110.734C9.00792 110.797 8.94438 110.964 9.00669 111.109C9.0528 111.214 9.15623 111.277 9.26465 111.277Z" fill="black"/>
<path d="M43.6657 40.6043C42.9329 39.6994 34.6604 29.1181 38.5673 16.1577C41.3103 7.05822 49.2974 -0.698941 59.0954 -1.74337C60.7479 -1.91932 71.1727 -3.03036 77.3353 5.01461C81.4853 10.4328 82.42 18.327 79.1274 24.3359C75.2142 31.4772 66.9454 33.0105 65.7179 33.2191C57.1201 34.6758 51.9818 29.3959 47.4393 32.4148C44.6602 34.2623 43.905 38.019 43.6669 40.6043H43.6657Z" fill="black"/>
<path d="M60.7366 13.1967C58.2155 9.49159 54.9428 7.95826 53.1682 8.88203C51.1356 9.93903 51.4696 14.0086 51.5281 14.6195C52.0603 20.1244 57.2322 23.3431 58.3002 23.9791C59.033 23.7755 67.6607 21.2606 68.7474 15.0506C69.0739 13.1854 68.8883 10.0257 67.1697 9.24023C65.5521 8.49995 62.7318 9.934 60.7366 13.1967Z" fill="white"/>
<path d="M86.4892 148.882L128.252 162.892C128.252 162.892 128.036 165.916 127.629 171.091L134.021 169.862C134.021 169.862 138.532 197.446 137.97 215.873C137.799 221.461 79.1039 217.902 76.6862 210.487L86.4879 148.882H86.4892Z" fill="black"/>
<path d="M45.762 69.2099C46.0923 69.1458 46.3291 68.8542 46.3216 68.5148C46.2842 66.7528 45.9203 61.4691 42.9804 59.0434C39.4224 56.1074 36.404 49.367 34.248 50.0193C32.092 50.6716 36.8352 56.5423 36.2969 57.1958C35.7572 57.8481 31.9849 54.1518 30.7984 51.9775C29.612 49.8032 28.1776 45.5475 26.4553 45.6921C24.0937 45.8906 23.5752 49.4764 26.7021 56.5435C29.6768 63.2688 39.6816 65.0711 40.4568 69.5392C40.5229 69.9187 40.8893 70.1663 41.2644 70.0934L45.762 69.2111V69.2099Z" fill="white"/>
<path d="M41.1296 70.3888C41.1919 70.3888 41.2555 70.3825 41.3178 70.37L45.8155 69.4877C46.2816 69.3959 46.6118 68.985 46.6018 68.5086C46.557 66.4135 46.132 61.2768 43.1585 58.8235C41.6842 57.6069 40.2659 55.6726 39.0135 53.9658C37.108 51.3667 35.6025 49.313 34.1669 49.7479C33.8428 49.8459 33.6098 50.0521 33.4926 50.3436C33.0864 51.3516 34.1432 53.267 35.0754 54.9562C35.4754 55.6801 36.0113 56.6529 36.0574 56.9885C35.3308 56.9005 32.1741 53.9105 31.045 51.8405C30.7696 51.3353 30.4792 50.7144 30.1727 50.0558C29.1532 47.8727 28.0005 45.4043 26.5411 45.4043C26.505 45.4043 26.4688 45.4056 26.4327 45.4093C25.6874 45.4722 25.0955 45.8429 24.7216 46.4814C23.7009 48.2234 24.3128 51.838 26.4464 56.6605C28.0441 60.2726 31.5822 62.4695 34.704 64.4076C37.4569 66.1169 39.8335 67.5936 40.18 69.5895C40.2248 69.8459 40.3669 70.0696 40.5813 70.2179C40.7458 70.3323 40.9352 70.3914 41.1308 70.3914L41.1296 70.3888ZM45.7083 68.9322L41.2106 69.8145C41.1009 69.8358 40.99 69.8132 40.899 69.7491C40.8106 69.6875 40.7507 69.5958 40.7333 69.4902C40.3432 67.243 37.8657 65.7046 34.9981 63.9237C31.9461 62.0284 28.4852 59.8792 26.9586 56.428C24.931 51.8456 24.2929 48.3252 25.2051 46.7692C25.4868 46.2891 25.9155 46.0214 26.4788 45.9736C27.5979 45.8844 28.7445 48.3302 29.6642 50.2984C29.9758 50.9645 30.2686 51.5929 30.5528 52.1133C31.6009 54.035 34.8909 57.441 36.0412 57.5516C36.3054 57.578 36.4512 57.4535 36.5135 57.3769C36.8251 56.9986 36.4487 56.2771 35.5676 54.6797C34.7837 53.2595 33.7095 51.3127 34.0148 50.556C34.0684 50.4228 34.1681 50.3386 34.3301 50.2909C35.3832 49.9704 36.9298 52.0756 38.5636 54.3027C39.8347 56.0358 41.2754 58.0015 42.8045 59.2621C45.6759 61.6312 46.0086 66.9476 46.0423 68.5212C46.0473 68.721 45.9064 68.8932 45.7095 68.9322H45.7083Z" fill="black"/>
<path d="M40.6173 68.5674L45.6247 67.5581C46.7288 67.3357 47.8106 68.0282 48.0797 69.1317C49.6575 75.5993 54.883 95.8381 58.8809 97.4807C63.6453 99.4389 67.5286 94.4556 75.6453 90.3621C79.976 88.1789 86.5923 87.362 91.824 87.0754C96.3977 86.8253 100.98 87.2237 105.448 88.2418L119.705 91.4894C121.438 91.7898 127.267 92.9046 133.622 96.4338C133.223 97.0962 132.851 97.7698 132.504 98.441C127.511 108.056 134.086 123.868 135.12 134.685C130.191 141.932 122.181 144.875 125.315 149.769C131.635 159.635 133.561 165.699 133.756 174.543C125.585 168.489 113.206 160.879 96.7878 155.964C88.3308 153.431 84.6718 151.879 78.6662 151.215C77.8923 151.13 77.3327 150.426 77.4274 149.647C78.0418 144.543 78.1926 128.416 79.075 121.185C79.4439 118.164 78.9529 113.98 80.9406 108.516C71.7558 117.045 59.6748 120.813 50.5872 117.058C37.2512 111.548 29.1955 89.3553 40.6173 68.5699V68.5674Z" fill="white"/>
<path d="M133.758 174.825C133.802 174.825 133.846 174.815 133.887 174.792C133.982 174.742 134.04 174.643 134.038 174.535C133.836 165.38 131.774 159.324 125.552 149.613C123.698 146.717 126.062 144.506 129.336 141.447C131.299 139.612 133.523 137.534 135.352 134.844C135.389 134.789 135.406 134.723 135.4 134.657C135.085 131.359 134.267 127.645 133.402 123.712C131.491 115.025 129.323 105.178 132.753 98.5718C133.133 97.8403 133.496 97.188 133.862 96.5797C133.902 96.5131 133.913 96.4339 133.893 96.3598C133.873 96.2856 133.825 96.2215 133.758 96.1851C127.951 92.96 122.49 91.6831 119.752 91.2093L105.509 87.9641C100.996 86.9361 96.3866 86.5414 91.8079 86.7915C86.8366 87.0643 79.9761 87.8598 75.5195 90.107C72.8538 91.4519 70.6542 92.8834 68.7138 94.1465C64.7059 96.7557 62.0577 98.4788 58.9869 97.2169C55.9 95.9488 51.4696 81.8421 48.3528 69.0627C48.0474 67.8096 46.8261 67.0266 45.5699 67.2792L40.5625 68.2897C40.4815 68.3061 40.4117 68.3576 40.3718 68.4305C34.5457 79.0331 33.287 91.0911 36.9198 101.514C39.5593 109.088 44.5019 114.849 50.4813 117.319C54.9379 119.16 60.2369 119.279 65.8051 117.663C70.911 116.181 75.9109 113.352 80.3238 109.453C79.1922 113.013 79.0713 116.003 78.9729 118.446C78.933 119.419 78.8969 120.338 78.7972 121.147C78.3136 125.107 78.0457 131.816 77.8089 137.733C77.612 142.655 77.4263 147.304 77.1484 149.609C77.0948 150.059 77.2182 150.504 77.4986 150.86C77.7802 151.218 78.184 151.443 78.6364 151.493C83.1391 151.991 86.3581 153.005 91.2309 154.54C92.8236 155.041 94.6281 155.609 96.7094 156.233C109.92 160.188 122.327 166.424 133.591 174.77C133.639 174.806 133.698 174.825 133.756 174.825H133.758ZM134.831 134.608C133.048 137.204 130.874 139.237 128.953 141.031C125.61 144.157 122.969 146.625 125.08 149.921C131.104 159.324 133.187 165.257 133.461 173.972C122.268 165.759 109.961 159.61 96.8701 155.69C94.7926 155.068 92.9906 154.499 91.3991 153.999C86.4952 152.455 83.255 151.435 78.6987 150.931C78.3971 150.899 78.1279 150.748 77.9398 150.509C77.7541 150.273 77.6718 149.977 77.7067 149.678C77.9859 147.351 78.1728 142.69 78.3697 137.757C78.6052 131.85 78.8732 125.155 79.3542 121.217C79.4564 120.385 79.4938 119.455 79.5337 118.47C79.6409 115.832 79.773 112.548 81.2049 108.611C81.2498 108.488 81.2049 108.35 81.0977 108.278C80.9905 108.205 80.8472 108.217 80.7513 108.306C71.4319 116.96 59.3533 120.372 50.6957 116.795C44.8645 114.385 40.0379 108.747 37.4519 101.326C33.8864 91.0937 35.1077 79.2531 40.803 68.8201L45.6821 67.836C46.6417 67.6437 47.5764 68.2407 47.8094 69.1984C49.7685 77.2308 54.7597 96.0908 58.7776 97.7423C62.1212 99.116 65.0162 97.232 69.0217 94.6228C70.9496 93.3673 73.1355 91.9445 75.7738 90.6135C80.1443 88.4103 86.9239 87.6261 91.8415 87.3571C96.3691 87.1108 100.925 87.5004 105.388 88.5172L119.645 91.7648C122.322 92.2286 127.594 93.459 133.233 96.5395C132.911 97.085 132.591 97.6669 132.257 98.3079C128.732 105.099 130.922 115.053 132.855 123.835C133.708 127.709 134.514 131.37 134.832 134.609L134.831 134.608Z" fill="black"/>
<path d="M97.7911 152.254C97.8322 152.254 97.8746 152.245 97.9145 152.225C98.054 152.156 98.1114 151.986 98.0428 151.845L85.8073 126.692C85.7387 126.552 85.5705 126.494 85.4309 126.563C85.2913 126.632 85.234 126.802 85.3025 126.942L97.5381 152.095C97.5867 152.196 97.6864 152.254 97.7911 152.254Z" fill="black"/>
<path d="M87.0849 143.949C87.121 143.949 87.1571 143.941 87.192 143.927C87.3354 143.868 87.4039 143.702 87.3441 143.556L83.9904 135.369C83.9306 135.225 83.7661 135.156 83.6228 135.216C83.4795 135.275 83.411 135.441 83.4708 135.587L86.8244 143.774C86.8693 143.883 86.974 143.949 87.0836 143.949H87.0849Z" fill="black"/>
<path d="M151.307 130.542L163.532 185.942C164.213 189.03 162.866 192.207 160.193 193.864C145.676 202.863 128.641 202.033 119.951 200.787C116.625 200.311 114.088 197.546 113.882 194.164L110.239 134.685L151.307 130.543V130.542Z" fill="white"/>
<path d="M130.602 201.832C139.434 201.832 150.459 200.23 160.34 194.105C163.119 192.383 164.511 189.078 163.806 185.88L151.581 130.481C151.55 130.34 151.422 130.247 151.279 130.259L110.21 134.401C110.059 134.416 109.948 134.548 109.957 134.7L113.6 194.179C113.814 197.677 116.469 200.573 119.911 201.067C122.751 201.474 126.432 201.831 130.602 201.831V201.832ZM151.087 130.849L163.258 186.002C163.911 188.963 162.621 192.025 160.046 193.621C145.649 202.545 128.77 201.764 119.991 200.505C116.811 200.05 114.36 197.374 114.162 194.144L110.535 134.937L151.087 130.848V130.849Z" fill="black"/>
<path d="M148.061 182.21C148.061 182.21 160.351 161.331 129.23 152.05C129.23 152.05 111.608 179.443 142.474 184.531C137.579 179.88 135.282 171.496 134.376 161.11C136.597 170.876 140.08 179.169 148.061 182.21Z" fill="black"/>
<path d="M133.623 96.4316C133.623 96.4316 182.218 119.359 168.458 147.108C157.702 168.802 130.53 142.723 130.53 142.723L136.64 132.02C136.64 132.02 148.273 141.042 149.373 136.389C150.454 131.82 145.025 126.177 129.799 129.107L126.445 132.992C126.445 132.992 115.089 115.27 133.622 96.4316H133.623Z" fill="white"/>
<path d="M155.805 156.018C156.679 156.018 157.543 155.948 158.395 155.798C162.809 155.019 166.28 152.138 168.71 147.237C171.57 141.468 171.957 135.461 169.861 129.385C166.417 119.397 156.772 110.897 149.29 105.525C141.197 99.7158 133.816 96.2105 133.743 96.1754C133.636 96.1251 133.507 96.1477 133.424 96.2332C123.775 106.041 122.323 115.549 122.805 121.8C123.327 128.578 126.182 133.102 126.211 133.148C126.258 133.222 126.339 133.269 126.426 133.276C126.515 133.285 126.601 133.247 126.658 133.179L129.947 129.368C141.805 127.108 146.344 130.301 147.747 131.781C148.999 133.104 149.48 134.717 149.1 136.325C148.977 136.848 148.705 137.177 148.269 137.333C145.844 138.197 139.176 133.631 136.812 131.798C136.749 131.749 136.665 131.729 136.585 131.745C136.506 131.761 136.437 131.81 136.397 131.882L130.287 142.585C130.222 142.698 130.243 142.841 130.337 142.932C130.933 143.504 144.118 156.021 155.804 156.021L155.805 156.018ZM133.683 96.7749C136.147 97.9764 163.093 111.484 169.332 129.571C171.375 135.498 170.998 141.356 168.208 146.983C165.861 151.716 162.527 154.494 158.297 155.24C157.497 155.381 156.679 155.447 155.852 155.447C145.016 155.449 132.452 144.122 130.886 142.671L136.726 132.442C138.216 133.567 145.522 138.919 148.457 137.867C149.079 137.644 149.479 137.171 149.647 136.457C150.074 134.656 149.543 132.856 148.153 131.39C145.046 128.111 138.336 127.178 129.746 128.83C129.684 128.842 129.628 128.874 129.587 128.923L126.488 132.513C125.844 131.373 123.789 127.344 123.363 121.729C122.899 115.635 124.32 106.371 133.683 96.7774V96.7749Z" fill="black"/>
<path d="M133.623 96.4313L129.747 94.5234C129.747 94.5234 116.439 108.533 119.982 134.683H126.927C126.927 134.683 119.886 114.215 133.623 96.4313Z" fill="white"/>
<path d="M119.982 134.967H126.927C127.018 134.967 127.103 134.923 127.156 134.848C127.209 134.774 127.222 134.677 127.192 134.59C127.175 134.539 125.444 129.417 125.404 122.203C125.368 115.557 126.804 105.721 133.845 96.6048C133.897 96.537 133.916 96.4503 133.897 96.3673C133.879 96.2844 133.822 96.214 133.746 96.1763L129.871 94.2684C129.761 94.2144 129.629 94.2382 129.544 94.3275C129.51 94.3627 126.148 97.9446 123.277 104.685C120.631 110.896 117.863 121.148 119.703 134.721C119.721 134.862 119.841 134.966 119.98 134.966L119.982 134.967ZM126.543 134.4H120.227C118.474 121.093 121.187 111.04 123.783 104.936C126.285 99.0519 129.159 95.6145 129.813 94.8729L133.191 96.5345C126.228 105.707 124.805 115.554 124.843 122.229C124.879 128.41 126.144 133.082 126.543 134.4Z" fill="black"/>
<path d="M135.121 134.683L128.357 127.374L115.553 126.081C115.553 126.081 112.975 132.49 119.982 134.683C126.988 136.876 131.578 139.393 131.578 139.393L135.121 134.683Z" fill="white"/>
<path d="M131.578 139.678C131.664 139.678 131.748 139.639 131.802 139.566L135.345 134.855C135.428 134.746 135.42 134.591 135.327 134.491L128.562 127.182C128.516 127.132 128.452 127.101 128.385 127.094L115.581 125.801C115.457 125.79 115.34 125.86 115.292 125.977C115.246 126.093 114.166 128.843 115.379 131.428C116.152 133.072 117.671 134.259 119.898 134.956C126.797 137.115 131.397 139.619 131.443 139.645C131.486 139.668 131.532 139.679 131.578 139.679V139.678ZM134.755 134.703L131.498 139.032C130.51 138.514 126.178 136.327 120.065 134.414C117.995 133.767 116.591 132.68 115.888 131.185C114.954 129.199 115.53 127.04 115.743 126.388L128.223 127.649L134.753 134.704L134.755 134.703Z" fill="black"/>
<path d="M106.479 79.9912C106.479 79.9912 108.049 81.7344 111.331 81.1224L106.479 79.9912Z" fill="white"/>
<path d="M109.963 81.5381C110.397 81.5381 110.868 81.4979 111.38 81.4024C111.532 81.3735 111.635 81.2264 111.606 81.0718C111.579 80.9185 111.432 80.8154 111.278 80.8444C108.188 81.4212 106.701 79.8175 106.686 79.8012C106.581 79.6856 106.404 79.678 106.288 79.7823C106.174 79.8879 106.165 80.0664 106.27 80.1833C106.328 80.2474 107.525 81.5394 109.963 81.5394V81.5381Z" fill="black"/>
<path d="M101.404 56.0745C101.404 71.5737 111.622 89.2611 126.991 89.2611C142.36 89.2611 158.002 75.9073 158.002 60.4081C158.002 44.9088 145.073 29.9814 129.703 29.9814C114.333 29.9814 101.403 40.5753 101.403 56.0745H101.404Z" fill="black"/>
<path d="M141.601 83.5289C141.601 87.2026 138.647 90.1813 135.004 90.1813C131.361 90.1813 128.408 87.2026 128.408 83.5289C128.408 79.8552 131.361 76.8765 135.004 76.8765C138.647 76.8765 141.601 79.8552 141.601 83.5289Z" fill="black"/>
<path d="M121.737 89.7337C118.341 87.5646 117.332 83.03 119.483 79.6055C121.633 76.1809 126.13 75.1632 129.525 77.3323C132.921 79.5014 133.93 84.0359 131.779 87.4605C129.629 90.885 125.132 91.9028 121.737 89.7337Z" fill="black"/>
<path d="M100.701 59.9191C99.0881 57.6626 99.5947 54.5151 101.832 52.8889C104.07 51.2627 107.19 51.7736 108.803 54.0301C110.415 56.2865 109.909 59.434 107.671 61.0602C105.434 62.6864 102.313 62.1755 100.701 59.9191Z" fill="black"/>
<path d="M104.454 55.8423C101.533 55.8423 99.1646 53.4542 99.1646 50.5083C99.1646 47.5624 101.533 45.1743 104.454 45.1743C107.375 45.1743 109.743 47.5624 109.743 50.5083C109.743 53.4542 107.375 55.8423 104.454 55.8423Z" fill="black"/>
<path d="M104.178 48.1274C101.992 45.9232 101.992 42.3493 104.178 40.145C106.363 37.9407 109.907 37.9407 112.093 40.145C114.278 42.3493 114.278 45.9232 112.093 48.1274C109.907 50.3317 106.363 50.3317 104.178 48.1274Z" fill="black"/>
<path d="M112.106 42.5199C109.209 42.5199 106.86 40.1515 106.86 37.2299C106.86 34.3084 109.209 31.9399 112.106 31.9399C115.003 31.9399 117.351 34.3084 117.351 37.2299C117.351 40.1515 115.003 42.5199 112.106 42.5199Z" fill="black"/>
<path d="M118.757 37.2308C116.772 37.2308 115.163 35.608 115.163 33.6061C115.163 31.6043 116.772 29.9814 118.757 29.9814C120.742 29.9814 122.351 31.6043 122.351 33.6061C122.351 35.608 120.742 37.2308 118.757 37.2308Z" fill="black"/>
<path d="M120.696 33.2307C120.249 30.744 121.885 28.3624 124.351 27.9114C126.817 27.4604 129.179 29.1107 129.626 31.5974C130.073 34.0842 128.437 36.4657 125.971 36.9167C123.505 37.3678 121.144 35.7175 120.696 33.2307Z" fill="black"/>
<path d="M128.078 39.5623C125.68 37.144 125.68 33.2232 128.078 30.8049C130.476 28.3866 134.364 28.3866 136.762 30.8049C139.16 33.2232 139.16 37.144 136.762 39.5623C134.364 41.9806 130.476 41.9806 128.078 39.5623Z" fill="black"/>
<path d="M138.365 40.902C135.417 40.2002 133.591 37.2211 134.287 34.248C134.983 31.2748 137.937 29.4334 140.885 30.1352C143.833 30.8369 145.659 33.816 144.963 36.7892C144.267 39.7623 141.313 41.6037 138.365 40.902Z" fill="black"/>
<path d="M109.996 56.5686C108.819 57.2209 108.185 57.3479 107.206 57.9951C105.217 59.3123 102.84 63.8733 99.825 64.3296C99.2256 65.8541 100.444 66.2764 100.753 67.2504C100.255 67.9606 98.9913 71.4734 97.9594 73.571C97.598 74.3063 97.8335 75.2049 98.5177 75.6498C99.6692 76.3989 101.011 77.0009 102.564 77.4195C102.564 77.4195 108.747 90.762 99.3477 95.5518L119.279 93.8211L113.922 76.1677C114.18 76.1249 117.554 75.5116 118.383 72.9514C118.687 72.0113 118.767 70.4365 117.968 69.9451C117.188 69.465 115.62 70.0456 114.39 71.6908C114.275 71.2208 114.21 70.6351 114.157 69.9627C114.083 69.0414 114.096 68.0058 114.438 67.5496C106.996 63.8997 115.5 57.5628 109.998 56.5674L109.996 56.5686Z" fill="white"/>
<path d="M99.3465 95.8358C99.3552 95.8358 99.3627 95.8358 99.3714 95.8358L119.303 94.1051C119.387 94.0976 119.463 94.0523 119.512 93.9819C119.561 93.9116 119.573 93.8223 119.548 93.7406L114.283 76.3876C115.242 76.1714 117.897 75.3708 118.65 73.0431C118.964 72.0741 119.094 70.3108 118.114 69.7075C117.323 69.2211 115.838 69.6145 114.553 71.0498C114.5 70.6878 114.465 70.2995 114.436 69.9451C114.316 68.4356 114.526 67.9065 114.662 67.7255C114.713 67.6576 114.73 67.5709 114.711 67.488C114.691 67.4063 114.637 67.3359 114.561 67.2994C110.698 65.4054 111.34 62.8213 111.907 60.5427C112.211 59.3223 112.498 58.1698 111.962 57.334C111.623 56.8062 110.998 56.4656 110.047 56.2934C109.983 56.2821 109.918 56.2934 109.862 56.3235C109.361 56.6013 108.965 56.7798 108.582 56.9519C108.09 57.1731 107.625 57.383 107.053 57.7613C106.294 58.2641 105.495 59.2017 104.649 60.1946C103.217 61.875 101.595 63.779 99.7839 64.053C99.6842 64.0681 99.602 64.1347 99.5646 64.229C99.1047 65.3953 99.6132 66.0514 100.022 66.578C100.188 66.7917 100.345 66.9953 100.442 67.2215C100.159 67.6991 99.7391 68.7184 99.2194 69.9777C98.7396 71.1428 98.1937 72.4637 97.7089 73.4504C97.2802 74.3213 97.5631 75.3708 98.3669 75.8936C99.5409 76.6565 100.884 77.2523 102.362 77.6633C102.934 78.9854 107.805 90.9304 99.2219 95.3041C99.1022 95.3657 99.0412 95.504 99.0786 95.6347C99.1135 95.7578 99.2244 95.8408 99.349 95.8408L99.3465 95.8358ZM118.907 93.5684L100.577 95.1609C108.51 89.8545 102.88 77.4295 102.819 77.3C102.784 77.2246 102.716 77.1681 102.637 77.1467C101.164 76.7495 99.8288 76.1664 98.671 75.4123C98.109 75.0465 97.9108 74.31 98.2124 73.698C98.7059 72.6938 99.2543 71.364 99.7391 70.1914C100.254 68.9421 100.741 67.7619 100.985 67.4138C101.036 67.3409 101.05 67.2479 101.024 67.1637C100.906 66.7904 100.682 66.5026 100.466 66.2248C100.088 65.7384 99.7852 65.3476 100.036 64.5809C101.981 64.1938 103.624 62.2671 105.078 60.5603C105.897 59.5988 106.671 58.6901 107.364 58.2314C107.897 57.8782 108.322 57.6872 108.813 57.466C109.167 57.3064 109.563 57.1279 110.045 56.8652C110.779 57.011 111.253 57.2636 111.491 57.6369C111.894 58.2653 111.648 59.2545 111.364 60.3994C110.819 62.5926 110.075 65.5788 114.052 67.6702C113.85 68.1553 113.793 68.9182 113.878 69.9853C113.924 70.5634 113.989 71.2258 114.118 71.7574C114.144 71.8642 114.228 71.9459 114.335 71.9673C114.441 71.9887 114.551 71.9472 114.617 71.8605C115.735 70.3648 117.178 69.788 117.824 70.1851C118.455 70.5735 118.4 71.9887 118.119 72.8609C117.337 75.2803 114.021 75.8622 113.88 75.8848C113.8 75.8987 113.731 75.9452 113.687 76.0156C113.645 76.0847 113.633 76.1689 113.657 76.2481L118.912 93.5659L118.907 93.5684Z" fill="black"/>
<path d="M109.212 77.6974C109.212 77.6974 106.211 78.86 102.814 77.4976L109.212 77.6974Z" fill="white"/>
<path d="M106.293 78.4477C108.029 78.4477 109.233 77.994 109.313 77.9626C109.457 77.906 109.53 77.7426 109.475 77.5969C109.42 77.4511 109.258 77.3769 109.112 77.4335C109.084 77.4448 106.166 78.537 102.918 77.2349C102.775 77.1771 102.611 77.2487 102.553 77.3933C102.496 77.539 102.567 77.7037 102.71 77.7615C104.01 78.2831 105.248 78.4477 106.293 78.4477Z" fill="black"/>
<path d="M23.7033 171.356C23.5825 171.258 21.7119 171.942 21.4314 171.993C20.6501 172.139 19.8537 172.215 19.0586 172.206C17.618 172.19 16.1586 171.904 14.865 171.249C13.6599 170.64 13.1489 169.9 12.4299 168.836C11.5214 167.491 10.4533 166.482 9.86012 164.912C9.23201 163.251 9.32423 161.403 8.6687 159.752C8.06802 158.242 6.61366 157.394 5.61666 156.174C4.5424 154.86 4.00902 153.16 3.86571 151.463C3.70619 149.579 3.75105 147.235 4.71563 145.575C5.50201 144.221 7.39256 142.883 6.92896 141.102C6.73953 140.372 6.14632 139.836 5.67026 139.253C4.37541 137.669 4.26201 135.936 4.12741 134.001C3.99905 132.157 4.51126 130.111 5.90829 128.835C9.54856 125.51 17.4086 128.448 17.264 133.541C17.2117 135.393 18.0267 137.252 19.4213 138.457C20.0132 138.969 20.7024 139.37 21.2283 139.951C22.6627 141.534 21.9212 143.828 20.989 145.429C20.0743 147.001 18.8131 148.728 19.4125 150.651C20.0269 152.622 21.7692 152.313 22.3549 154.228C23.317 157.375 19.0586 159.658 18.9091 163.603C18.8368 165.513 19.7179 168.127 23.7046 171.356H23.7033Z" fill="black"/>
<path d="M24.6802 171.925C24.8148 171.925 24.9345 171.827 24.9569 171.689C24.9831 171.534 24.8796 171.389 24.7263 171.362C23.0701 171.078 21.5285 170.472 20.1439 169.563C18.1562 168.255 16.7167 166.593 15.8656 164.619C14.9807 162.568 15.0331 160.828 15.1203 157.946C15.1801 155.937 15.4007 154.815 15.6126 153.73C15.8244 152.649 16.0238 151.628 16.0674 149.848C16.1036 148.385 16.1696 145.66 15.2287 142.554C14.2853 139.439 12.4509 136.502 9.92225 134.06C9.81133 133.951 9.63311 133.955 9.52469 134.068C9.41751 134.181 9.42126 134.361 9.53342 134.469C11.9923 136.843 13.7756 139.696 14.6916 142.719C15.6051 145.738 15.5403 148.403 15.5054 149.834C15.463 151.565 15.2686 152.564 15.0617 153.62C14.8449 154.728 14.6206 155.873 14.5583 157.928C14.4685 160.89 14.4149 162.679 15.3509 164.846C16.2469 166.923 17.7574 168.67 19.8386 170.038C21.2879 170.992 22.9018 171.625 24.6341 171.922C24.6503 171.924 24.6653 171.925 24.6815 171.925H24.6802Z" fill="white"/>
<path d="M32.3909 168.714C30.7122 168.865 28.6983 167.43 27.6589 166.227C27.3386 165.855 25.0418 163.197 25.6537 160.578C26.1697 158.367 28.3045 158.128 28.2434 156.635C28.1774 155.004 25.8693 154.422 25.0032 153.302C23.6772 151.585 25.2687 149.976 25.9877 148.413C27.1206 145.949 25.3335 144.517 23.398 143.272C22.4683 142.675 21.4203 141.941 21.0277 140.848C20.6227 139.719 21.0302 138.602 20.2675 137.501C19.7802 136.797 19.0462 136.268 18.6835 135.49C18.2847 134.635 18.4044 133.639 18.5327 132.704C18.8555 130.35 18.6 126.814 20.3946 125.085C22.4958 123.061 25.6612 123.895 27.9144 125.202C30.1103 126.476 31.2344 129.191 33.6982 130.061C34.6179 130.385 35.6299 130.387 36.5396 130.742C39.7051 131.98 39.2004 135.974 38.6956 138.651C38.333 140.58 38.0476 142.744 39.3885 144.375C39.7911 144.865 40.307 145.276 40.5775 145.85C41.4162 147.639 40.3083 149.447 39.0708 150.708C38.4103 151.38 37.6613 151.967 36.8774 152.486C36.3116 152.859 34.937 153.358 34.9395 154.174C34.9395 154.52 35.2174 154.799 35.499 154.995C36.0586 155.386 36.7191 155.632 37.2114 156.106C40.4005 159.167 33.6434 162.996 31.951 164.652C31.5634 165.032 31.1783 165.457 31.0574 165.988C30.787 167.171 31.8027 167.889 32.3884 168.714H32.3909Z" fill="black"/>
<path d="M34.0658 170.212C34.1879 170.212 34.3001 170.132 34.3362 170.009C34.3798 169.858 34.2951 169.701 34.1455 169.657C33.3517 169.423 32.1777 168.866 31.0922 167.549C31.0262 167.469 29.4759 165.56 29.0509 162.86C28.6882 160.55 29.3525 158.966 30.2722 156.774C30.7221 155.701 31.2331 154.484 31.7004 152.985C32.3136 151.022 34.1779 145.048 33.1784 139.812C31.8861 133.047 26.0051 129.208 23.5363 127.872C23.3992 127.798 23.2285 127.85 23.1562 127.988C23.0827 128.126 23.1338 128.297 23.2708 128.371C25.6686 129.67 31.3801 133.394 32.6264 139.92C33.5997 145.014 31.7665 150.886 31.1645 152.815C30.7047 154.288 30.1999 155.492 29.755 156.553C28.8353 158.746 28.1087 160.478 28.4963 162.948C28.9375 165.752 30.4841 167.699 30.6598 167.911C31.8362 169.339 33.1186 169.945 33.9873 170.201C34.0134 170.209 34.0408 170.212 34.0658 170.212Z" fill="white"/>
<path d="M14.5746 146.074H34.502V186.879H14.5746V146.074Z" fill="white"/>
<path d="M14.5747 187.162H34.502C34.6578 187.162 34.7837 187.035 34.7837 186.878V146.073C34.7837 145.916 34.6578 145.789 34.502 145.789H14.5747C14.4189 145.789 14.293 145.916 14.293 146.073V186.878C14.293 187.035 14.4189 187.162 14.5747 187.162ZM34.2204 186.595H14.8551V146.357H34.2204V186.595Z" fill="black"/>
<path d="M9.48084 185.758L14.5742 186.981V146.074L8.20095 144.952V184.125C8.20095 184.903 8.7306 185.577 9.48084 185.758Z" fill="white"/>
<path d="M14.5743 187.264C14.6366 187.264 14.6989 187.243 14.7488 187.204C14.8161 187.15 14.856 187.068 14.856 186.981V146.074C14.856 145.936 14.7575 145.819 14.6229 145.795L8.25089 144.672C8.16988 144.659 8.08514 144.681 8.02158 144.735C7.95802 144.789 7.92188 144.868 7.92188 144.953V184.126C7.92188 185.038 8.53627 185.824 9.41737 186.035L14.5107 187.258C14.5319 187.263 14.5544 187.265 14.5756 187.265L14.5743 187.264ZM14.2927 146.311V186.622L9.54573 185.482C8.92012 185.331 8.48269 184.773 8.48269 184.124V145.288L14.2927 146.311Z" fill="black"/>
<path d="M34.5645 146.188L28.7358 142.07L15.0546 142.197L14.5748 146.149L34.5645 146.188Z" fill="white"/>
<path d="M34.5655 146.472C34.6876 146.472 34.796 146.392 34.8334 146.274C34.8708 146.156 34.8272 146.027 34.7275 145.956L28.8988 141.837C28.8502 141.803 28.7829 141.786 28.7343 141.786L15.0531 141.913C14.9123 141.914 14.7939 142.021 14.7764 142.161L14.2954 146.114C14.2854 146.195 14.3103 146.275 14.3639 146.337C14.4175 146.397 14.4935 146.432 14.5745 146.432L34.5655 146.47V146.472ZM28.6483 142.354L33.6719 145.903L14.8923 145.867L15.3048 142.477L28.6496 142.352L28.6483 142.354Z" fill="black"/>
<path d="M8.35318 144.952L15.0542 142.197L14.5744 146.15L8.35318 144.952Z" fill="white"/>
<path d="M14.5745 146.433C14.6331 146.433 14.6917 146.414 14.7403 146.379C14.8026 146.333 14.8437 146.262 14.8537 146.185L15.3347 142.232C15.3472 142.131 15.3061 142.033 15.2263 141.972C15.1465 141.91 15.0406 141.897 14.9496 141.934L8.2486 144.689C8.1327 144.737 8.06291 144.855 8.07537 144.979C8.08783 145.105 8.18006 145.207 8.30219 145.229L14.5234 146.428C14.5409 146.432 14.5583 146.433 14.5758 146.433H14.5745ZM14.7178 142.641L14.3327 145.815L9.33906 144.852L14.7178 142.641Z" fill="black"/>
<path d="M28.1648 140.526H15.5516C15.2351 140.526 14.9771 140.785 14.9771 141.106V142.223H28.7842V141.154C28.7842 140.808 28.5063 140.528 28.1636 140.528L28.1648 140.526Z" fill="white"/>
<path d="M14.9781 142.506H28.7852C28.941 142.506 29.0669 142.379 29.0669 142.222V141.152C29.0669 140.651 28.6619 140.242 28.1646 140.242H15.5514C15.0803 140.242 14.6965 140.629 14.6965 141.104V142.222C14.6965 142.379 14.8224 142.506 14.9781 142.506ZM28.5048 141.939H15.2598V141.104C15.2598 140.941 15.3919 140.809 15.5527 140.809H28.1659C28.3528 140.809 28.5061 140.962 28.5061 141.152V141.939H28.5048Z" fill="black"/>
<path d="M48.5958 150.351L54.4045 143.206C54.6375 142.918 54.7123 142.518 54.559 142.18C54.3559 141.732 53.9671 141.483 53.3851 141.441C53.1072 141.421 52.8429 141.568 52.7133 141.817L48.2842 150.306L48.5958 150.351Z" fill="black"/>
<path d="M48.7837 150.368L52.2246 141.806C52.3629 141.461 52.3156 141.057 52.0701 140.78C51.7436 140.413 51.2999 140.291 50.7316 140.426C50.4612 140.49 50.2506 140.71 50.2007 140.986L48.4734 150.419L48.785 150.368H48.7837Z" fill="black"/>
<path d="M48.2555 150.174L49.9068 141.085C49.9728 140.72 49.8457 140.334 49.5491 140.113C49.1565 139.82 48.6967 139.791 48.167 140.039C47.914 140.157 47.7533 140.416 47.7595 140.696L47.9601 150.285L48.2543 150.172L48.2555 150.174Z" fill="black"/>
<path d="M51.846 149.393C50.758 148.18 48.8749 147.125 47.1239 146.878C45.4864 146.647 43.9448 147.727 43.4949 149.332C40.2759 160.814 35.7071 175.611 36.1782 178.031C36.6256 178.599 37.1752 178.837 37.8457 178.694C39.3374 178.083 46.7127 162.815 52.1899 152.276C52.6784 151.335 52.5526 150.18 51.846 149.393Z" fill="white"/>
<path d="M37.4707 179.018C37.6115 179.018 37.7549 179.002 37.9044 178.97C37.9206 178.967 37.9368 178.961 37.9518 178.955C39.0946 178.488 42.589 171.737 48.2083 160.676C49.6315 157.873 51.1046 154.975 52.4393 152.407C52.9864 151.355 52.8319 150.068 52.0555 149.202C50.8778 147.89 48.9125 146.843 47.164 146.597C45.4118 146.35 43.7194 147.492 43.2259 149.253C42.5454 151.677 41.7939 154.294 41.0661 156.825C38.2135 166.741 35.5204 176.107 35.9042 178.085C35.9129 178.129 35.9316 178.172 35.9603 178.207C36.3852 178.747 36.8925 179.018 37.4732 179.018H37.4707ZM37.7599 178.421C37.2402 178.522 36.8202 178.361 36.4426 177.91C36.1597 175.91 38.9276 166.29 41.6045 156.983C42.3323 154.452 43.085 151.834 43.7655 149.408C44.183 147.918 45.6124 146.953 47.0855 147.159C48.7131 147.387 50.5425 148.363 51.638 149.583C52.2574 150.273 52.3783 151.302 51.9408 152.144C50.6049 154.715 49.1318 157.614 47.7073 160.418C43.7505 168.207 38.8329 177.887 37.7599 178.422V178.421Z" fill="black"/>
<path d="M56.3934 149.874L63.0072 143.48C63.2726 143.223 63.3948 142.834 63.2826 142.481C63.1343 142.012 62.7779 141.717 62.2046 141.605C61.9317 141.552 61.6513 141.667 61.493 141.897L56.0893 149.791L56.3934 149.874Z" fill="black"/>
<path d="M56.578 149.912L61.0084 141.825C61.1866 141.499 61.1878 141.092 60.976 140.788C60.6956 140.384 60.2693 140.21 59.6886 140.275C59.4119 140.307 59.1776 140.5 59.0954 140.768L56.2627 149.925L56.578 149.912Z" fill="black"/>
<path d="M56.0756 149.656L58.7924 140.832C58.9021 140.478 58.8211 140.078 58.5532 139.823C58.198 139.485 57.7444 139.401 57.1898 139.583C56.9256 139.669 56.7349 139.907 56.7075 140.186L55.7703 149.732L56.0756 149.655V149.656Z" fill="black"/>
<path d="M59.7329 149.313C58.7957 147.977 57.0522 146.702 55.3436 146.247C53.7447 145.821 52.0872 146.706 51.4504 148.246C46.8941 159.257 40.6043 173.398 40.785 175.858C41.1614 176.477 41.6798 176.778 42.3628 176.717C43.9156 176.291 53.048 162.021 59.7341 152.217C60.3311 151.343 60.3423 150.18 59.7341 149.313H59.7329Z" fill="white"/>
<path d="M42.1873 177.009C42.2521 177.009 42.3181 177.006 42.3854 177C42.4016 176.998 42.4178 176.995 42.434 176.991C43.6229 176.664 47.8925 170.385 54.7818 160.08C56.5277 157.469 58.3336 154.769 59.9636 152.378C60.6304 151.401 60.6304 150.102 59.9611 149.15C58.9479 147.706 57.1197 146.429 55.4136 145.974C53.705 145.519 51.888 146.446 51.1889 148.137C50.2268 150.462 49.1699 152.968 48.1468 155.392C44.1389 164.894 40.354 173.869 40.5011 175.879C40.5048 175.924 40.5185 175.968 40.5422 176.007C40.9473 176.673 41.4993 177.009 42.186 177.009H42.1873ZM42.3069 176.437C41.776 176.476 41.3797 176.262 41.0607 175.769C41.017 173.75 44.9041 164.532 48.6665 155.614C49.6896 153.189 50.7464 150.682 51.7098 148.354C52.3017 146.925 53.8334 146.136 55.2715 146.522C56.8605 146.945 58.5604 148.133 59.5038 149.478C60.0372 150.238 60.0359 151.274 59.5013 152.058C57.8699 154.45 56.0641 157.152 54.3169 159.764C49.4666 167.018 43.436 176.036 42.3082 176.437H42.3069Z" fill="black"/>
<path d="M58.6665 152.406C58.7213 152.406 58.7761 152.39 58.8235 152.357C58.9518 152.269 58.9855 152.093 58.8983 151.964C58.4932 151.363 57.7791 150.904 56.6513 150.523C56.5042 150.473 56.3447 150.553 56.2961 150.702C56.2463 150.85 56.326 151.011 56.4731 151.06C57.4775 151.399 58.1007 151.788 58.4334 152.28C58.4882 152.361 58.5767 152.405 58.6665 152.405V152.406Z" fill="black"/>
<path d="M52.1535 154.432C52.2083 154.432 52.2632 154.416 52.3118 154.383C52.4401 154.295 52.4738 154.119 52.3865 153.99C51.9815 153.389 51.2674 152.932 50.1396 152.55C49.9925 152.501 49.833 152.58 49.7831 152.728C49.7333 152.876 49.8131 153.037 49.9601 153.088C50.9646 153.427 51.5877 153.815 51.9204 154.309C51.9753 154.39 52.0638 154.434 52.1535 154.434V154.432Z" fill="black"/>
<path d="M52.9487 161.784C53.0035 161.784 53.0584 161.768 53.1057 161.735C53.2341 161.647 53.2677 161.471 53.1805 161.342C52.7755 160.741 52.0626 160.284 50.9335 159.902C50.7864 159.853 50.6269 159.932 50.5771 160.08C50.5272 160.228 50.607 160.389 50.7541 160.44C51.7598 160.78 52.3829 161.167 52.7144 161.66C52.7692 161.74 52.8577 161.784 52.9474 161.784H52.9487Z" fill="white"/>
<path d="M42.8779 146.53L47.7819 138.726C47.9788 138.411 48.0049 138.005 47.8118 137.689C47.5563 137.269 47.14 137.069 46.558 137.098C46.2801 137.112 46.0346 137.292 45.9362 137.553L42.5638 146.522L42.8791 146.528L42.8779 146.53Z" fill="black"/>
<path d="M43.0662 146.525L45.4477 137.603C45.5437 137.244 45.4477 136.849 45.1711 136.604C44.8034 136.28 44.3473 136.213 43.8002 136.417C43.5385 136.513 43.3578 136.757 43.3403 137.037L42.7646 146.612L43.0674 146.524L43.0662 146.525Z" fill="black"/>
<path d="M42.5177 146.396L43.0611 137.173C43.0835 136.802 42.9103 136.434 42.5887 136.252C42.1638 136.009 41.7039 136.037 41.2079 136.349C40.9711 136.497 40.8427 136.774 40.8826 137.051L42.2385 146.545L42.5177 146.397V146.396Z" fill="black"/>
<path d="M45.987 145.18C44.7607 144.109 42.7642 143.294 40.997 143.264C39.3433 143.236 37.9437 144.495 37.6908 146.143C35.8812 157.935 33.1308 173.182 33.8897 175.528C34.4019 176.037 34.9764 176.205 35.6245 175.98C37.0315 175.191 42.51 159.131 46.6749 147.999C47.0463 147.005 46.7821 145.874 45.9857 145.179L45.987 145.18Z" fill="white"/>
<path d="M35.0725 176.364C35.2819 176.364 35.4962 176.326 35.7156 176.249C35.7318 176.244 35.7467 176.237 35.7617 176.229C36.8384 175.625 39.4929 168.497 43.7351 156.83C44.8106 153.873 45.9223 150.814 46.938 148.1C47.3542 146.989 47.0452 145.73 46.1703 144.966C44.843 143.808 42.7656 143.01 41.0009 142.98C39.2238 142.958 37.6896 144.291 37.4117 146.099C37.0291 148.59 36.5979 151.281 36.1804 153.883C34.5454 164.074 33.0013 173.7 33.6219 175.616C33.6356 175.659 33.6593 175.698 33.6917 175.73C34.1154 176.151 34.5778 176.364 35.0713 176.364H35.0725ZM35.5062 175.723C35.0015 175.889 34.5653 175.778 34.1378 175.376C33.6157 173.426 35.2021 163.539 36.7363 153.974C37.1538 151.372 37.585 148.681 37.9675 146.187C38.2031 144.656 39.4967 143.525 40.9909 143.548C42.6335 143.575 44.5664 144.318 45.8014 145.395C46.4993 146.005 46.7448 147.012 46.4108 147.9C45.3939 150.618 44.2822 153.677 43.2055 156.635C40.2182 164.85 36.5057 175.06 35.505 175.721L35.5062 175.723Z" fill="black"/>
<path d="M45.617 148.449C45.6943 148.449 45.7703 148.418 45.8264 148.355C45.9298 148.238 45.9211 148.06 45.8052 147.954C45.2693 147.468 44.468 147.196 43.2816 147.098C43.1221 147.088 42.9912 147.201 42.9787 147.357C42.9663 147.513 43.0809 147.65 43.2355 147.663C44.2923 147.749 44.9889 147.976 45.4289 148.375C45.4824 148.424 45.5497 148.448 45.617 148.448V148.449Z" fill="black"/>
<path d="M39.7748 151.989C39.852 151.989 39.928 151.957 39.9841 151.895C40.0876 151.778 40.0788 151.599 39.9629 151.494C39.427 151.007 38.6257 150.736 37.4405 150.638C37.2823 150.629 37.1502 150.741 37.1377 150.897C37.1252 151.052 37.2399 151.189 37.3944 151.202C38.4512 151.289 39.1479 151.515 39.5878 151.915C39.6414 151.964 39.7087 151.988 39.776 151.988L39.7748 151.989Z" fill="black"/>
<path d="M42.2933 158.935C42.3706 158.935 42.4466 158.904 42.5027 158.841C42.6061 158.724 42.5974 158.546 42.4815 158.44C41.9456 157.954 41.1443 157.682 39.9591 157.584C39.8008 157.573 39.6687 157.687 39.6563 157.843C39.6438 157.999 39.7585 158.136 39.913 158.149C40.9698 158.235 41.6664 158.463 42.1064 158.861C42.16 158.91 42.2273 158.934 42.2945 158.934L42.2933 158.935Z" fill="white"/>
<path d="M22.2266 156.986C22.2428 160.495 24.5396 165.527 30.6985 165.497C36.572 165.469 38.8228 160.415 38.8066 156.906C38.7904 153.474 36.7216 150.18 31.7641 150.268C31.6644 150.269 30.5876 150.592 30.4867 150.592C30.4069 150.592 29.0647 150.28 28.9849 150.28C23.995 150.304 22.2104 153.538 22.2266 156.986Z" fill="white"/>
<path d="M30.6448 165.78H30.6996C36.8835 165.749 39.1043 160.456 39.0868 156.904C39.0768 154.882 38.3852 153.091 37.1377 151.86C35.8528 150.593 33.9947 149.94 31.7577 149.982C31.6854 149.982 31.582 150.009 31.061 150.152C30.8654 150.206 30.5787 150.285 30.4828 150.304C30.3781 150.285 30.0428 150.212 29.7923 150.157C29.1156 150.009 29.0396 149.999 28.9823 149.995C26.5808 150.006 24.7413 150.735 23.515 152.162C22.4782 153.368 21.9348 155.036 21.9448 156.985C21.9547 159.033 22.7 161.186 23.94 162.744C25.0429 164.131 27.0992 165.78 30.6448 165.78ZM31.9708 150.547C33.976 150.547 35.5874 151.124 36.7451 152.266C37.8842 153.388 38.516 155.037 38.5248 156.908C38.541 160.231 36.4685 165.186 30.6971 165.214H30.646C28.014 165.214 25.8468 164.239 24.3787 162.391C23.2159 160.929 22.5168 158.908 22.5081 156.984C22.4994 155.174 22.9954 153.635 23.9413 152.535C25.0566 151.238 26.754 150.574 28.9873 150.564C29.0272 150.571 29.401 150.654 29.6752 150.713C30.3544 150.862 30.4304 150.881 30.489 150.875C30.5638 150.875 30.6709 150.848 31.2118 150.7C31.4299 150.64 31.729 150.558 31.7901 150.549C31.8511 150.549 31.9122 150.548 31.972 150.548L31.9708 150.547Z" fill="black"/>
<path d="M30.4653 151.261C29.8497 147.778 27.2712 146.928 24.8535 146.534C24.1344 149.667 26.8525 150.437 30.4653 151.261Z" fill="white"/>
<path d="M30.4652 151.543C30.5374 151.543 30.606 151.516 30.6596 151.465C30.7281 151.4 30.7593 151.305 30.7418 151.21C30.1 147.578 27.4268 146.667 24.8982 146.253C24.7486 146.231 24.6128 146.324 24.5792 146.47C24.3461 147.485 24.4408 148.312 24.8683 149C25.7245 150.376 27.7907 150.94 30.4028 151.536C30.424 151.541 30.444 151.543 30.4652 151.543ZM25.0739 146.858C27.3184 147.256 29.4258 148.073 30.1 150.885C27.8206 150.353 26.0423 149.82 25.3444 148.698C25.0353 148.201 24.9468 147.598 25.0739 146.858Z" fill="black"/>
<path d="M30.6947 151.323L31.263 148.329C31.3079 148.091 31.1459 147.862 30.9079 147.825C30.5427 147.77 30.2012 147.769 29.8959 147.849C29.6354 147.918 29.4871 148.196 29.5582 148.458L30.3483 151.387C30.4717 151.47 30.5851 151.412 30.6947 151.322V151.323Z" fill="black"/>
<path d="M29.3003 150.547C29.4037 150.547 29.5022 150.489 29.552 150.391C29.6218 150.251 29.5657 150.08 29.4274 150.01C27.5892 149.08 26.8676 148.57 25.7485 147.408C25.6413 147.296 25.4618 147.293 25.3509 147.403C25.24 147.513 25.2375 147.692 25.3459 147.804C26.5049 149.007 27.2926 149.565 29.1769 150.518C29.2168 150.538 29.2604 150.548 29.3028 150.548L29.3003 150.547Z" fill="black"/>
<path d="M12.8226 218.715L13.5317 157.159L9.03531 158.2L5.67544 156.981L0.280476 214.27L12.8226 218.715Z" fill="black"/>
<path d="M12.8225 218.999C12.8798 218.999 12.9359 218.982 12.9833 218.948C13.0568 218.895 13.1017 218.811 13.1029 218.719L13.812 157.163C13.812 157.076 13.7746 156.993 13.7073 156.939C13.64 156.885 13.5528 156.865 13.468 156.884L9.05263 157.906L5.77002 156.714C5.68777 156.684 5.59804 156.694 5.52452 156.742C5.45099 156.789 5.40363 156.868 5.3949 156.954L-6.10352e-05 214.243C-0.0125227 214.373 0.064744 214.495 0.186875 214.537L12.729 218.984C12.7589 218.995 12.7913 219 12.8225 219V218.999ZM13.2462 157.516L12.5458 218.317L0.580691 214.075L5.92083 157.37L8.93922 158.466C8.99031 158.485 9.04515 158.488 9.09749 158.476L13.245 157.516H13.2462Z" fill="white"/>
<path d="M58.5692 156.461C58.6963 156.37 58.8907 156.439 58.9057 156.58L65.1792 216.552C65.2316 217.048 64.7455 217.477 64.1149 217.492L12.8235 218.717L13.5326 157.16L20.5738 159.94L26.4386 156.982L32.782 159.881L38.2243 156.781L44.3571 159.684L49.8729 156.376L55.0124 159.018L58.5704 156.463L58.5692 156.461Z" fill="white"/>
<path d="M12.8223 219H12.8285L64.12 217.775C64.5525 217.765 64.9463 217.592 65.1992 217.302C65.3949 217.078 65.4859 216.801 65.4572 216.522L59.1837 156.55C59.1675 156.389 59.0653 156.252 58.912 156.181C58.745 156.106 58.5506 156.125 58.4048 156.229L54.9863 158.685L49.9976 156.121C49.9116 156.077 49.8094 156.079 49.7259 156.13L44.3385 159.361L38.3403 156.522C38.258 156.483 38.1621 156.487 38.0823 156.532L32.7646 159.562L26.5521 156.722C26.4748 156.686 26.3864 156.688 26.3103 156.727L20.5564 159.629L13.6324 156.895C13.5476 156.861 13.4491 156.871 13.3731 156.924C13.2971 156.976 13.2497 157.062 13.2485 157.155L12.5394 218.712C12.5394 218.789 12.5693 218.863 12.6229 218.917C12.6752 218.97 12.7463 218.999 12.821 218.999L12.8223 219ZM58.6415 156.757L64.8989 216.581C64.9151 216.734 64.8416 216.853 64.778 216.928C64.631 217.097 64.3805 217.202 64.1076 217.208L13.1064 218.426L13.8068 157.573L20.4692 160.202C20.5427 160.231 20.6262 160.227 20.6973 160.192L26.4424 157.294L32.6637 160.138C32.7459 160.175 32.8394 160.17 32.9179 160.126L38.2344 157.097L44.2363 159.938C44.321 159.978 44.4194 159.973 44.4992 159.925L49.8817 156.698L54.8841 159.269C54.9776 159.317 55.0898 159.309 55.1745 159.248L58.6415 156.758V156.757Z" fill="black"/>
</g>
<defs>
<clipPath id="clip0_59_3291">
<rect width="232" height="230" fill="white" transform="matrix(-1 0 0 1 232 -11)"/>
</clipPath>
</defs>
</svg>
