<svg width="70" height="160" viewBox="0 0 70 160" fill="none" xmlns="http://www.w3.org/2000/svg">
<g clip-path="url(#clip0_59_3800)">
<path d="M74.8247 4.30566L69.7536 4.79543C69.4655 4.82325 69.2539 5.08114 69.2816 5.37064L73.2298 46.6496L78.8232 46.1094L74.8247 4.30566Z" fill="black"/>
<path d="M73.2327 46.8794C73.2394 46.8794 73.2472 46.8794 73.2539 46.8784L78.8479 46.3376C78.9069 46.3318 78.9612 46.3026 78.9989 46.2569C79.0367 46.2112 79.055 46.1519 79.0492 46.0925L75.0486 4.28878C75.037 4.16525 74.9256 4.07479 74.8046 4.08646L69.7334 4.57669C69.323 4.61657 69.021 4.98425 69.0597 5.39763L73.01 46.6761C73.0216 46.7919 73.1184 46.8794 73.2327 46.8794ZM78.5827 45.9126L73.434 46.4096L69.505 5.35484C69.4895 5.18851 69.6105 5.04066 69.776 5.02412L74.6246 4.55529L78.5817 45.9116L78.5827 45.9126Z" fill="black"/>
<path d="M67.4462 5.84782L73.0396 5.30762L77.038 47.1113L71.4447 47.6515L67.4462 5.84782Z" fill="white"/>
<path d="M71.4466 47.8794C71.4533 47.8794 71.4611 47.8794 71.4679 47.8784L77.0608 47.3376C77.1838 47.326 77.2738 47.216 77.2622 47.0925L73.2615 5.28878C73.2499 5.16525 73.1396 5.07479 73.0176 5.08646L67.4246 5.62727C67.3656 5.63311 67.3113 5.66229 67.2736 5.708C67.2358 5.75372 67.2175 5.81305 67.2233 5.87239L71.2239 47.6761C71.2297 47.7355 71.2588 47.7899 71.3043 47.8279C71.3449 47.8609 71.3943 47.8794 71.4466 47.8794ZM76.7956 46.9126L71.6469 47.4096L67.6898 6.0533L72.8385 5.55626L76.7956 46.9126Z" fill="black"/>
<path d="M74.7812 4.36816L73.0399 5.31069L67.5369 5.87192L68.9434 5.06849C69.2473 4.89536 69.5851 4.79128 69.9336 4.76502L74.7812 4.36816Z" fill="white"/>
<path d="M67.5369 6.09683C67.5447 6.09683 67.5524 6.09683 67.5592 6.09585L73.0622 5.53462C73.0912 5.5317 73.1202 5.52295 73.1454 5.50933L74.8868 4.5668C74.9797 4.51623 75.0252 4.40729 74.9952 4.30515C74.9652 4.20302 74.8665 4.13688 74.7629 4.14466L69.9153 4.54152C69.5377 4.56972 69.1631 4.6845 68.8321 4.8732L67.4256 5.67663C67.3337 5.72915 67.2911 5.83907 67.323 5.94023C67.353 6.0336 67.4392 6.09683 67.536 6.09683H67.5369ZM72.9731 5.09205L68.5688 5.54143L69.0538 5.26421C69.3267 5.10859 69.6365 5.01326 69.9501 4.98992L73.7349 4.67964L72.9731 5.09205Z" fill="black"/>
<path d="M53.9282 4.30518L48.8571 4.79494C48.569 4.82276 48.3574 5.08065 48.3851 5.37015L52.3333 46.6491L57.9267 46.1089L53.9282 4.30518Z" fill="black"/>
<path d="M52.3362 46.8794C52.3429 46.8794 52.3507 46.8794 52.3575 46.8784L57.9514 46.3376C58.0105 46.3318 58.0647 46.3026 58.1024 46.2569C58.1402 46.2112 58.1586 46.1519 58.1528 46.0925L54.1521 4.28878C54.1405 4.16525 54.0321 4.07479 53.9082 4.08646L48.8369 4.57669C48.6385 4.59615 48.4585 4.69147 48.3316 4.8471C48.2048 5.00175 48.1448 5.19726 48.1642 5.39763L52.1145 46.6761C52.1203 46.7355 52.1494 46.7899 52.1949 46.8279C52.2355 46.8609 52.2849 46.8794 52.3371 46.8794H52.3362ZM57.6862 45.9126L52.5375 46.4096L48.6095 5.35484C48.6017 5.2741 48.6259 5.19532 48.6772 5.13306C48.7285 5.07081 48.8002 5.03191 48.8805 5.02412L53.7291 4.55529L57.6862 45.9116V45.9126Z" fill="black"/>
<path d="M46.5497 5.84587L52.1431 5.30566L56.1415 47.1094L50.5482 47.6496L46.5497 5.84587Z" fill="white"/>
<path d="M50.55 47.8794C50.5568 47.8794 50.5646 47.8794 50.5713 47.8784L56.1653 47.3376C56.2243 47.3318 56.2785 47.3026 56.3163 47.2569C56.354 47.2112 56.3724 47.1519 56.3666 47.0925L52.366 5.28878C52.3544 5.16525 52.243 5.07479 52.122 5.08646L46.5281 5.62727C46.469 5.63311 46.4148 5.66229 46.3771 5.708C46.3393 5.75372 46.3209 5.81305 46.3267 5.87239L50.3274 47.6761C50.339 47.7919 50.4358 47.8794 50.55 47.8794ZM55.9 46.9126L50.7514 47.4096L46.7943 6.0533L51.943 5.55626L55.9 46.9126Z" fill="black"/>
<path d="M53.8848 4.36816L52.1434 5.31069L46.6404 5.87192L48.0469 5.06849C48.3508 4.89536 48.6887 4.79128 49.0371 4.76502L53.8848 4.36816Z" fill="white"/>
<path d="M46.6405 6.09683C46.6482 6.09683 46.6559 6.09683 46.6627 6.09585L52.1657 5.53462C52.1947 5.5317 52.2238 5.52295 52.2489 5.50933L53.9903 4.5668C54.0832 4.51623 54.1287 4.40729 54.0987 4.30515C54.0687 4.20302 53.971 4.13688 53.8664 4.14466L49.0188 4.54152C48.6413 4.56972 48.2667 4.6845 47.9366 4.8732L46.5301 5.67663C46.4382 5.72915 46.3956 5.83907 46.4275 5.94023C46.4575 6.0336 46.5437 6.09683 46.6405 6.09683ZM52.0766 5.09205L47.6723 5.54143L48.1573 5.26421C48.4302 5.10859 48.74 5.01326 49.0536 4.98992L52.8384 4.67964L52.0766 5.09205Z" fill="black"/>
<path d="M48.8765 8.82715L43.857 9.80483C43.5824 9.85832 43.4031 10.1251 43.4564 10.401L51.3131 51.1306L56.8295 50.0561L48.8765 8.82715Z" fill="black"/>
<path d="M51.3196 51.3633C51.3341 51.3633 51.3477 51.3623 51.3622 51.3594L56.8787 50.2846C56.9368 50.2729 56.9881 50.2389 57.0219 50.1903C57.0549 50.1407 57.0674 50.0803 57.0558 50.022L49.1 8.79408C49.0894 8.73572 49.0545 8.68417 49.0061 8.65109C48.9567 8.61802 48.8967 8.60538 48.8386 8.61705L43.8187 9.59556C43.6271 9.63253 43.4615 9.74244 43.3531 9.90488C43.2437 10.0673 43.205 10.2628 43.2418 10.4544L51.1018 51.1834C51.1221 51.2904 51.216 51.3653 51.3205 51.3653L51.3196 51.3633ZM56.5747 49.8858L51.4967 50.875L43.6793 10.3669C43.6648 10.292 43.6803 10.2171 43.7229 10.1539C43.7655 10.0907 43.8294 10.0488 43.9029 10.0342L48.7031 9.09853L56.5738 49.8858H56.5747Z" fill="black"/>
<path d="M49.6363 52.3061L55.1528 51.2313L47.197 10.0034L41.7705 11.0607C41.7212 11.0704 41.6882 11.1191 41.6979 11.1687L49.6363 52.3061Z" fill="white"/>
<path d="M49.6365 52.5306C49.651 52.5306 49.6645 52.5296 49.6791 52.5267L55.1956 51.4519C55.2537 51.4402 55.305 51.4062 55.3388 51.3566C55.3718 51.307 55.3843 51.2466 55.3727 51.1883L47.4169 9.96038C47.3937 9.83879 47.2756 9.75903 47.1546 9.78238L41.7281 10.8397C41.5577 10.8727 41.4454 11.0391 41.4783 11.2112L49.4167 52.3487C49.4371 52.4557 49.531 52.5306 49.6355 52.5306H49.6365ZM54.8916 51.0531L49.8136 52.0423L41.943 11.255L47.021 10.2658L54.8916 51.0531Z" fill="black"/>
<path d="M48.897 8.92285L47.1972 10.0025L41.7727 11.09L42.8694 10.3157C43.304 10.0084 43.8015 9.80215 44.3262 9.71169L48.897 8.92285Z" fill="white"/>
<path d="M41.7726 11.3144C41.7871 11.3144 41.8016 11.3135 41.8161 11.3105L47.2407 10.2231C47.2678 10.2172 47.2929 10.2075 47.3162 10.1929L49.0159 9.11326C49.106 9.05587 49.1437 8.94304 49.105 8.84285C49.0663 8.74267 48.9608 8.68431 48.8582 8.70182L44.2874 9.49066C43.7337 9.58598 43.1994 9.80775 42.7396 10.1317L41.6429 10.9059C41.5567 10.9672 41.5248 11.081 41.5664 11.1783C41.6022 11.2619 41.6835 11.3144 41.7716 11.3144H41.7726ZM47.1129 9.79024L42.7686 10.6608L42.999 10.4984C43.4036 10.2124 43.8769 10.0169 44.3648 9.93225L47.8311 9.33406L47.1139 9.79024H47.1129Z" fill="black"/>
<path d="M51.7353 10.9753L57.3096 10.2637L62.5766 51.9252L57.0023 52.6368L51.7353 10.9753Z" fill="black"/>
<path d="M57.0066 52.8662C57.0162 52.8662 57.0249 52.8662 57.0346 52.8642L62.6092 52.1522C62.6683 52.1444 62.7215 52.1143 62.7583 52.0666C62.7941 52.0199 62.8106 51.9596 62.8028 51.9003L57.5341 10.2396C57.5264 10.1802 57.4963 10.1267 57.4489 10.0907C57.4024 10.0538 57.3424 10.0382 57.2834 10.045L51.7088 10.757C51.5859 10.7726 51.4997 10.8854 51.5152 11.008L56.7839 52.6687C56.7917 52.7281 56.8217 52.7815 56.8691 52.8175C56.9088 52.8487 56.9562 52.8642 57.0056 52.8642L57.0066 52.8662ZM62.3314 51.7349L57.2001 52.3905L51.9876 11.1753L57.1179 10.5197L62.3304 51.7349H62.3314Z" fill="black"/>
<path d="M55.2516 53.696L60.8262 52.984L55.5575 11.3232L50.0439 12.0275C50.01 12.0314 49.9868 12.0625 49.9906 12.0965L55.2516 53.696Z" fill="white"/>
<path d="M55.2507 53.9206C55.2604 53.9206 55.2691 53.9206 55.2788 53.9187L60.8534 53.2067C60.9124 53.1989 60.9656 53.1687 61.0024 53.1211C61.0382 53.0744 61.0547 53.0141 61.0469 52.9547L55.7782 11.294C55.7628 11.1714 55.6495 11.0839 55.5285 11.0994L50.0149 11.8037C49.8591 11.8231 49.7487 11.9671 49.7681 12.1227L55.029 53.7231C55.0435 53.837 55.1394 53.9196 55.2507 53.9196V53.9206ZM60.5755 52.7894L55.4443 53.445L50.2317 12.2297L55.363 11.5741L60.5755 52.7894Z" fill="black"/>
<path d="M57.3232 10.3564L55.5567 11.3233L50.0731 12.0538L51.9084 10.9294L57.3232 10.3564Z" fill="white"/>
<path d="M50.073 12.2782C50.0827 12.2782 50.0924 12.2782 50.102 12.2763L55.5856 11.5468C55.6127 11.5429 55.6389 11.5341 55.6631 11.5215L57.4287 10.5546C57.5226 10.5031 57.5671 10.3932 57.5351 10.291C57.5032 10.1889 57.4035 10.1237 57.298 10.1344L51.8831 10.7074C51.8502 10.7112 51.8183 10.7219 51.7902 10.7385L49.9559 11.8619C49.8659 11.9174 49.8262 12.0282 49.861 12.1284C49.893 12.2189 49.9781 12.2782 50.072 12.2782H50.073ZM55.4859 11.1062L51.0942 11.6907L51.9809 11.148L56.2313 10.6986L55.4859 11.1071V11.1062Z" fill="black"/>
<path d="M67.752 8.45459H62.58C62.3332 8.45459 62.1328 8.65594 62.1328 8.90397V50.4509H67.752V8.45459Z" fill="black"/>
<path d="M62.1329 50.6757H67.752C67.8759 50.6757 67.9756 50.5755 67.9756 50.451V8.45467C67.9756 8.33017 67.8759 8.22998 67.752 8.22998H62.5801C62.2103 8.22998 61.9093 8.53248 61.9093 8.90405V50.451C61.9093 50.5755 62.009 50.6757 62.1329 50.6757ZM67.5284 50.2263H62.3565V8.90405C62.3565 8.78052 62.4571 8.67936 62.5801 8.67936H67.5284V50.2263Z" fill="black"/>
<path d="M65.8789 9.27832H60.3392C60.2956 9.27832 60.2598 9.31431 60.2598 9.35808V51.2747H65.8789V9.27832Z" fill="white"/>
<path d="M60.2598 51.4994H65.8789C66.0028 51.4994 66.1025 51.3992 66.1025 51.2747V9.2784C66.1025 9.1539 66.0028 9.05371 65.8789 9.05371H60.3392C60.1717 9.05371 60.0362 9.18989 60.0362 9.35816V51.2747C60.0362 51.3992 60.1359 51.4994 60.2598 51.4994ZM65.6553 51.05H60.4834V9.50309H65.6553V51.05Z" fill="black"/>
<path d="M67.752 8.54403L65.8789 9.27937L60.3479 9.30855L61.8889 8.61503C62.1658 8.49053 62.4658 8.42925 62.7688 8.43606L67.7529 8.54403H67.752Z" fill="white"/>
<path d="M60.3481 9.53327H60.3491L65.8811 9.50409C65.9082 9.50409 65.9363 9.49826 65.9614 9.48853L67.8345 8.75318C67.9332 8.71428 67.9923 8.6102 67.9729 8.50515C67.9545 8.4001 67.8645 8.32229 67.758 8.31937L62.7739 8.2114C62.438 8.20459 62.1031 8.27268 61.7982 8.40983L60.2571 9.10335C60.1603 9.14712 60.1071 9.25217 60.1294 9.35624C60.1516 9.45935 60.2426 9.53327 60.3481 9.53327ZM65.8366 9.05471L61.4071 9.07806L61.9801 8.8203C62.225 8.71039 62.4961 8.65494 62.7642 8.66078L66.6274 8.74443L65.8366 9.05471Z" fill="black"/>
<path d="M68.4546 15.5137H74.0737V57.51H68.4546V15.5137Z" fill="black"/>
<path d="M68.4546 57.7348H74.0738C74.1977 57.7348 74.2974 57.6346 74.2974 57.5101V15.5138C74.2974 15.3892 74.1977 15.2891 74.0738 15.2891H68.4546C68.3307 15.2891 68.231 15.3892 68.231 15.5138V57.5101C68.231 57.6346 68.3307 57.7348 68.4546 57.7348ZM73.8502 57.2854H68.6782V15.7384H73.8502V57.2854Z" fill="black"/>
<path d="M66.5816 16.3374H72.2007V58.3337H66.5816V16.3374Z" fill="white"/>
<path d="M66.5816 58.5585H72.2007C72.3246 58.5585 72.4243 58.4583 72.4243 58.3338V16.3375C72.4243 16.213 72.3246 16.1128 72.2007 16.1128H66.5816C66.4577 16.1128 66.358 16.213 66.358 16.3375V58.3338C66.358 58.4583 66.4577 58.5585 66.5816 58.5585ZM71.9771 58.1091H66.8052V16.5622H71.9771V58.1091Z" fill="black"/>
<path d="M74.0742 15.6021L72.2012 16.3374L66.6702 16.3666L68.6303 15.4844L74.0742 15.6021Z" fill="white"/>
<path d="M66.6699 16.5914H66.6709L72.2029 16.5622C72.23 16.5622 72.258 16.5563 72.2832 16.5466L74.1563 15.8113C74.255 15.7724 74.314 15.6683 74.2947 15.5632C74.2763 15.4582 74.1863 15.3804 74.0798 15.3775L68.6359 15.2598C68.601 15.2598 68.5701 15.2656 68.54 15.2792L66.5789 16.1614C66.4821 16.2052 66.4289 16.3103 66.4511 16.4143C66.4734 16.5174 66.5644 16.5914 66.6699 16.5914ZM72.1584 16.1128L67.7289 16.1361L68.6765 15.7101L72.9502 15.8025L72.1593 16.1128H72.1584Z" fill="black"/>
<path d="M46.9231 45.7394L44.9233 32.939L51.0409 30.4392C51.7466 30.1639 52.5597 30.196 53.1792 30.6036C71.1836 42.4411 89.128 43.6355 106.989 30.1581C107.191 30.0054 107.472 29.95 107.716 30.0414L115.397 33.1549L112.345 45.4535L46.9212 45.7394H46.9231Z" fill="black"/>
<path d="M48.9743 108.259L102.318 108.55C106.192 108.571 109.433 105.598 109.764 101.719L115.398 35.6878L107.822 33.8047C107.507 33.7259 107.168 33.792 106.913 33.9759C89.0089 46.8736 71.021 45.6305 52.974 34.1889C52.4764 33.8728 51.8405 33.7872 51.2655 33.969L45.1566 35.8988L48.9733 108.259H48.9743Z" fill="white"/>
<path d="M102.358 108.776C106.304 108.776 109.65 105.692 109.988 101.738L115.623 35.707C115.632 35.5971 115.561 35.496 115.453 35.4697L107.877 33.5866C107.502 33.4932 107.094 33.571 106.784 33.7938C89.7718 46.0495 72.2098 46.1166 53.0951 33.999C52.5395 33.6469 51.8309 33.5555 51.2008 33.7549L45.0919 35.6847C44.9941 35.7158 44.9302 35.8082 44.936 35.9113L48.7528 108.272C48.7595 108.39 48.8563 108.484 48.9744 108.485L102.318 108.776C102.331 108.776 102.346 108.776 102.359 108.776H102.358ZM115.16 35.8598L109.542 101.7C109.224 105.423 106.073 108.326 102.357 108.326C102.344 108.326 102.331 108.326 102.319 108.326L49.1864 108.036L45.391 36.0611L51.3344 34.1838C51.8406 34.0233 52.4098 34.0963 52.856 34.3793C62.137 40.2631 71.2679 43.3095 79.9952 43.435C80.1821 43.4379 80.3708 43.4389 80.5576 43.4389C89.5869 43.4389 98.4943 40.3185 107.044 34.1595C107.248 34.0126 107.519 33.9621 107.769 34.0233L115.161 35.8598H115.16Z" fill="black"/>
<path d="M52.7495 88.9575L50.1031 90.1879L26.284 38.4775L27.9102 37.7217C28.4736 37.4591 29.1424 37.7061 29.4028 38.2722L52.7495 88.9575Z" fill="black"/>
<path d="M28.918 37.4435L29.7495 39.2439L15.7758 52.1854L13.8795 50.1184L27.6267 37.1915C28.0304 36.8122 28.6847 36.9396 28.9171 37.4435H28.918Z" fill="black"/>
<path d="M73.0549 72.021H23.8022V65.5089H73.0549V72.021Z" fill="white"/>
<path d="M23.801 72.2447H73.0537C73.1776 72.2447 73.2773 72.1445 73.2773 72.02V65.5079C73.2773 65.3834 73.1776 65.2832 73.0537 65.2832H23.801C23.6771 65.2832 23.5774 65.3834 23.5774 65.5079V72.02C23.5774 72.1445 23.6771 72.2447 23.801 72.2447ZM72.8301 71.7953H24.0247V65.7326H72.8301V71.7953Z" fill="black"/>
<path d="M62.355 148.491L33.8732 148.251C31.3061 148.229 29.1959 146.209 29.0498 143.634L25.0975 73.9741H73.7026L68.3023 143.013C68.0593 146.124 65.4613 148.517 62.356 148.491H62.355Z" fill="white"/>
<path d="M62.4042 148.717C65.5908 148.717 68.274 146.23 68.5238 143.031L73.9241 73.9927C73.929 73.9304 73.9077 73.8682 73.8651 73.8225C73.8225 73.7767 73.7634 73.7505 73.7005 73.7505H25.0954C25.0335 73.7505 24.9754 73.7758 24.9328 73.8205C24.8902 73.8653 24.8689 73.9256 24.8718 73.9878L28.8241 143.648C28.976 146.333 31.1927 148.454 33.8682 148.476L62.35 148.717C62.3674 148.717 62.3848 148.717 62.4013 148.717H62.4042ZM62.3568 148.267L33.875 148.027C31.4337 148.007 29.4126 146.072 29.2732 143.623L25.3345 74.1999H73.4605L68.0795 142.996C67.8462 145.977 65.3353 148.292 62.3578 148.267H62.3568Z" fill="black"/>
<path d="M76.3181 76.5801H22.1567C21.2752 76.5801 20.5605 75.862 20.5605 74.9761V71.6719C20.5605 70.7861 21.2752 70.068 22.1567 70.068H76.3181C77.1996 70.068 77.9143 70.7861 77.9143 71.6719V74.9761C77.9143 75.862 77.1996 76.5801 76.3181 76.5801Z" fill="black"/>
<path d="M64.6232 126.346C64.6948 129.951 88.5613 133.219 116.609 133.219C144.656 133.219 167.084 130.283 167.393 126.689C168.113 118.327 144.656 120.159 116.609 120.159C88.5613 120.159 64.3831 114.203 64.6232 126.347V126.346Z" fill="white"/>
<path d="M116.608 133.444C141.396 133.444 167.252 130.924 167.615 126.708C167.715 125.553 167.371 124.541 166.595 123.698C162.711 119.489 148.088 119.645 129.573 119.843C125.394 119.887 121.072 119.933 116.608 119.933C109.012 119.933 101.608 119.49 95.0747 119.099C81.2394 118.272 70.3118 117.619 66.1931 121.597C64.9463 122.801 64.3597 124.356 64.3994 126.349C64.4836 130.592 91.4622 133.443 116.608 133.443V133.444ZM140.461 120.213C153.544 120.213 163.295 120.783 166.267 124.005C166.964 124.76 167.259 125.632 167.17 126.67C166.906 129.724 146.527 132.994 116.608 132.994C86.69 132.994 64.9086 129.482 64.8466 126.341C64.8099 124.479 65.3519 123.034 66.5028 121.922C70.4812 118.08 81.3226 118.728 95.0476 119.549C101.586 119.94 108.998 120.383 116.607 120.383C121.074 120.383 125.397 120.338 129.577 120.293C133.391 120.252 137.04 120.213 140.46 120.213H140.461Z" fill="black"/>
<path d="M66.7844 123.78C102.445 125.311 135.914 125.423 166.672 123.78C168.257 123.78 169.554 122.708 169.554 121.397V118.418C169.554 117.108 168.257 116.035 166.672 116.035C133.483 118.792 100.179 118.571 66.7844 116.035C65.1998 116.035 63.9027 117.107 63.9027 118.418V121.397C63.9027 122.707 65.1988 123.78 66.7844 123.78Z" fill="black"/>
<path d="M164.978 111.047L167.894 114.582C168.439 115.243 167.986 116.165 167.056 116.291C143.948 117.8 125.557 118.636 113.227 121.546C109.289 122.475 105.248 122.988 101.182 123.018C98.4723 123.038 95.8539 123.023 95.0708 122.908C85.0842 121.45 76.5756 119.5 65.6394 115.604C64.0016 115.201 63.8922 113.243 65.4778 112.707L75.2931 109.39L164.978 111.047Z" fill="white"/>
<path d="M99.3152 123.25C99.8844 123.25 100.508 123.247 101.182 123.242C105.173 123.213 109.244 122.716 113.277 121.764C123.96 119.242 139.053 118.29 158.161 117.083C161.046 116.901 164.017 116.714 167.07 116.514C167.636 116.438 168.09 116.103 168.271 115.638C168.431 115.227 168.356 114.79 168.066 114.437L165.15 110.902C165.109 110.851 165.048 110.822 164.983 110.82L75.2977 109.164C75.2706 109.164 75.2464 109.167 75.2222 109.175L65.4069 112.492C64.5967 112.765 64.0943 113.434 64.1263 114.193C64.1592 114.968 64.7274 115.604 65.5753 115.817C75.7459 119.44 84.2834 121.558 95.0387 123.128C95.5817 123.208 97.0172 123.248 99.3152 123.248V123.25ZM164.872 111.269L167.722 114.725C167.905 114.947 167.954 115.22 167.855 115.475C167.733 115.788 167.415 116.015 167.026 116.069C163.989 116.266 161.019 116.454 158.133 116.636C139.005 117.844 123.896 118.797 113.177 121.327C109.175 122.271 105.139 122.765 101.18 122.794C97.8506 122.818 95.7492 122.781 95.1035 122.687C84.3744 121.121 75.8601 119.007 65.7147 115.393C65.7079 115.39 65.7002 115.388 65.6934 115.386C65.0371 115.224 64.5967 114.75 64.5735 114.177C64.5551 113.735 64.8019 113.173 65.5502 112.92L75.3287 109.616L164.873 111.269H164.872Z" fill="black"/>
<path d="M68.824 112.588C99.1198 114.449 131.001 114.418 164.39 112.588C166.964 112.588 169.072 109.55 169.072 105.838C169.072 102.127 166.964 99.0889 164.39 99.0889C133.318 97.2895 101.502 97.1961 68.824 99.0889C66.2492 99.0889 64.1419 102.127 64.1419 105.838C64.1419 109.55 66.2492 112.588 68.824 112.588Z" fill="black"/>
<path d="M110.489 95.1767C110.462 95.2146 110.437 95.2516 110.414 95.2905C109.617 96.6133 109.095 98.1414 108.142 99.3329C106.775 101.044 104.69 101.844 102.649 102.206C97.1925 103.173 91.7379 103.15 86.235 102.817C78.6692 102.361 71.1897 105.62 63.6375 104.936C59.8721 104.594 60.0182 100.728 62.6115 98.5169C63.9221 97.3993 65.5502 96.8555 67.1406 96.3459C74.2398 94.0737 81.4096 92.0602 88.652 90.4193C95.7396 88.8144 103.125 87.0918 110.388 88.0596C111.928 88.2648 113.83 88.9982 115.166 89.8416C119.036 92.2859 111.992 93.064 110.49 95.1757L110.489 95.1767Z" fill="white"/>
<path d="M65.7882 105.255C68.9874 105.255 72.1866 104.682 75.3006 104.124C78.8773 103.484 82.5759 102.822 86.2203 103.042C90.735 103.314 96.6861 103.49 102.687 102.428C105.213 101.981 107.107 100.987 108.315 99.4741C108.915 98.7241 109.35 97.84 109.771 96.985C110.032 96.4568 110.301 95.9102 110.604 95.4073C110.624 95.3732 110.645 95.3411 110.669 95.3091C111.186 94.5815 112.446 94.0047 113.664 93.4464C115.171 92.7558 116.472 92.1595 116.532 91.2578C116.566 90.7316 116.158 90.2074 115.283 89.6539C113.883 88.7697 111.928 88.0402 110.416 87.8389C103.246 86.8837 95.9989 88.5266 88.9897 90.115L88.6006 90.2035C81.7028 91.7656 74.6607 93.7061 67.0708 96.1349C65.6372 96.594 63.8533 97.1649 62.4652 98.3487C60.9242 99.6628 60.1749 101.62 60.6444 103.109C61.0181 104.293 62.0732 105.022 63.6161 105.162C64.3392 105.227 65.0632 105.258 65.7873 105.258L65.7882 105.255ZM84.7519 102.55C81.5479 102.55 78.3391 103.125 75.2222 103.682C71.4325 104.361 67.5151 105.062 63.6568 104.712C62.3055 104.589 61.3869 103.971 61.0713 102.97C60.6551 101.649 61.3472 99.8884 62.7546 98.6881C63.9781 97.6454 65.432 97.128 67.2073 96.5599C74.7846 94.135 81.8151 92.1984 88.7003 90.6392L89.0894 90.5507C96.0599 88.9711 103.267 87.338 110.358 88.2824C111.812 88.476 113.695 89.1792 115.046 90.0323C115.759 90.4826 116.11 90.8843 116.086 91.2258C116.044 91.8599 114.741 92.4572 113.48 93.0349C112.208 93.6176 110.893 94.2197 110.307 95.0445C110.276 95.0873 110.248 95.1301 110.221 95.1738C109.909 95.6933 109.635 96.2477 109.371 96.7846C108.96 97.6182 108.535 98.479 107.967 99.191C106.828 100.616 105.025 101.556 102.609 101.984C96.6552 103.038 90.7379 102.863 86.2475 102.591C85.7499 102.561 85.2504 102.548 84.7519 102.548V102.55Z" fill="black"/>
<path d="M167.966 125.604C135.033 131.67 100.513 131.903 64.2416 125.604C64.2416 141.668 77.8891 154.691 94.7232 154.691H137.484C154.319 154.691 167.965 141.669 167.965 125.604H167.966Z" fill="white"/>
<path d="M94.7232 154.916H137.484C154.415 154.916 168.189 141.768 168.189 125.605C168.189 125.538 168.16 125.474 168.109 125.433C168.057 125.39 167.991 125.372 167.925 125.384C134.553 131.53 99.6812 131.53 64.2784 125.384C64.2135 125.372 64.1467 125.391 64.0964 125.434C64.0461 125.476 64.017 125.54 64.017 125.606C64.017 141.768 77.7923 154.917 94.7223 154.917L94.7232 154.916ZM167.741 125.874C167.588 141.665 154.074 154.467 137.484 154.467H94.7232C78.1321 154.467 64.6172 141.664 64.4662 125.872C82.1124 128.922 99.7432 130.466 116.877 130.467C117.038 130.467 117.195 130.467 117.356 130.467C134.313 130.439 151.263 128.894 167.741 125.876V125.874Z" fill="black"/>
<path d="M115.734 137.291C130.969 137.291 147.126 135.803 165.028 132.754C165.15 132.733 165.232 132.617 165.211 132.495C165.191 132.373 165.075 132.29 164.954 132.311C128.925 138.447 100.982 138.382 68.5073 132.083C68.3863 132.059 68.2691 132.139 68.2459 132.261C68.2227 132.382 68.3021 132.5 68.423 132.524C84.3192 135.608 98.5465 137.118 113.198 137.278C114.04 137.287 114.886 137.291 115.735 137.291H115.734Z" fill="black"/>
<path d="M64.6024 94.4256C99.5077 97.2707 134.083 97.2717 168.327 94.4256C168.327 78.3619 150.851 65.399 134.016 65.399L99.1999 65.1694C82.3648 65.1694 64.6024 78.3609 64.6024 94.4256Z" fill="white"/>
<path d="M116.719 96.7747C134.056 96.7747 151.3 96.0666 168.346 94.6494C168.462 94.6397 168.551 94.5424 168.551 94.4257C168.551 86.7814 164.671 79.4261 157.625 73.7135C150.933 68.2869 142.327 65.1744 134.016 65.1744L99.2009 64.9448C90.8889 64.9448 82.2313 68.0992 75.4477 73.5987C68.3098 79.3852 64.3788 86.7814 64.3788 94.4257C64.3788 94.5424 64.4679 94.6397 64.5841 94.6494C81.9641 96.0656 99.3877 96.7747 116.719 96.7747ZM168.103 94.2195C134.173 97.0286 99.4303 97.0286 64.827 94.2195C64.8977 86.7873 68.7628 79.5963 75.7284 73.9499C82.4345 68.5136 90.9886 65.3961 99.1999 65.3961L134.015 65.6257C150.04 65.6257 167.953 77.8406 168.103 94.2214V94.2195Z" fill="black"/>
<path d="M27.2334 160.245C50.7253 162.881 75.1048 162.955 100.136 161.148C106.545 160.685 111.555 155.41 111.65 148.955L111.75 142.166C111.859 134.714 105.452 128.888 98.075 129.658C75.0893 132.055 52.5016 132.076 30.4413 128.932C23.075 127.883 16.4618 133.544 16.3514 141.018L16.2527 147.724C16.1588 154.116 20.9116 159.534 27.2334 160.243V160.245Z" fill="white"/>
<path d="M67.0929 162.618C77.6806 162.618 88.6614 162.203 100.152 161.373C103.311 161.146 106.249 159.754 108.423 157.454C110.602 155.151 111.827 152.134 111.874 148.959L111.973 142.171C112.026 138.575 110.543 135.121 107.904 132.694C105.244 130.247 101.653 129.06 98.0518 129.435C73.771 131.967 51.6652 131.731 30.4723 128.711C26.8908 128.2 23.2618 129.26 20.5167 131.62C17.7802 133.972 16.1801 137.397 16.1269 141.016L16.0281 147.723C15.9323 154.263 20.7383 159.742 27.2083 160.468C39.9856 161.901 53.1995 162.617 67.0929 162.617V162.618ZM99.3624 129.817C102.4 129.817 105.347 130.953 107.602 133.025C110.147 135.366 111.577 138.696 111.526 142.164L111.426 148.952C111.332 155.319 106.472 160.466 100.12 160.925C73.5793 162.841 49.7457 162.545 27.2586 160.022C21.019 159.322 16.3834 154.037 16.4763 147.73L16.5751 141.024C16.6264 137.533 18.1693 134.231 20.808 131.962C23.4554 129.687 26.9566 128.665 30.4094 129.157C51.6391 132.182 73.7807 132.419 98.0982 129.884C98.5203 129.84 98.9423 129.818 99.3624 129.818V129.817Z" fill="black"/>
<path d="M8.13046 159.572C45.115 165.067 81.0832 165.249 116.235 161.163C119.878 160.74 122.656 157.563 122.712 153.745L122.773 149.599C122.841 145.019 119.016 141.445 114.651 141.988C78.7319 146.461 43.9176 146.234 10.3733 140.598C5.99994 139.863 2.00509 143.305 1.93733 147.921L1.87829 151.965C1.82214 155.781 4.50538 159.033 8.13046 159.572Z" fill="black"/>
<path d="M25.6819 166.533C49.7265 169.296 74.7042 169.361 100.362 167.46C106.252 167.025 110.82 162.108 110.908 156.174L111.035 147.515C111.137 140.612 105.199 135.2 98.3684 135.932C74.6742 138.474 51.3991 138.506 28.6874 135.167C21.869 134.164 15.7388 139.438 15.6362 146.361L15.5104 154.938C15.4232 160.858 19.8285 165.86 25.6819 166.533V166.533Z" fill="white"/>
<path d="M66.3641 169C77.2471 169 88.5473 168.561 100.38 167.685C103.281 167.47 105.979 166.174 107.975 164.033C109.968 161.896 111.089 159.106 111.132 156.178L111.26 147.519C111.309 144.174 109.927 140.963 107.468 138.709C104.999 136.446 101.674 135.353 98.3452 135.71C73.2813 138.4 50.5067 138.15 28.7204 134.946C25.4167 134.46 22.0607 135.431 19.514 137.61C16.9575 139.797 15.463 142.986 15.4136 146.36L15.2878 154.937C15.1987 160.987 19.6572 166.069 25.6577 166.758C38.6838 168.254 52.1697 169.001 66.3641 169.001V169ZM99.5881 136.093C102.379 136.093 105.089 137.135 107.166 139.041C109.53 141.208 110.859 144.296 110.812 147.512L110.684 156.172C110.598 162.049 106.153 166.807 100.346 167.237C73.1061 169.254 48.6917 168.951 25.7071 166.311C19.936 165.647 15.6479 160.761 15.734 154.943L15.8598 146.366C15.9073 143.121 17.3447 140.054 19.8024 137.951C22.2514 135.856 25.4777 134.923 28.6546 135.39C50.4786 138.599 73.29 138.85 98.3916 136.157C98.7904 136.114 99.1902 136.093 99.5871 136.093H99.5881Z" fill="black"/>
<path d="M61.9034 140.855C65.331 140.855 67.6183 139.022 69.836 137.246C72.2472 135.315 74.7369 133.318 78.7995 133.42C82.0741 133.502 84.2714 134.89 86.3962 136.232C88.728 137.705 90.9311 139.096 94.3326 138.762C97.8977 138.413 101.297 136.285 104.435 132.437C104.514 132.341 104.5 132.2 104.404 132.121C104.31 132.042 104.168 132.057 104.09 132.152C101.029 135.904 97.7322 137.977 94.29 138.315C91.0376 138.634 88.8994 137.282 86.6343 135.851C84.4583 134.477 82.2087 133.055 78.8111 132.97C74.5907 132.866 72.0314 134.913 69.5582 136.894C67.1508 138.822 64.878 140.642 61.22 140.379C57.8737 140.138 55.8671 138.361 53.7433 136.479C51.6699 134.642 49.5268 132.743 46.0711 132.484C42.5409 132.219 40.1219 134.595 37.9914 136.693C36.1484 138.507 34.557 140.073 32.6404 139.639C30.3028 139.11 28.4781 136.127 27.2168 130.774C27.1888 130.653 27.0678 130.578 26.9477 130.607C26.8277 130.635 26.7532 130.756 26.7822 130.877C28.0861 136.411 30.024 139.507 32.5427 140.077C34.6984 140.565 36.4494 138.839 38.305 137.013C40.3678 134.983 42.7064 132.68 46.0392 132.93C49.3448 133.178 51.3389 134.945 53.4491 136.814C55.5351 138.662 57.6927 140.575 61.19 140.825C61.4339 140.843 61.673 140.852 61.9063 140.852L61.9034 140.855Z" fill="black"/>
<path d="M18.7594 119.177C18.8068 119.177 18.8552 119.161 18.8958 119.13C18.9936 119.054 19.011 118.913 18.9355 118.815C18.1186 117.754 17.3151 116.664 16.5485 115.576C16.4769 115.475 16.3375 115.45 16.2368 115.522C16.1361 115.594 16.1119 115.734 16.1836 115.836C16.9541 116.929 17.7614 118.024 18.5822 119.09C18.6267 119.148 18.6926 119.178 18.7594 119.178V119.177Z" fill="black"/>
<path d="M16.3666 115.93C16.4112 115.93 16.4567 115.916 16.4954 115.889C16.596 115.817 16.6202 115.677 16.5486 115.576C5.84471 100.387 0.13072 82.5884 0.460802 65.4566C0.462738 65.3321 0.364971 65.23 0.242037 65.228C0.240101 65.228 0.239141 65.228 0.237206 65.228C0.11524 65.228 0.0165005 65.3253 0.0135956 65.4488C-0.152897 74.1066 1.16743 82.8598 3.93972 91.465C6.69362 100.017 10.8133 108.216 16.1837 115.835C16.2272 115.898 16.296 115.931 16.3666 115.931V115.93Z" fill="black"/>
<path d="M17.0414 109.3C17.0811 109.3 17.1217 109.289 17.1576 109.267C17.2631 109.203 17.296 109.064 17.2321 108.958C10.2656 97.474 6.26781 84.764 5.66863 72.2009C5.66282 72.0764 5.55827 71.983 5.43437 71.9869C5.31144 71.9928 5.21561 72.0978 5.22142 72.2223C5.8235 84.8593 9.84449 97.6433 16.8497 109.192C16.8923 109.261 16.9659 109.3 17.0404 109.3H17.0414Z" fill="black"/>
<path d="M23.1038 25.4783C23.4096 25.4783 23.7165 25.421 24.0108 25.3062C24.6516 25.0562 25.1559 24.565 25.4308 23.9221C25.9942 22.6109 25.4105 21.0741 24.1298 20.4963C23.5132 20.2181 22.8279 20.2006 22.1987 20.4457C21.5579 20.6957 21.0536 21.1869 20.7777 21.8298C20.2143 23.141 20.798 24.6778 22.0787 25.2556C22.4068 25.4034 22.7543 25.4783 23.1038 25.4783ZM23.9469 20.9058C25.0058 21.3834 25.4879 22.6566 25.0204 23.7441C24.7929 24.2751 24.3767 24.6807 23.8481 24.887C23.3312 25.0893 22.7679 25.0737 22.2616 24.8461C21.2027 24.3685 20.7206 23.0953 21.1881 22.0078C21.4156 21.4767 21.8328 21.0711 22.3604 20.8649C22.8773 20.6626 23.4406 20.6782 23.9469 20.9058Z" fill="black"/>
<path d="M28.5633 13.1274C28.5798 13.1274 28.5953 13.1254 28.6117 13.1215C28.7327 13.0943 28.8082 12.9746 28.7811 12.8531L28.4065 11.1567C28.3794 11.0351 28.2594 10.9593 28.1393 10.9865C28.0183 11.0137 27.9428 11.1334 27.9699 11.255L28.3446 12.9513C28.3678 13.0564 28.4607 13.1274 28.5623 13.1274H28.5633Z" fill="black"/>
<path d="M29.4373 17.0805C29.4538 17.0805 29.4693 17.0785 29.4857 17.0746C29.6067 17.0474 29.6822 16.9278 29.6551 16.8062L29.2805 15.1098C29.2534 14.9883 29.1334 14.9124 29.0134 14.9396C28.8933 14.9669 28.8169 15.0865 28.844 15.2081L29.2186 16.9044C29.2418 17.0095 29.3347 17.0805 29.4364 17.0805H29.4373Z" fill="black"/>
<path d="M29.9357 14.0047C29.9522 14.0047 29.9676 14.0028 29.9841 13.9989L31.6723 13.6224C31.7933 13.5952 31.8688 13.4756 31.8417 13.354C31.8146 13.2324 31.6945 13.1565 31.5745 13.1838L29.8863 13.5602C29.7653 13.5874 29.6898 13.7071 29.7169 13.8286C29.7402 13.9337 29.8331 14.0047 29.9347 14.0047H29.9357Z" fill="black"/>
<path d="M26.0016 14.8831C26.0181 14.8831 26.0336 14.8812 26.05 14.8773L27.7382 14.5009C27.8592 14.4736 27.9347 14.354 27.9076 14.2324C27.8805 14.1108 27.7604 14.0349 27.6404 14.0622L25.9523 14.4386C25.8313 14.4658 25.7558 14.5855 25.7829 14.7071C25.8061 14.8121 25.899 14.8831 26.0007 14.8831H26.0016Z" fill="black"/>
</g>
<defs>
<clipPath id="clip0_59_3800">
<rect width="174" height="178" fill="white" transform="matrix(-1 0 0 1 174 -9)"/>
</clipPath>
</defs>
</svg>
