<svg width="167" height="160" viewBox="0 0 167 160" fill="none" xmlns="http://www.w3.org/2000/svg">
<g clip-path="url(#clip0_59_2870)">
<path d="M75.9208 55.7944V152.767C75.9208 155.3 77.9315 157.36 80.4034 157.36H163.667C166.139 157.36 168.15 155.299 168.15 152.767V55.7944H171.891V153.89C171.891 157.918 168.694 161.195 164.763 161.195H79.3074C75.3764 161.195 72.1792 157.918 72.1792 153.89V55.7944H75.9208Z" fill="white"/>
<path d="M164.764 161.427H79.3077C75.2487 161.427 71.9463 158.047 71.9463 153.891V55.7946C71.9463 55.6658 72.0504 55.562 72.1794 55.562H75.921C76.05 55.562 76.1541 55.6658 76.1541 55.7946V152.767C76.1541 155.172 78.0608 157.128 80.4036 157.128H163.667C166.01 157.128 167.917 155.172 167.917 152.767V55.7946C167.917 55.6658 168.021 55.562 168.15 55.562H171.891C172.02 55.562 172.125 55.6658 172.125 55.7946V153.891C172.125 158.047 168.822 161.427 164.763 161.427H164.764ZM72.4126 56.0271V153.891C72.4126 157.79 75.5057 160.962 79.3077 160.962H164.763C168.565 160.962 171.658 157.79 171.658 153.891V56.0271H168.383V152.767C168.383 155.428 166.267 157.593 163.666 157.593H80.4046C77.8037 157.593 75.6889 155.428 75.6889 152.767V56.0271H72.4136H72.4126Z" fill="black"/>
<path d="M66.1408 56.7568L178.125 56.7568V52.9298L66.1408 52.9298V56.7568Z" fill="white"/>
<path d="M178.125 56.9895H66.1408C66.0118 56.9895 65.9077 56.8856 65.9077 56.7569V52.9289C65.9077 52.8001 66.0118 52.6963 66.1408 52.6963H178.125C178.254 52.6963 178.358 52.8001 178.358 52.9289V56.7569C178.358 56.8856 178.254 56.9895 178.125 56.9895ZM66.375 56.5243H177.891V53.1625H66.374V56.5243H66.375Z" fill="black"/>
<path d="M82.8006 167.217C84.8313 167.217 86.4776 165.53 86.4776 163.449C86.4776 161.369 84.8313 159.682 82.8006 159.682C80.7698 159.682 79.1235 161.369 79.1235 163.449C79.1235 165.53 80.7698 167.217 82.8006 167.217Z" fill="black"/>
<path d="M160.985 167.217C163.016 167.217 164.662 165.53 164.662 163.449C164.662 161.369 163.016 159.682 160.985 159.682C158.954 159.682 157.308 161.369 157.308 163.449C157.308 165.53 158.954 167.217 160.985 167.217Z" fill="black"/>
<path d="M98.0121 65.816C99.3932 67.3484 101.802 68.3649 104.544 68.3649C107.286 68.3649 109.669 67.3599 111.054 65.8409C111.183 65.8772 111.311 65.9125 111.438 65.9468C116.275 67.2508 128.683 74.4823 128.683 74.4823L121.838 85.6642L120.318 84.5336V113.594H89.2551V84.6208L87.1902 85.5812L80.6719 74.5446C88.2664 69.7053 93.7783 67.1065 98.0111 65.8149L98.0121 65.816Z" fill="white"/>
<path d="M104.51 63.7394C104.381 63.7394 104.277 63.6356 104.277 63.5068V58.3094C104.277 58.1868 104.372 58.0851 104.495 58.0768C104.612 58.0695 107.354 57.8556 107.354 55.0544C107.354 53.387 106.034 52.0311 104.409 52.0311C104.28 52.0311 104.176 51.9272 104.176 51.7985C104.176 51.6697 104.28 51.5659 104.409 51.5659C106.29 51.5659 107.821 53.1316 107.821 55.0555C107.821 57.8017 105.479 58.3966 104.743 58.5149V63.5079C104.743 63.6366 104.639 63.7404 104.51 63.7404V63.7394Z" fill="black"/>
<path d="M83.5777 72.2634V74.9057H125.031V72.2634L113.832 67.8383C110.667 66.663 108.989 63.6303 108.3 61.9878H100.307C99.7159 63.5649 98.4774 66.3703 94.7753 67.8383L83.5767 72.2634H83.5777ZM90.6508 72.09L104.305 67.1759L117.958 72.09H90.6508Z" fill="white"/>
<path d="M125.031 75.1394H83.5779C83.4488 75.1394 83.3447 75.0356 83.3447 74.9068V72.2645C83.3447 72.169 83.403 72.0828 83.4925 72.0485L94.6912 67.6235C98.515 66.1066 99.6588 63.0562 100.09 61.9079C100.124 61.8166 100.21 61.7563 100.308 61.7563H108.301C108.395 61.7563 108.48 61.8124 108.517 61.8996C109.072 63.2234 110.708 66.4306 113.914 67.6214L125.117 72.0475C125.206 72.0828 125.265 72.1679 125.265 72.2635V74.9058C125.265 75.0345 125.161 75.1384 125.032 75.1384L125.031 75.1394ZM83.811 74.6743H124.798V72.4223L113.747 68.0554C110.584 66.8812 108.898 63.9574 108.147 62.2215H100.471C99.9783 63.5203 98.7221 66.525 94.864 68.0554L83.812 72.4223V74.6743H83.811ZM117.958 72.3226H90.6509C90.5375 72.3226 90.4407 72.2416 90.4209 72.1306C90.4011 72.0195 90.4646 71.9094 90.5718 71.872L104.226 66.958C104.277 66.9393 104.333 66.9393 104.384 66.958L118.038 71.872C118.144 71.9104 118.207 72.0195 118.189 72.1306C118.169 72.2416 118.072 72.3226 117.959 72.3226H117.958ZM91.9842 71.8575H116.624L104.305 67.4231L91.9852 71.8575H91.9842Z" fill="black"/>
<path d="M104.425 74.2499C112.643 74.2499 112.279 66.1993 112.765 66.3779C118.22 68.3849 128.682 74.4825 128.682 74.4825L121.682 85.6645L120.008 84.5338V113.49H89.1521V84.621L87.1393 85.5814L80.647 74.5448C87.2434 70.342 92.2942 67.8284 96.2845 66.3945C96.8882 66.1775 96.5562 74.2499 104.425 74.2499Z" fill="white"/>
<path d="M120.008 113.722H89.1522C89.0232 113.722 88.9191 113.618 88.9191 113.49V84.9906L87.2403 85.7921C87.13 85.844 86.9999 85.8045 86.9385 85.6997L80.4462 74.6631C80.3827 74.5551 80.416 74.417 80.5222 74.3495C86.6669 70.4343 91.7979 67.7608 96.2066 66.1764C96.2888 66.1473 96.3752 66.1536 96.4522 66.1951C96.6499 66.302 96.7218 66.6021 96.8799 67.2593C97.366 69.2818 98.5046 74.0183 104.427 74.0183C110.799 74.0183 111.868 68.987 112.271 67.0932C112.398 66.4962 112.445 66.273 112.616 66.1785C112.688 66.139 112.77 66.1328 112.847 66.1608C118.259 68.1522 128.696 74.2208 128.8 74.282C128.854 74.3142 128.894 74.3661 128.91 74.4274C128.925 74.4886 128.915 74.553 128.882 74.606L121.882 85.7879C121.849 85.8419 121.795 85.8793 121.732 85.8928C121.67 85.9063 121.606 85.8928 121.553 85.8575L120.242 84.9729V113.49C120.242 113.618 120.138 113.722 120.009 113.722H120.008ZM89.3854 113.257H119.775V84.5348C119.775 84.4486 119.823 84.3697 119.899 84.3292C119.975 84.2887 120.067 84.2939 120.139 84.3417L121.614 85.3363L128.357 74.5624C126.874 73.7058 117.837 68.5322 112.848 66.6571C112.812 66.7869 112.767 66.9966 112.727 67.1877C112.303 69.1821 111.177 74.4824 104.427 74.4824C98.1362 74.4824 96.9382 69.4957 96.4262 67.3662C96.3627 67.1004 96.2919 66.8056 96.2368 66.6592C91.9353 68.2207 86.9354 70.8267 80.9635 74.6205L87.2331 85.2792L89.0523 84.4112C89.1252 84.3769 89.2095 84.3821 89.2771 84.4247C89.3448 84.4673 89.3864 84.542 89.3864 84.622V113.258L89.3854 113.257Z" fill="black"/>
<path d="M97.8077 65.8796C97.9701 69.5124 100.896 72.4071 104.481 72.4071C108.067 72.4071 110.997 69.5062 111.155 65.8682C111.249 65.8952 111.344 65.9211 111.438 65.9471C112.059 66.1142 112.806 66.3811 113.636 66.7164C113.079 71.3927 109.194 75.0152 104.48 75.0152C99.7665 75.0152 95.899 71.4083 95.3286 66.7476C96.2018 66.4101 97.0261 66.1236 97.8067 65.8796H97.8077Z" fill="black"/>
<path d="M104.481 75.2475C99.7225 75.2475 95.6885 71.6053 95.0973 66.7754C95.0848 66.6695 95.1452 66.5688 95.2451 66.5304C96.1027 66.1992 96.9405 65.9064 97.7378 65.6572C97.8065 65.6354 97.8824 65.6478 97.9418 65.6883C98.0011 65.7299 98.0375 65.7963 98.0406 65.868C98.1988 69.4032 101.028 72.1733 104.481 72.1733C107.934 72.1733 110.768 69.399 110.921 65.8576C110.924 65.787 110.96 65.7205 111.017 65.679C111.074 65.6375 111.148 65.624 111.217 65.6437C111.31 65.6696 111.405 65.6966 111.498 65.7216C112.097 65.8835 112.847 66.1452 113.723 66.5002C113.821 66.5397 113.879 66.6394 113.867 66.7432C113.29 71.5918 109.254 75.2475 104.48 75.2475H104.481ZM95.5844 66.8989C96.2234 71.406 100.017 74.7824 104.481 74.7824C108.945 74.7824 112.758 71.3915 113.383 66.8647C112.595 66.5511 111.921 66.3175 111.377 66.1711C111.374 66.1711 111.372 66.1701 111.37 66.169C111.068 69.8206 108.096 72.6394 104.481 72.6394C100.866 72.6394 97.9064 69.831 97.5941 66.1909C96.9457 66.3995 96.2724 66.6363 95.5844 66.8979V66.8989Z" fill="black"/>
<path d="M102.771 91.4619L102.773 91.6488L102.776 91.9769L102.465 91.9748L98.9845 91.9541L98.3881 91.9509H98.3631C97.9937 91.9447 97.6335 91.8668 97.2953 91.7204C97.288 91.7173 97.2807 91.7142 97.2734 91.7111L98.997 95.0615C99.3029 95.6575 99.891 96.0333 100.53 96.0427L102.441 96.0541L102.74 96.0562L102.755 96.3697L102.778 96.8141L104.214 94.1271L102.772 91.463L102.771 91.4619Z" fill="white"/>
<path d="M102.777 97.0465C102.76 97.0465 102.743 97.0444 102.726 97.0413C102.624 97.0185 102.549 96.9302 102.544 96.8264L102.517 96.2875L100.528 96.2751C99.8004 96.2647 99.1343 95.84 98.7887 95.1673L97.0652 91.8168C97.0205 91.7296 97.035 91.6227 97.1027 91.551C97.1703 91.4794 97.2755 91.4576 97.366 91.497C97.699 91.6414 98.0279 91.712 98.3662 91.7171L98.9854 91.7213L102.54 91.7431L102.537 91.4648C102.536 91.3579 102.607 91.2634 102.711 91.2375C102.814 91.2105 102.924 91.2582 102.975 91.3517L104.417 94.0158C104.455 94.0844 104.455 94.1674 104.417 94.2359L102.981 96.9229C102.939 96.9998 102.86 97.0465 102.775 97.0465H102.777ZM97.7407 92.1096L99.204 94.9544C99.4704 95.4735 99.9804 95.8006 100.533 95.8089L102.739 95.8224C102.84 95.8224 102.927 95.8878 102.958 95.9792L103.948 94.1269L102.892 92.1781C102.857 92.1989 102.825 92.2093 102.774 92.2093L98.3589 92.1823C98.1487 92.1792 97.9415 92.1542 97.7396 92.1086L97.7407 92.1096Z" fill="black"/>
<path d="M97.6011 85.9907L96.271 88.6559C96.0888 89.0203 96.0961 89.4543 96.2887 89.8188L97.2961 91.7198C97.6333 91.8662 97.9945 91.9441 98.364 91.9492H98.3889L98.9853 91.9534L100.862 88.332C100.888 88.2811 100.871 88.2365 100.86 88.2147C100.847 88.1929 100.818 88.1565 100.762 88.1555L98.8094 88.1441H98.6148L98.5274 87.9582L97.6021 85.9918L97.6011 85.9907Z" fill="black"/>
<path d="M98.9843 92.1862H98.9833L98.3599 92.182C97.9602 92.1758 97.571 92.0927 97.2025 91.9328C97.1536 91.9121 97.1141 91.8747 97.0891 91.828L96.0816 89.9269C95.8537 89.4971 95.8454 88.9832 96.0608 88.5513L97.3909 85.8861C97.4305 85.8061 97.5096 85.7573 97.6022 85.7573C97.6917 85.7573 97.7729 85.8103 97.8104 85.8913L98.7606 87.9096L100.761 87.9221C100.888 87.9242 100.999 87.9906 101.062 88.1017C101.121 88.2076 101.123 88.3301 101.068 88.4381L99.1915 92.0595C99.1509 92.1363 99.0718 92.1851 98.9843 92.1851V92.1862ZM97.4627 91.5373C97.7521 91.6525 98.056 91.7127 98.3672 91.7169L98.8428 91.72L100.57 88.3872L98.6128 88.3758C98.5233 88.3758 98.4411 88.3228 98.4036 88.2419L97.596 86.5256L96.4803 88.76C96.3325 89.0569 96.3377 89.412 96.4959 89.7099L97.4638 91.5373H97.4627Z" fill="black"/>
<path d="M109.123 92.0337L105.178 92.0825C105.122 92.0825 105.095 92.1199 105.082 92.1417C105.071 92.1635 105.055 92.2081 105.084 92.259L106.078 94.0448L106.177 94.2234L106.07 94.3926L104.928 96.1929L107.805 96.1109C108.197 96.0995 108.552 95.8825 108.752 95.5295L109.798 93.6876C109.744 93.3004 109.618 92.9256 109.425 92.5798L109.121 92.0337H109.123Z" fill="black"/>
<path d="M104.928 96.4257C104.845 96.4257 104.767 96.3811 104.725 96.3084C104.683 96.2336 104.685 96.1412 104.731 96.0685L105.906 94.2163L104.879 92.3724C104.82 92.2644 104.818 92.1408 104.875 92.0329C104.936 91.9187 105.047 91.8501 105.175 91.8491L109.119 91.8003C109.206 91.8003 109.284 91.8449 109.326 91.9197L109.63 92.4648C109.836 92.8354 109.97 93.2352 110.029 93.6536C110.037 93.7044 110.026 93.7564 110.001 93.8L108.955 95.6418C108.715 96.0665 108.287 96.3281 107.811 96.3416L104.935 96.4236C104.935 96.4236 104.93 96.4236 104.928 96.4236V96.4257ZM105.381 92.3122L106.382 94.1104C106.424 94.1852 106.421 94.2755 106.376 94.3482L105.361 95.9481L107.8 95.8785C108.11 95.8702 108.391 95.6969 108.551 95.4155L109.558 93.6432C109.502 93.3099 109.39 92.9901 109.225 92.6922L108.988 92.2685L105.383 92.3132L105.381 92.3122Z" fill="black"/>
<path d="M101.4 81.3057C100.774 81.2964 100.193 81.6442 99.8859 82.2142L98.9555 83.9367L98.8087 84.2076L98.5423 84.0612L98.1655 83.8536L99.6788 86.5447L102.572 86.5987L102.418 86.5042L102.146 86.3381L102.299 86.0547L104.007 82.8922L104.3 82.3502C104.485 82.0065 104.73 81.7106 105.02 81.4729C105.026 81.4677 105.033 81.4625 105.039 81.4573L101.445 81.3057C101.43 81.3057 101.415 81.3047 101.4 81.3047V81.3057Z" fill="white"/>
<path d="M102.571 86.8311C102.571 86.8311 102.568 86.8311 102.567 86.8311L99.6735 86.7771C99.5903 86.776 99.5153 86.7304 99.4747 86.6587L97.9615 83.9676C97.9105 83.8772 97.9261 83.763 97.9989 83.6893C98.0728 83.6156 98.1863 83.599 98.2768 83.6499L98.7129 83.8907L99.6777 82.1039C100.026 81.4581 100.684 81.0636 101.401 81.0729H101.441L105.046 81.2255C105.143 81.2297 105.228 81.293 105.258 81.3854C105.288 81.4778 105.258 81.5785 105.182 81.6398C104.897 81.8734 104.674 82.1454 104.503 82.4611L102.453 86.2548L102.691 86.4002C102.78 86.4552 102.823 86.5632 102.793 86.6639C102.764 86.7636 102.672 86.8311 102.569 86.8311H102.571ZM99.8161 86.314L101.912 86.3535C101.909 86.3109 101.918 86.2683 101.939 86.2278L104.094 82.2399C104.206 82.0323 104.337 81.8412 104.487 81.6668L101.396 81.537C100.857 81.5308 100.356 81.8298 100.09 82.323L99.0126 84.3164C98.9835 84.3714 98.9325 84.4119 98.8732 84.4296C98.8357 84.44 98.7972 84.442 98.7597 84.4337L99.8161 86.313V86.314Z" fill="black"/>
<path d="M105.02 81.4727C104.73 81.7105 104.485 82.0074 104.3 82.35L104.007 82.892L106.075 86.4646C106.104 86.5145 106.148 86.5228 106.171 86.5228C106.195 86.5228 106.241 86.5155 106.269 86.4646L107.227 84.6903L107.323 84.5127L107.518 84.5283L109.586 84.6944L108.039 82.1112C107.828 81.7582 107.467 81.5412 107.073 81.5298L105.02 81.4717V81.4727Z" fill="black"/>
<path d="M106.172 86.7564C106.172 86.7564 106.168 86.7564 106.166 86.7564C106.044 86.7544 105.934 86.689 105.871 86.582L103.803 83.0094C103.763 82.9398 103.762 82.8537 103.8 82.7831L104.093 82.2411C104.292 81.8715 104.554 81.5527 104.87 81.2942C104.914 81.2589 104.969 81.2402 105.025 81.2413L107.079 81.2994C107.552 81.3129 107.985 81.5725 108.238 81.994L109.785 84.5772C109.829 84.6519 109.828 84.7454 109.782 84.8191C109.737 84.8928 109.653 84.9354 109.566 84.9281L107.455 84.7578L106.473 86.5758C106.411 86.689 106.299 86.7564 106.172 86.7564ZM104.274 82.8879L106.167 86.1605L107.117 84.4027C107.161 84.3217 107.249 84.274 107.341 84.2813L109.152 84.4276L107.837 82.2317C107.668 81.9473 107.378 81.7728 107.065 81.7635L105.101 81.7074C104.861 81.9172 104.66 82.1705 104.504 82.4602L104.273 82.8879H104.274Z" fill="black"/>
<path d="M111.171 86.2141L108.221 86.21L106.771 88.8201L106.924 88.7277L107.192 88.5658L107.35 88.8513L109.122 92.0345L109.426 92.5807C109.618 92.9264 109.743 93.3012 109.798 93.6885C109.799 93.6968 109.8 93.7051 109.801 93.7134L111.671 90.5145C112.008 89.9404 112.012 89.2167 111.683 88.626L110.718 86.8921L110.566 86.619L110.816 86.4519L111.17 86.2152L111.171 86.2141Z" fill="white"/>
<path d="M109.802 93.945C109.788 93.945 109.772 93.9439 109.756 93.9408C109.659 93.9211 109.585 93.8422 109.571 93.7446L109.772 93.6947L109.768 93.6927L109.568 93.7207C109.517 93.3594 109.402 93.0136 109.223 92.6928L107.107 88.8908L106.893 89.0205C106.803 89.0756 106.686 89.0621 106.61 88.9894C106.534 88.9167 106.517 88.8015 106.568 88.7091L108.018 86.0989C108.06 86.0252 108.138 85.9795 108.222 85.9795L111.172 85.9836C111.275 85.9836 111.364 86.0511 111.395 86.1487C111.425 86.2463 111.386 86.3522 111.301 86.4093L110.875 86.6938L111.888 88.5139C112.256 89.1752 112.251 89.9871 111.873 90.6329L110.003 93.8318C109.96 93.9045 109.883 93.947 109.801 93.947L109.802 93.945ZM107.296 88.3571C107.338 88.3779 107.373 88.4111 107.397 88.4526L109.632 92.4665C109.742 92.6648 109.831 92.8714 109.9 93.0842L111.473 90.3952C111.767 89.8916 111.77 89.2562 111.482 88.7371L110.365 86.7301C110.312 86.6346 110.333 86.5163 110.412 86.4446L108.361 86.4415L107.297 88.3561L107.296 88.3571Z" fill="black"/>
<path d="M140.082 58.6851L139.143 62.0355C138.819 63.461 137.814 64.6228 136.471 65.1222L126.337 69.5462L120.151 115.234H127.268C127.268 115.234 132.163 85.1314 132.737 86.8975C134.226 91.4907 133.929 96.574 132.895 99.7531C131.861 102.932 127.619 122.802 127.619 122.802H162.827C162.827 122.802 158.329 102.932 157.295 99.7531C156.26 96.574 156.031 91.5135 157.453 86.8975C157.615 86.369 163.53 115.389 163.53 115.389H170.781L163.852 69.5462L153.718 65.1222C152.375 64.6228 151.37 63.461 151.046 62.0355L150.107 58.6851H140.084H140.082Z" fill="white"/>
<path d="M162.825 123.035H127.618C127.548 123.035 127.481 123.003 127.437 122.949C127.394 122.895 127.376 122.822 127.39 122.754C127.563 121.942 131.646 102.835 132.672 99.6806C133.562 96.9448 134.068 92.1263 132.642 87.3773C131.769 90.0176 129.155 105.086 127.498 115.271C127.479 115.383 127.382 115.466 127.268 115.466H120.151C120.083 115.466 120.02 115.437 119.975 115.386C119.93 115.335 119.91 115.269 119.92 115.202L126.106 69.5142C126.118 69.4333 126.17 69.3647 126.243 69.3325L136.377 64.9085C137.664 64.4299 138.608 63.3377 138.915 61.9838L139.857 58.6219C139.885 58.5212 139.976 58.4517 140.082 58.4517H150.105C150.21 58.4517 150.302 58.5212 150.33 58.6219L151.269 61.9724C151.579 63.3387 152.523 64.4299 153.798 64.9034L163.944 69.3325C164.018 69.3647 164.069 69.4322 164.082 69.5111L171.011 115.354C171.022 115.422 171.002 115.489 170.957 115.541C170.912 115.592 170.848 115.622 170.78 115.622H163.529C163.418 115.622 163.323 115.544 163.3 115.436C161.888 108.504 158.371 91.4255 157.459 87.7137C156.182 92.4617 156.669 97.0808 157.515 99.6827C158.541 102.835 163.008 122.553 163.052 122.753C163.068 122.821 163.051 122.894 163.007 122.949C162.962 123.004 162.895 123.036 162.824 123.036L162.825 123.035ZM127.907 122.57H162.534C161.979 120.126 158.024 102.751 157.072 99.8249C156.16 97.0227 155.655 91.9384 157.229 86.8291C157.26 86.7274 157.366 86.6537 157.47 86.6578C157.714 86.6693 157.739 86.6713 158.747 91.2988C159.262 93.664 159.959 96.9604 160.822 101.097C162.157 107.504 163.481 113.985 163.72 115.156H170.508L163.639 69.7073L153.623 65.3353C152.213 64.811 151.16 63.5952 150.817 62.0866L149.928 58.9178H140.26L139.368 62.098C139.028 63.5952 137.975 64.811 136.553 65.3405L126.552 69.7073L120.418 115.002H127.07C127.264 113.81 128.32 107.376 129.444 101.012C131.98 86.6433 132.356 86.6142 132.658 86.5914C132.711 86.5872 132.884 86.5924 132.96 86.826C134.576 91.8107 134.054 96.9438 133.118 99.8249C132.166 102.751 128.43 120.137 127.909 122.57H127.907Z" fill="black"/>
<path d="M144.779 62.1033C144.65 62.1033 144.546 61.9994 144.546 61.8707V57.4716C144.546 57.3491 144.641 57.2474 144.764 57.2391C144.862 57.2328 147.151 57.0532 147.151 54.7161C147.151 53.3249 146.049 52.1932 144.695 52.1932C144.566 52.1932 144.461 52.0893 144.461 51.9606C144.461 51.8319 144.566 51.728 144.695 51.728C146.307 51.728 147.618 53.0684 147.618 54.7172C147.618 57.0325 145.676 57.562 145.013 57.6751V61.8707C145.013 61.9994 144.909 62.1033 144.78 62.1033H144.779Z" fill="black"/>
<path d="M127.238 69.8165V72.0529H162.32V69.8165L152.843 66.0715C150.165 65.0769 148.744 62.5103 148.161 61.1201H141.396C140.896 62.4543 139.848 64.8288 136.715 66.0715L127.238 69.8165ZM133.223 69.6691L144.779 65.5098L156.335 69.6691H133.223Z" fill="white"/>
<path d="M162.319 72.2856H127.237C127.107 72.2856 127.003 72.1818 127.003 72.053V69.8167C127.003 69.7211 127.062 69.635 127.151 69.6007L136.628 65.8557C139.85 64.5787 140.814 62.0069 141.178 61.0393C141.212 60.9479 141.298 60.8877 141.396 60.8877H148.161C148.255 60.8877 148.34 60.9438 148.377 61.031C148.844 62.1471 150.224 64.8507 152.924 65.8537L162.406 69.5997C162.495 69.635 162.554 69.7201 162.554 69.8156V72.052C162.554 72.1808 162.45 72.2846 162.321 72.2846L162.319 72.2856ZM127.47 71.8205H162.086V69.9745L152.755 66.2876C150.079 65.294 148.648 62.8303 148.006 61.3528H141.557C140.939 62.9434 139.765 65.1123 136.8 66.2876L127.47 69.9745V71.8205ZM156.333 69.9018H133.222C133.109 69.9018 133.012 69.8208 132.992 69.7097C132.972 69.5986 133.036 69.4886 133.143 69.4512L144.699 65.292C144.75 65.2733 144.806 65.2733 144.857 65.292L156.412 69.4512C156.519 69.4896 156.583 69.5986 156.563 69.7097C156.544 69.8208 156.447 69.9018 156.333 69.9018ZM134.556 69.4367H154.999L144.778 65.7581L134.556 69.4367Z" fill="black"/>
<path d="M140.082 58.6855L139.143 62.036C138.819 63.4615 137.814 64.6233 136.471 65.1227L126.337 69.5467L120.151 115.235H127.268C127.268 115.235 132.163 85.1319 132.737 86.898C134.226 91.4912 133.929 96.5745 132.895 99.7536C131.861 102.933 127.619 122.803 127.619 122.803H162.827C162.827 122.803 158.329 102.933 157.295 99.7536C156.26 96.5745 156.031 91.514 157.453 86.898C157.615 86.3695 163.53 115.39 163.53 115.39H170.781L163.852 69.5467L153.718 65.1227C152.375 64.6233 151.37 63.4615 151.046 62.036L150.107 58.6855L144.781 79.3509L140.085 58.6855H140.082Z" fill="white"/>
<path d="M162.825 123.035H127.618C127.548 123.035 127.481 123.003 127.437 122.949C127.394 122.895 127.376 122.822 127.39 122.754C127.563 121.942 131.646 102.835 132.672 99.6807C133.562 96.9449 134.068 92.1264 132.642 87.3774C131.769 90.0177 129.155 105.086 127.498 115.271C127.479 115.383 127.382 115.466 127.268 115.466H120.151C120.083 115.466 120.02 115.437 119.975 115.386C119.93 115.335 119.91 115.269 119.92 115.203L126.106 69.5143C126.118 69.4333 126.17 69.3648 126.243 69.3326L136.377 64.9086C137.664 64.43 138.608 63.3377 138.915 61.9838L139.857 58.622C139.886 58.5192 139.991 58.4486 140.087 58.4517C140.194 58.4548 140.285 58.5286 140.308 58.6324L144.791 78.3592L149.878 58.6251C149.904 58.5234 149.996 58.4517 150.102 58.4507C150.207 58.4507 150.301 58.5192 150.329 58.621L151.268 61.9714C151.578 63.3377 152.522 64.4289 153.797 64.9024L163.943 69.3316C164.017 69.3637 164.068 69.4312 164.081 69.5101L171.01 115.353C171.021 115.421 171.001 115.488 170.956 115.54C170.911 115.591 170.847 115.621 170.779 115.621H163.528C163.417 115.621 163.322 115.543 163.299 115.435C161.887 108.503 158.37 91.4245 157.458 87.7128C156.181 92.4607 156.668 97.0799 157.514 99.6817C158.54 102.834 163.007 122.552 163.051 122.752C163.067 122.82 163.05 122.893 163.006 122.948C162.961 123.003 162.894 123.035 162.823 123.035H162.825ZM127.907 122.57H162.534C161.979 120.126 158.024 102.751 157.072 99.825C156.16 97.0228 155.655 91.9384 157.229 86.8292C157.26 86.7275 157.366 86.6537 157.47 86.6579C157.714 86.6693 157.739 86.6714 158.747 91.2989C159.262 93.664 159.959 96.9605 160.822 101.097C162.157 107.504 163.481 113.985 163.72 115.156H170.508L163.639 69.7074L153.623 65.3353C152.213 64.811 151.16 63.5952 150.817 62.0866L150.115 59.5824L145.004 79.4078C144.977 79.5116 144.879 79.5832 144.775 79.5822C144.667 79.5801 144.575 79.5054 144.552 79.4005L140.06 59.6322L139.369 62.097C139.029 63.5942 137.976 64.81 136.554 65.3395L126.553 69.7064L120.419 115.001H127.071C127.266 113.809 128.321 107.375 129.445 101.011C131.981 86.6423 132.357 86.6132 132.659 86.5904C132.712 86.5863 132.885 86.5914 132.961 86.8251C134.577 91.8097 134.055 96.9428 133.119 99.824C132.168 102.75 128.431 120.136 127.91 122.569L127.907 122.57Z" fill="black"/>
<path d="M145.463 80.3163L151.998 70.2557L150.169 67.7555L153.524 65.597C153.647 61.7285 149.8 58.6553 149.8 58.6553C149.8 58.6553 145.561 64.9294 142.563 73.6528C141.733 76.0667 145.462 80.3153 145.462 80.3153L145.463 80.3163Z" fill="white"/>
<path d="M145.463 80.5488C145.397 80.5488 145.332 80.5198 145.287 80.4699C145.131 80.2924 141.478 76.0906 142.342 73.578C145.315 64.9252 149.564 58.5888 149.607 58.5254C149.643 58.4714 149.7 58.4351 149.765 58.4258C149.828 58.4154 149.895 58.433 149.946 58.4746C150.107 58.6033 153.882 61.6661 153.757 65.6053C153.755 65.6821 153.714 65.7517 153.65 65.7932L150.502 67.8178L152.186 70.1196C152.243 70.1975 152.246 70.3023 152.193 70.3833L145.658 80.444C145.618 80.5052 145.552 80.5447 145.479 80.5499C145.474 80.5499 145.467 80.5499 145.462 80.5499L145.463 80.5488ZM149.85 59.0051C149.084 60.1877 145.428 66.0351 142.784 73.7296C142.115 75.6763 144.689 79.0122 145.439 79.9259L151.715 70.2639L149.98 67.8925C149.943 67.8406 149.927 67.7763 149.94 67.7129C149.951 67.6496 149.988 67.5946 150.043 67.5603L153.294 65.4693C153.324 62.3109 150.611 59.68 149.85 59.0051Z" fill="black"/>
<path d="M148.543 106.573C146.075 84.1806 137.01 70.2763 137.01 70.2763L138.975 67.8852L135.743 65.5367C135.834 61.6671 139.844 58.8213 139.844 58.8213C139.844 58.8213 145.793 69.4322 147.515 82.047C149.237 94.6617 148.543 106.573 148.543 106.573Z" fill="white"/>
<path d="M148.543 106.805C148.424 106.805 148.324 106.716 148.311 106.598C145.877 84.5244 136.905 70.5412 136.814 70.4021C136.759 70.317 136.765 70.2059 136.83 70.128L138.639 67.928L135.607 65.7238C135.546 65.6791 135.509 65.6064 135.511 65.5306C135.604 61.5905 139.542 58.7509 139.71 58.6315C139.764 58.5931 139.832 58.5796 139.896 58.5941C139.961 58.6086 140.016 58.6502 140.048 58.7073C140.107 58.8142 146.039 69.502 147.747 82.015C149.451 94.5072 148.783 106.466 148.776 106.585C148.769 106.706 148.67 106.801 148.549 106.804C148.547 106.804 148.545 106.804 148.543 106.804V106.805ZM137.297 70.2941C138.212 71.7664 145.707 84.2991 148.411 103.639C148.503 99.3309 148.479 90.837 147.283 82.0793C145.729 70.6835 140.644 60.8097 139.768 59.1724C138.964 59.8099 136.123 62.2788 135.98 65.4216L139.111 67.6975C139.163 67.7349 139.198 67.793 139.205 67.8563C139.213 67.9197 139.195 67.984 139.154 68.0328L137.295 70.2941H137.297Z" fill="black"/>
<path d="M138.937 122.839C138.877 122.839 138.816 122.839 138.755 122.837C138.626 122.835 138.524 122.728 138.526 122.599C138.53 122.47 138.634 122.367 138.765 122.371C140.823 122.412 142.6 121.715 144.034 120.301C148.341 116.054 148.311 106.667 148.311 106.573C148.31 106.444 148.413 106.339 148.542 106.338H148.544C148.672 106.338 148.776 106.441 148.777 106.568C148.78 106.962 148.808 116.248 144.362 120.632C142.878 122.095 141.053 122.837 138.939 122.837L138.937 122.839Z" fill="black"/>
<path d="M152.783 122.837C149.49 122.837 147.037 119.833 146.4 117.007C146.372 116.881 146.451 116.757 146.577 116.729C146.702 116.701 146.828 116.78 146.856 116.905C147.452 119.555 149.733 122.372 152.783 122.372C152.912 122.372 153.016 122.476 153.016 122.604C153.016 122.733 152.912 122.837 152.783 122.837Z" fill="black"/>
<path d="M145.464 112.549C146.18 112.549 146.761 111.954 146.761 111.221C146.761 110.488 146.18 109.893 145.464 109.893C144.748 109.893 144.167 110.488 144.167 111.221C144.167 111.954 144.748 112.549 145.464 112.549Z" fill="black"/>
<path d="M73.3427 52.6353C67.6247 60.8478 61.4956 102.728 61.4956 102.728L62.8476 102.749C62.8476 102.749 67.8329 74.5694 69.0547 70.081C71.4787 61.178 73.5436 53.1938 75.0443 52.6488L73.3427 52.6363V52.6353Z" fill="black"/>
<path d="M73.9557 52.6352C75.4565 52.0901 77.791 65.5957 78.3134 74.9057C78.8026 83.6042 79.7684 98.6962 79.5853 102.976C79.5853 102.976 81.2089 103.388 81.1901 102.949C80.6458 90.3154 79.9266 53.6226 74.7374 51.3872C73.9557 51.0508 73.375 51.488 72.5757 52.6352H73.9547H73.9557Z" fill="black"/>
<path d="M78.3614 120.595H65.9898C62.6573 120.595 59.9523 117.897 59.9523 114.572V105.874C59.9523 104.324 61.2137 103.065 62.7676 103.065H79.7686V119.191C79.7686 119.967 79.1378 120.596 78.3604 120.596L78.3614 120.595Z" fill="white"/>
<path d="M78.3605 120.827H65.9899C62.5324 120.827 59.7192 118.021 59.7192 114.572V105.874C59.7192 104.197 61.0868 102.833 62.7677 102.833H79.7686C79.8977 102.833 80.0018 102.936 80.0018 103.065V119.191C80.0018 120.093 79.2659 120.829 78.3605 120.829V120.827ZM62.7666 103.298C61.3428 103.298 60.1845 104.453 60.1845 105.874V114.572C60.1845 117.765 62.7885 120.362 65.9888 120.362H78.3605C79.0078 120.362 79.5355 119.837 79.5355 119.19V103.298H62.7677H62.7666Z" fill="black"/>
<path d="M75.9689 120.595H68.8104C64.7733 120.595 61.4969 117.325 61.4969 113.299V103.921H81.9033V114.676C81.9033 117.943 79.2442 120.595 75.9699 120.595H75.9689Z" fill="white"/>
<path d="M75.9687 120.827H68.8103C64.6493 120.827 61.2637 117.45 61.2637 113.299V103.922C61.2637 103.793 61.3677 103.689 61.4968 103.689H81.9032C82.0322 103.689 82.1363 103.793 82.1363 103.922V114.676C82.1363 118.068 79.3699 120.827 75.9697 120.827H75.9687ZM61.7289 104.154V113.298C61.7289 117.192 64.9053 120.361 68.8093 120.361H75.9677C79.1108 120.361 81.668 117.81 81.668 114.675V104.153H61.7299L61.7289 104.154Z" fill="black"/>
<path d="M75.6733 120.143H74.0466C73.9176 120.143 73.8135 120.04 73.8135 119.911C73.8135 119.782 73.9176 119.678 74.0466 119.678H75.6733C76.049 119.678 76.4237 119.639 76.788 119.561C76.915 119.534 77.0378 119.614 77.0648 119.739C77.0919 119.865 77.0118 119.989 76.8858 120.016C76.4893 120.101 76.0824 120.143 75.6733 120.143ZM71.248 120.143H68.4493C67.8259 120.143 67.2098 120.052 66.6197 119.872C66.4969 119.835 66.4271 119.705 66.4646 119.582C66.5021 119.459 66.6322 119.39 66.756 119.427C67.3024 119.593 67.8728 119.677 68.4504 119.677H71.249C71.3781 119.677 71.4822 119.781 71.4822 119.91C71.4822 120.039 71.3781 120.142 71.249 120.142L71.248 120.143ZM79.3098 118.779C79.2453 118.779 79.1807 118.752 79.1339 118.7C79.0485 118.604 79.059 118.456 79.1557 118.372C79.8312 117.781 80.3474 117.026 80.6493 116.187C80.693 116.065 80.8262 116.003 80.948 116.046C81.0697 116.09 81.1322 116.223 81.0885 116.344C80.7606 117.258 80.1986 118.08 79.4638 118.723C79.4201 118.761 79.3649 118.781 79.3098 118.781V118.779ZM64.2915 118.488C64.2342 118.488 64.1759 118.468 64.1312 118.424C63.4276 117.757 62.8823 116.926 62.5523 116.02C62.5086 115.9 62.5711 115.766 62.6918 115.722C62.8125 115.679 62.9468 115.741 62.9905 115.862C63.2955 116.699 63.8002 117.469 64.4518 118.087C64.5454 118.175 64.5485 118.322 64.4601 118.416C64.4143 118.463 64.3529 118.488 64.2904 118.488H64.2915ZM81.1915 113.743C81.0624 113.743 80.9584 113.639 80.9584 113.51V110.718C80.9584 110.589 81.0624 110.486 81.1915 110.486C81.3205 110.486 81.4246 110.589 81.4246 110.718V113.51C81.4246 113.639 81.3205 113.743 81.1915 113.743ZM62.4118 113.424C62.2828 113.424 62.1787 113.32 62.1787 113.191V110.399C62.1787 110.271 62.2828 110.167 62.4118 110.167C62.5409 110.167 62.645 110.271 62.645 110.399V113.191C62.645 113.32 62.5409 113.424 62.4118 113.424ZM81.1915 108.158C81.0624 108.158 80.9584 108.054 80.9584 107.925V105.133C80.9584 105.005 81.0624 104.901 81.1915 104.901C81.3205 104.901 81.4246 105.005 81.4246 105.133V107.925C81.4246 108.054 81.3205 108.158 81.1915 108.158ZM62.4118 107.839C62.2828 107.839 62.1787 107.735 62.1787 107.606V104.815C62.1787 104.686 62.2828 104.582 62.4118 104.582C62.5409 104.582 62.645 104.686 62.645 104.815V107.606C62.645 107.735 62.5409 107.839 62.4118 107.839ZM78.959 104.8H76.1604C76.0314 104.8 75.9273 104.696 75.9273 104.568C75.9273 104.439 76.0314 104.335 76.1604 104.335H78.959C79.0881 104.335 79.1922 104.439 79.1922 104.568C79.1922 104.696 79.0881 104.8 78.959 104.8ZM73.3607 104.8H70.5621C70.4331 104.8 70.329 104.696 70.329 104.568C70.329 104.439 70.4331 104.335 70.5621 104.335H73.3607C73.4898 104.335 73.5939 104.439 73.5939 104.568C73.5939 104.696 73.4898 104.8 73.3607 104.8ZM67.7624 104.8H64.9638C64.8348 104.8 64.7307 104.696 64.7307 104.568C64.7307 104.439 64.8348 104.335 64.9638 104.335H67.7624C67.8915 104.335 67.9956 104.439 67.9956 104.568C67.9956 104.696 67.8915 104.8 67.7624 104.8Z" fill="black"/>
<path d="M63.764 114.907H79.4005C81.1677 114.907 82.6009 112.34 82.6009 109.172L82.0701 103.672C82.0305 103.259 81.8307 102.956 81.5965 102.954L60.9664 102.728C60.5418 102.723 60.1973 103.338 60.1973 104.098V108.515C60.1973 112.046 61.7948 114.907 63.765 114.907H63.764Z" fill="white"/>
<path d="M79.4003 115.14H63.7638C61.6677 115.14 59.9629 112.167 59.9629 108.515V104.098C59.9629 103.53 60.1367 103.019 60.4281 102.732C60.5874 102.575 60.7622 102.494 60.9683 102.495L81.5974 102.721C81.9585 102.726 82.2479 103.108 82.3009 103.651L82.8317 109.15C82.8317 112.519 81.3247 115.141 79.3993 115.141L79.4003 115.14ZM60.962 102.96C60.8954 102.96 60.8257 102.995 60.758 103.062C60.5593 103.258 60.4312 103.664 60.4312 104.098V108.515C60.4312 111.912 61.9268 114.675 63.7648 114.675H79.4003C81.0364 114.675 82.3675 112.206 82.3675 109.172L81.8378 103.695C81.8055 103.363 81.6619 103.188 81.5942 103.187L60.9641 102.96H60.962Z" fill="black"/>
<path d="M77.8597 114.304H75.0611C74.9321 114.304 74.828 114.2 74.828 114.071C74.828 113.943 74.9321 113.839 75.0611 113.839H77.8597C77.9888 113.839 78.0929 113.943 78.0929 114.071C78.0929 114.2 77.9888 114.304 77.8597 114.304ZM72.2614 114.304H69.4628C69.3338 114.304 69.2297 114.2 69.2297 114.071C69.2297 113.943 69.3338 113.839 69.4628 113.839H72.2614C72.3905 113.839 72.4946 113.943 72.4946 114.071C72.4946 114.2 72.3905 114.304 72.2614 114.304ZM66.6631 114.304H64.2298C64.0945 114.304 63.9571 114.292 63.8229 114.266C63.6959 114.242 63.6137 114.12 63.6376 113.994C63.6616 113.867 63.7844 113.785 63.9103 113.809C64.0154 113.829 64.1237 113.839 64.2298 113.839H66.6631C66.7922 113.839 66.8963 113.943 66.8963 114.071C66.8963 114.2 66.7922 114.304 66.6631 114.304ZM80.394 113.467C80.3389 113.467 80.2847 113.449 80.24 113.409C80.1432 113.324 80.1338 113.178 80.2192 113.081C80.7208 112.512 81.1142 111.659 81.3276 110.675C81.3546 110.55 81.4785 110.471 81.6055 110.498C81.7314 110.525 81.8115 110.649 81.7834 110.775C81.5493 111.849 81.1298 112.753 80.5689 113.388C80.5231 113.44 80.4585 113.467 80.394 113.467ZM61.8215 112.5C61.7382 112.5 61.6581 112.456 61.6164 112.378C61.1981 111.61 60.9046 110.664 60.7682 109.644C60.7516 109.517 60.8411 109.4 60.968 109.383C61.0961 109.366 61.2126 109.455 61.2303 109.582C61.3594 110.547 61.6352 111.436 62.0265 112.156C62.0879 112.269 62.0463 112.41 61.9328 112.472C61.8975 112.49 61.8589 112.5 61.8215 112.5ZM81.6554 108.184C81.5368 108.184 81.4358 108.094 81.4233 107.974L81.1475 105.195C81.135 105.068 81.2287 104.954 81.3567 104.941C81.4868 104.928 81.5992 105.022 81.6117 105.15L81.8875 107.928C81.9 108.056 81.8063 108.17 81.6783 108.183C81.67 108.183 81.6627 108.184 81.6554 108.184ZM60.9118 107.057C60.7828 107.057 60.6787 106.953 60.6787 106.824V104.299C60.6787 104.236 60.6787 104.144 60.6818 104.027C60.6839 103.899 60.787 103.794 60.9191 103.799C61.0482 103.801 61.1502 103.908 61.1481 104.036C61.146 104.148 61.145 104.238 61.145 104.298V106.823C61.145 106.952 61.0409 107.056 60.9118 107.056V107.057Z" fill="black"/>
<path d="M71.7533 116.205C72.1581 116.205 72.487 115.877 72.487 115.473V113.703C72.487 113.299 72.1581 112.971 71.7533 112.971C71.3484 112.971 71.0195 113.299 71.0195 113.703V115.473C71.0195 115.877 71.3484 116.205 71.7533 116.205Z" fill="white"/>
<path d="M71.7535 116.438C71.2206 116.438 70.7866 116.005 70.7866 115.473V113.703C70.7866 113.171 71.2206 112.738 71.7535 112.738C72.2864 112.738 72.7204 113.171 72.7204 113.703V115.473C72.7204 116.005 72.2864 116.438 71.7535 116.438ZM71.7535 113.203C71.4777 113.203 71.2529 113.428 71.2529 113.703V115.473C71.2529 115.748 71.4777 115.972 71.7535 115.972C72.0293 115.972 72.2541 115.748 72.2541 115.473V113.703C72.2541 113.428 72.0293 113.203 71.7535 113.203Z" fill="black"/>
<path d="M54.1168 55.7395C54.0564 56.5472 55.705 60.3005 64.8451 57.4329C70.0957 55.7852 71.2916 54.2818 74.3119 53.8146C75.0675 53.6972 79.1255 52.8345 83.9515 52.7971C93.946 52.7192 96.4085 45.8564 96.2316 44.6665C96.1441 44.0789 89.2719 44.7569 86.0518 46.0962C85.0433 46.5157 80.8073 47.1583 74.7959 48.7957C70.9408 49.8453 67.5011 50.9002 64.2955 51.9727C60.4395 53.2622 54.1355 55.4976 54.1168 55.7405V55.7395Z" fill="black"/>
<path d="M79.7522 46.7007C79.314 45.0613 78.4419 43.2496 77.6613 42.2965C75.3747 39.5067 69.1696 41.4327 67.4909 44.3512C66.779 45.5898 67.3806 48.1481 67.7042 49.9276C69.9513 50.2391 74.5962 48.6527 79.7522 46.6997V46.7007Z" fill="white"/>
<path d="M95.9478 44.6897C95.1079 43.3504 80.0802 46.272 80.0802 46.272C74.7806 48.1284 69.5653 49.9557 67.9667 50.3399C64.402 51.1954 54.8738 52.5503 54.2524 55.7959L54.5491 56.0243C61.4598 55.7284 64.9172 61.988 74.2675 58.8089C79.7898 56.9317 81.3884 54.9258 87.045 49.0649C90.4254 45.5618 94.0067 44.3917 95.9488 44.6887L95.9478 44.6897Z" fill="white"/>
<path d="M69.1655 59.9083C66.1108 59.9083 63.692 58.9271 61.3222 57.9657C59.0242 57.0344 56.8542 56.155 54.2429 56.2661C54.1742 56.2692 54.1076 56.2411 54.0608 56.1913C53.991 56.1166 53.9983 56.0366 54.0025 55.9847L54.0202 55.7771C54.2616 52.8398 60.96 51.3967 65.3927 50.4404C66.193 50.2681 66.8841 50.1186 67.4294 49.9836C69.1249 49.5621 71.6612 48.6837 74.1143 47.8334C76.4155 47.036 78.5896 46.2833 80.1331 45.8742C83.2231 45.055 95.142 42.964 96.1464 44.566C96.1943 44.6428 96.1932 44.7415 96.1433 44.8173C96.0933 44.8931 96.0038 44.9336 95.9132 44.919C93.9587 44.619 90.0475 46.6539 86.6108 49.7562C84.6937 51.487 83.4105 52.8097 82.3801 53.8729C80.1716 56.1508 79.0621 57.2939 75.281 58.7039C72.9497 59.5729 70.9493 59.9083 69.1655 59.9083ZM54.6977 55.7905C57.1976 55.7905 59.2896 56.6388 61.4971 57.5348C65.1679 59.0237 68.9625 60.5624 75.1166 58.2678C78.7988 56.8952 79.8157 55.8466 82.0429 53.549C83.0785 52.4806 84.3669 51.1516 86.2965 49.4105C89.2617 46.7339 92.6078 44.837 94.8371 44.485C92.0634 44.1538 83.9225 45.3499 80.2517 46.3227C78.7249 46.7276 76.5591 47.4773 74.2663 48.2715C71.8038 49.125 69.257 50.0064 67.5408 50.4332C66.9882 50.5713 66.294 50.7208 65.4895 50.8942C61.4638 51.7621 54.7341 53.2126 54.4854 55.7916C54.5562 55.7905 54.6259 55.7895 54.6956 55.7895L54.6977 55.7905Z" fill="black"/>
<path d="M68.2016 50.1922C68.0142 50.1922 67.8373 50.1808 67.6708 50.158C67.5708 50.1445 67.4917 50.0676 67.473 49.969C67.4376 49.7748 67.3991 49.5713 67.3596 49.3616C67.0255 47.6018 66.6092 45.4132 67.2867 44.2347C68.3108 42.4531 71.0491 40.9466 73.6552 40.7327C75.4817 40.5822 76.969 41.0847 77.8401 42.1489C78.4667 42.913 79.3222 44.2306 79.8405 46.1711C79.8717 46.2863 79.8093 46.4057 79.6979 46.4483C78.6977 46.8272 77.7225 47.2093 76.7806 47.5789C73.0963 49.0232 70.1166 50.1922 68.2016 50.1922ZM67.9018 49.7146C69.6899 49.8589 72.9048 48.5985 76.611 47.146C77.4925 46.8003 78.4021 46.4441 79.3347 46.0891C78.9392 44.7134 78.2845 43.4249 77.48 42.4438C76.7078 41.5021 75.3631 41.0598 73.6937 41.1968C71.2271 41.4003 68.647 42.8061 67.6916 44.4673C67.1004 45.4952 67.498 47.5914 67.8185 49.2754C67.8466 49.426 67.8748 49.5724 67.9018 49.7157V49.7146Z" fill="black"/>
<path d="M79.4692 44.834C79.6514 45.296 79.9116 45.9937 80.0229 46.4578C74.4964 48.5997 69.3457 50.3959 67.5941 50.4706C67.413 49.8882 67.4119 49.2767 67.2329 48.8198C70.6841 48.2332 74.7036 46.5855 79.4692 44.834Z" fill="black"/>
<path d="M68.667 57.6688C66.5636 57.6688 65.1377 57.1331 63.8555 56.5423C63.5329 56.3938 63.1811 56.2173 62.8085 56.0305C60.8643 55.0555 58.201 53.7193 55.5512 54.3381C55.4253 54.3672 55.3004 54.2893 55.2712 54.1647C55.2421 54.0401 55.3202 53.9145 55.445 53.8854C58.2593 53.2282 61.01 54.6081 63.0177 55.6152C63.3872 55.8 63.7348 55.9754 64.0512 56.1208C66.0848 57.0573 68.4994 57.8505 73.6273 56.4146C77.6322 55.2933 79.2079 53.6425 81.3883 51.3594C82.0284 50.6897 82.6893 49.9961 83.4803 49.2444C86.9752 45.921 91.8127 44.0573 91.8605 44.0397C91.9802 43.994 92.1155 44.0542 92.1613 44.1747C92.2071 44.2951 92.1468 44.429 92.0271 44.4747C91.9792 44.4924 87.2281 46.3238 83.8019 49.5819C83.0192 50.3263 82.3614 51.0147 81.7255 51.6812C79.5774 53.9311 77.882 55.7076 73.7532 56.8642C71.6769 57.4456 70.0304 57.6709 68.667 57.6709V57.6688Z" fill="black"/>
<path d="M69.5931 55.3287C66.4562 55.3287 64.4527 54.3247 62.6771 53.436C61.7092 52.9511 60.7954 52.4943 59.8327 52.2908C59.7068 52.2638 59.6256 52.1402 59.6527 52.0146C59.6797 51.889 59.8025 51.808 59.9295 51.835C60.9515 52.0509 61.8914 52.5213 62.8863 53.0196C64.6723 53.9136 66.6987 54.9259 69.9011 54.8594C73.8862 54.7743 76.3102 53.2158 79.93 49.9713C83.9536 46.3644 86.0841 44.7832 86.1049 44.7676C86.2079 44.6908 86.3547 44.7126 86.4306 44.8164C86.5076 44.9192 86.4858 45.0656 86.3817 45.1424C86.3609 45.158 84.2461 46.7289 80.2412 50.3181C76.534 53.6405 74.0423 55.2373 69.9105 55.3245C69.8033 55.3266 69.6971 55.3277 69.592 55.3277L69.5931 55.3287Z" fill="black"/>
<path d="M174.283 0.442158C163.964 -4.47812 153.645 -4.47812 143.326 0.442158C141.896 1.12429 140.982 2.56331 140.982 4.14664V28.4095C140.982 31.6074 142.389 34.6442 144.829 36.7145L155.96 46.1605C157.6 47.5518 160.009 47.5518 161.648 46.1605L172.779 36.7145C175.22 34.6432 176.626 31.6074 176.626 28.4095V4.14664C176.626 2.56331 175.712 1.12429 174.282 0.442158H174.283Z" fill="white"/>
<path d="M158.805 47.4419C157.741 47.4419 156.677 47.0733 155.809 46.3372L144.678 36.8911C142.182 34.7721 140.75 31.6802 140.75 28.4086V4.14677C140.75 2.48661 141.722 0.949999 143.227 0.232567C153.563 -4.69601 164.047 -4.69601 174.384 0.232567C175.889 0.949999 176.861 2.48661 176.861 4.14677V28.4097C176.861 31.6812 175.429 34.7731 172.932 36.8922L161.801 46.3382C160.933 47.0743 159.869 47.4429 158.806 47.4429L158.805 47.4419ZM158.805 -2.99743C153.667 -2.99743 148.529 -1.78164 143.427 0.650982C142.084 1.29158 141.216 2.66311 141.216 4.14574V28.4086C141.216 31.5442 142.588 34.5063 144.98 36.5371L156.111 45.9831C157.671 47.3069 159.937 47.3069 161.497 45.9831L172.628 36.5371C175.021 34.5073 176.393 31.5442 176.393 28.4086V4.14677C176.393 2.66415 175.525 1.29262 174.181 0.652021C169.079 -1.7806 163.941 -2.99639 158.804 -2.99639L158.805 -2.99743Z" fill="black"/>
<path d="M158.805 45.6893C158.123 45.6893 157.462 45.4463 156.943 45.0061L145.812 35.5601C143.707 33.7743 142.5 31.1673 142.5 28.4086V4.14677C142.5 3.15524 143.081 2.23743 143.981 1.80863C148.91 -0.541974 153.899 -1.73389 158.806 -1.73389C163.713 -1.73389 168.701 -0.541974 173.63 1.80863C174.53 2.23743 175.111 3.15524 175.111 4.14677V28.4097C175.111 31.1683 173.904 33.7743 171.799 35.5611L160.668 45.0072C160.148 45.4474 159.487 45.6903 158.806 45.6903L158.805 45.6893Z" fill="white"/>
<path d="M158.805 45.9219C158.068 45.9219 157.353 45.6593 156.792 45.1827L145.661 35.7367C143.504 33.9063 142.267 31.2348 142.267 28.4087V4.14685C142.267 3.06707 142.901 2.0662 143.88 1.59899C148.842 -0.766152 153.863 -1.96533 158.806 -1.96533C163.749 -1.96533 168.77 -0.766152 173.732 1.59899C174.712 2.0662 175.345 3.06603 175.345 4.14685V28.4097C175.345 31.2369 174.107 33.9073 171.951 35.7377L160.82 45.1837C160.259 45.6603 159.544 45.923 158.807 45.923L158.805 45.9219ZM158.805 -1.50123C153.932 -1.50123 148.979 -0.317627 144.081 2.01844C143.262 2.40882 142.733 3.24461 142.733 4.14582V28.4087C142.733 31.0988 143.91 33.6405 145.964 35.3826L157.095 44.8287C157.573 45.2336 158.179 45.4568 158.806 45.4568C159.433 45.4568 160.039 45.2336 160.517 44.8287L171.648 35.3826C173.7 33.6405 174.879 31.0988 174.879 28.4087V4.14685C174.879 3.24461 174.35 2.40986 173.531 2.01948C168.633 -0.31555 163.679 -1.5002 158.807 -1.5002L158.805 -1.50123Z" fill="black"/>
<path d="M159.361 27.3911C165.903 27.3911 171.206 22.0598 171.206 15.4834C171.206 8.90695 165.903 3.57568 159.361 3.57568C152.819 3.57568 147.516 8.90695 147.516 15.4834C147.516 22.0598 152.819 27.3911 159.361 27.3911Z" fill="white"/>
<path d="M159.361 27.6238C152.701 27.6238 147.283 22.1782 147.283 15.4835C147.283 8.78889 152.701 3.34326 159.361 3.34326C166.021 3.34326 171.439 8.78889 171.439 15.4835C171.439 22.1782 166.021 27.6238 159.361 27.6238ZM159.361 3.8084C152.959 3.8084 147.749 9.04534 147.749 15.4835C147.749 21.9217 152.959 27.1587 159.361 27.1587C165.764 27.1587 170.973 21.9217 170.973 15.4835C170.973 9.04534 165.764 3.8084 159.361 3.8084Z" fill="black"/>
<path d="M158.633 7.70413C158.604 7.70413 158.574 7.70102 158.544 7.69583C158.305 7.65118 158.079 7.4238 157.926 7.07287C157.815 6.81746 157.823 6.39282 157.83 5.98167C157.834 5.72419 157.841 5.4044 157.802 5.30369C157.771 5.22271 157.695 5.1836 157.575 5.18637C157.542 5.18637 157.507 5.18741 157.469 5.18741C157.171 5.18741 156.973 5.01298 156.894 4.86348C156.827 4.73785 156.826 4.6091 156.894 4.51151C157.318 3.88544 158.43 3.95708 159.439 4.07337C160.734 4.22184 160.803 4.95796 160.772 5.26736C160.71 5.87992 159.692 6.48315 159.381 6.65342C159.323 6.68561 159.269 6.87872 159.233 7.00643C159.177 7.20577 159.12 7.41134 158.979 7.55255C158.881 7.65118 158.761 7.70309 158.635 7.70309L158.633 7.70413ZM157.642 4.7202C157.853 4.7202 158.093 4.75757 158.238 5.13757C158.309 5.32342 158.304 5.63282 158.297 5.99102C158.29 6.31807 158.283 6.72506 158.354 6.88807C158.467 7.14971 158.599 7.23899 158.632 7.24003C158.701 7.17151 158.744 7.01785 158.782 6.88287C158.848 6.64408 158.924 6.37309 159.154 6.24643C159.7 5.94741 160.279 5.48227 160.305 5.22167C160.343 4.84167 160.033 4.61014 159.384 4.53539C158.88 4.47725 157.746 4.34746 157.352 4.69009C157.379 4.7067 157.417 4.72227 157.469 4.72227H157.565C157.59 4.7202 157.616 4.7202 157.642 4.7202Z" fill="black"/>
<path d="M155.708 26.3936C155.523 26.3936 155.322 26.3001 155.182 26.1745C154.872 25.8952 154.387 24.8289 154.208 24.3472C154.046 23.9111 153.964 22.7711 153.887 21.5418C153.869 21.2625 153.856 21.0331 153.842 20.896C153.809 20.543 153.718 20.5088 153.209 20.3156C153.123 20.2835 153.029 20.2471 152.926 20.2066C152.113 19.8817 151.989 19.5318 152.005 18.8216C152.006 18.7697 152.001 18.7032 151.996 18.6264C151.969 18.2485 151.925 17.6141 152.377 17.2082C152.657 16.9559 152.828 16.0401 152.809 15.6581C152.798 15.439 152.925 15.2303 153.131 15.1265C153.435 14.9738 153.946 14.842 154.652 15.0829C154.973 15.1919 155.118 15.3694 155.248 15.5262C155.342 15.6394 155.422 15.737 155.576 15.8148C155.691 15.873 155.846 15.9114 155.996 15.9498C156.322 16.0318 156.868 16.1689 156.743 16.7025C156.671 17.0099 157.184 17.3774 157.937 17.556C158.552 17.7024 158.993 18.1104 159.033 18.5703C159.061 18.8943 158.876 19.1756 158.538 19.321C158.001 19.5525 158.023 19.6543 158.083 19.9253C158.108 20.0384 158.158 20.1651 158.206 20.2866C158.314 20.5638 158.427 20.8493 158.242 21.0487C158.012 21.2968 157.325 21.4536 157.317 21.4556C157.208 21.4806 157.03 21.6342 156.989 21.9582C156.922 22.4638 156.176 23.5903 155.807 24.0097C155.544 24.3098 155.621 24.531 155.931 25.2505L156.007 25.429C156.192 25.8661 156.178 26.1652 155.962 26.3178C155.887 26.3707 155.799 26.3946 155.707 26.3946L155.708 26.3936ZM153.906 15.4151C153.661 15.4151 153.475 15.4753 153.343 15.5418C153.3 15.5625 153.275 15.5989 153.277 15.6352C153.295 16.0152 153.147 17.1428 152.691 17.5518C152.408 17.8062 152.439 18.2609 152.463 18.5922C152.47 18.6856 152.475 18.7676 152.474 18.831C152.461 19.3625 152.485 19.5266 153.101 19.7737C153.201 19.8142 153.293 19.8484 153.376 19.8796C153.901 20.0789 154.247 20.2097 154.308 20.8524C154.32 20.9926 154.336 21.2272 154.353 21.5128C154.406 22.36 154.495 23.7772 154.646 24.1852C154.883 24.8269 155.32 25.671 155.495 25.8288C155.552 25.8796 155.624 25.9118 155.672 25.9243C155.669 25.8744 155.651 25.7779 155.58 25.6107L155.504 25.4342C155.194 24.7137 154.989 24.2371 155.459 23.7035C155.863 23.2425 156.485 22.2312 156.529 21.8979C156.597 21.3705 156.924 21.0684 157.219 21.0019C157.464 20.9469 157.77 20.8306 157.876 20.7559C157.866 20.6873 157.813 20.5503 157.775 20.4558C157.723 20.324 157.665 20.1734 157.632 20.026C157.521 19.5307 157.604 19.2193 158.356 18.8943C158.51 18.8278 158.582 18.7323 158.572 18.6108C158.553 18.3949 158.293 18.1177 157.832 18.0087C156.772 17.7564 156.153 17.1884 156.291 16.5966C156.306 16.5354 156.271 16.499 155.884 16.4014C155.709 16.3578 155.529 16.3122 155.368 16.2301C155.127 16.1076 154.995 15.9488 154.89 15.8211C154.779 15.6861 154.699 15.5885 154.504 15.522C154.276 15.4442 154.077 15.4151 153.907 15.4151H153.906Z" fill="black"/>
<path d="M164.197 23.0982C164.07 23.0982 163.947 23.0391 163.848 22.9259C163.443 22.4597 163.411 20.9293 163.92 20.1745C164.387 19.4799 164.126 18.9494 163.929 18.695C163.865 18.612 163.715 18.4178 163.728 16.9373V16.903C163.728 16.8905 163.729 16.8719 163.732 16.8469C163.745 16.7223 163.742 16.5946 163.639 16.4981C163.535 16.4005 163.236 16.2572 162.41 16.3963C161.741 16.5085 161.239 16.4005 160.917 16.0755C160.564 15.7194 160.458 15.138 160.601 14.3479C160.657 14.0385 160.606 13.7903 160.557 13.5505C160.526 13.3958 160.496 13.2484 160.496 13.0947C160.496 12.6784 160.882 12.2911 161.641 11.9433C161.904 11.8228 162.095 11.6764 162.281 11.5342C162.471 11.3878 162.651 11.2497 162.887 11.1521C163.355 10.959 163.573 11.3317 163.691 11.5321C163.749 11.6318 163.809 11.7346 163.884 11.7979C163.9 11.8104 163.907 11.8135 163.907 11.8135C163.907 11.8104 163.947 11.7917 163.975 11.7792C164.141 11.7024 164.419 11.5726 164.869 11.855C165.176 12.0481 165.478 11.9755 165.563 11.9485C165.669 11.9152 165.732 11.8685 165.755 11.8415C165.734 11.8156 165.692 11.7958 165.592 11.7595C165.421 11.6951 165.161 11.5975 165.01 11.257C164.82 10.8272 165.165 10.5541 165.392 10.3724C165.502 10.2862 165.637 10.1782 165.652 10.1025C165.667 10.0267 165.62 9.90415 165.532 9.78475C165.444 9.66639 165.341 9.58126 165.264 9.5335C165.259 9.56672 165.254 9.60306 165.25 9.63421C165.211 9.90934 165.147 10.3693 164.72 10.5198C164.36 10.6465 164.038 10.47 163.754 10.3143C163.543 10.198 163.344 10.089 163.171 10.1222C162.973 10.1606 162.742 10.4648 162.518 10.7597C162.282 11.0711 162.037 11.393 161.728 11.5685C161.384 11.7637 161.12 11.6349 160.987 11.4501C160.763 11.1386 160.798 10.4897 161.179 10.1513C161.478 9.8865 161.465 9.51792 161.457 9.29781C161.456 9.26355 161.455 9.23344 161.455 9.20852C161.455 9.01437 161.54 8.82645 161.686 8.69459C161.8 8.5918 161.944 8.52328 162.121 8.48694C161.809 8.39038 161.712 7.94186 161.659 7.50994C161.557 6.67934 161.668 6.16022 161.995 5.92453C162.25 5.7418 162.558 5.80098 162.71 5.86951C163.143 6.02109 163.469 6.02109 163.681 5.86951C164.003 5.64005 164.021 5.09186 164.019 4.92885C164.019 4.84787 164.059 4.77311 164.127 4.72951C164.196 4.6859 164.281 4.68175 164.354 4.71705C167.6 6.29623 169.957 9.21268 170.823 12.7209C170.831 12.7531 170.833 12.7863 170.826 12.8196C170.725 13.3543 170.548 13.7706 170.3 14.0572C170.123 14.2607 170.149 14.4496 170.179 14.6687C170.205 14.8566 170.237 15.0913 170.07 15.2792C170.043 15.3093 170.017 15.3498 169.991 15.3892C169.899 15.5263 169.761 15.7339 169.526 15.6872C169.272 15.6363 169.104 15.3716 168.834 14.0011C168.693 13.2785 168.478 12.8808 168.266 12.6649C168.34 12.7853 168.396 12.9192 168.415 13.0625C168.445 13.2837 168.384 13.5007 168.238 13.6907C167.858 14.1869 167.745 14.6054 167.918 14.868C168.173 15.2522 168.213 15.5502 168.074 16.0485C168.019 16.2479 167.874 16.4316 167.719 16.6268C167.418 17.0068 167.233 17.2778 167.397 17.5758C167.852 18.3981 166.872 20.7144 166.148 21.274C165.865 21.4931 165.599 21.8191 165.341 22.1337C165.022 22.5241 164.72 22.8937 164.389 23.0515C164.325 23.0827 164.259 23.0972 164.195 23.0972L164.197 23.0982ZM163.017 15.871C163.442 15.871 163.752 15.9655 163.956 16.1565C164.242 16.4233 164.207 16.7753 164.196 16.8916L164.193 16.9404C164.182 18.1998 164.295 18.4064 164.3 18.4147C164.517 18.695 164.959 19.4623 164.305 20.4341C163.996 20.894 163.938 21.735 164.062 22.2822C164.11 22.4929 164.171 22.5926 164.202 22.6258C164.437 22.5033 164.701 22.1815 164.98 21.8409C165.254 21.5056 165.537 21.1598 165.863 20.9075C166.458 20.4476 167.295 18.3566 166.989 17.8011C166.662 17.2103 167.062 16.7068 167.353 16.3392C167.472 16.1887 167.595 16.034 167.625 15.926C167.733 15.5335 167.694 15.3747 167.529 15.1266C167.359 14.8711 167.178 14.3084 167.866 13.4093C167.938 13.3158 167.965 13.2255 167.952 13.1258C167.915 12.859 167.607 12.5995 167.476 12.4998C167.378 12.4261 167.336 12.3015 167.368 12.1831C167.4 12.0648 167.501 11.9786 167.624 11.964C168.002 11.9215 168.92 12.0253 169.291 13.9118C169.434 14.6386 169.538 14.975 169.602 15.1307C169.641 15.0726 169.681 15.0144 169.721 14.9698C169.745 14.9428 169.729 14.8265 169.716 14.7331C169.681 14.488 169.63 14.1174 169.946 13.754C170.13 13.5411 170.272 13.2068 170.357 12.7843C169.543 9.54595 167.405 6.83612 164.46 5.29432C164.414 5.61306 164.286 6.01071 163.951 6.24951C163.606 6.49557 163.133 6.51426 162.543 6.30557C162.536 6.30246 162.527 6.29934 162.52 6.29623C162.52 6.29623 162.366 6.22978 162.263 6.30453C162.201 6.34918 162.01 6.56617 162.119 7.45388C162.163 7.81208 162.222 7.96158 162.255 8.01973C162.379 7.92317 162.584 7.57224 162.667 7.43207C162.792 7.21716 162.85 7.11956 162.945 7.0718C163.128 6.98044 163.313 6.98563 163.453 7.08634C163.698 7.26076 163.761 7.65945 163.659 8.37792C163.659 8.39557 163.639 8.58453 163.452 8.74235C163.262 8.90535 162.974 8.96869 162.596 8.93235C162.314 8.90535 162.102 8.94273 161.995 9.03929C161.925 9.10262 161.917 9.17945 161.917 9.20852C161.917 9.22929 161.917 9.25421 161.919 9.2812C161.929 9.54388 161.949 10.089 161.485 10.4991C161.293 10.6704 161.268 11.0473 161.362 11.1781C161.374 11.1947 161.392 11.2207 161.493 11.1635C161.719 11.0348 161.934 10.7524 162.142 10.4783C162.432 10.0962 162.706 9.73595 163.08 9.66432C163.418 9.59994 163.715 9.76191 163.976 9.90519C164.238 10.0495 164.409 10.1326 164.562 10.0796C164.71 10.0277 164.747 9.83459 164.785 9.5688C164.815 9.35284 164.861 9.02579 165.17 9.02579C165.421 9.02579 165.697 9.25317 165.858 9.44836C166.064 9.69858 166.151 9.96229 166.106 10.1928C166.057 10.4357 165.858 10.5956 165.68 10.7368C165.427 10.9372 165.399 10.9912 165.434 11.0701C165.505 11.231 165.609 11.2705 165.754 11.3245C165.899 11.3795 166.099 11.4543 166.195 11.6848C166.271 11.8696 166.209 12.0689 166.03 12.2195C165.723 12.478 165.11 12.559 164.617 12.2496C164.383 12.1021 164.293 12.1437 164.17 12.2018C164.05 12.2579 163.827 12.3607 163.581 12.1551C163.444 12.0398 163.36 11.8955 163.285 11.7678C163.154 11.5446 163.146 11.5487 163.063 11.583C162.884 11.6578 162.734 11.772 162.563 11.9038C162.367 12.0544 162.144 12.2246 161.834 12.3669C161.19 12.6617 160.96 12.9358 160.96 13.0947C160.96 13.2016 160.984 13.321 161.012 13.4581C161.064 13.7145 161.128 14.0333 161.057 14.4309C160.944 15.0539 161.009 15.5097 161.246 15.7485C161.455 15.9592 161.819 16.0226 162.329 15.9374C162.584 15.8949 162.812 15.8731 163.015 15.8731L163.017 15.871ZM162.429 8.45787C162.498 8.45787 162.571 8.46202 162.646 8.46929C163.055 8.50874 163.187 8.38934 163.2 8.31978C163.288 7.69787 163.214 7.5141 163.19 7.47153C163.162 7.51306 163.113 7.59612 163.073 7.66464C162.895 7.96989 162.683 8.33016 162.427 8.45683H162.429V8.45787Z" fill="black"/>
<path d="M152.23 16.2677C152.146 16.2677 152.046 16.2459 151.931 16.1857C151.392 15.9033 149.523 13.5299 149.594 12.1511L149.608 11.8572C149.662 10.7214 149.695 10.0361 150.471 8.77882C150.657 8.47773 150.742 8.0427 150.723 7.4862C150.721 7.42079 150.747 7.35746 150.794 7.31074C151.313 6.80822 151.884 6.34205 152.491 5.92467C152.543 5.88937 152.607 5.87587 152.668 5.88833L152.698 5.89456C153.106 5.97451 153.866 6.12298 154.664 5.82396C155.226 5.6132 155.555 5.46265 155.773 5.36194C156.08 5.22074 156.219 5.1574 156.468 5.1927C156.882 5.25188 157.296 5.56959 157.254 5.94959C157.201 6.42199 156.742 6.66494 155.89 6.67325C155.347 6.67844 155.087 7.06779 155.019 7.18615C154.902 7.39483 154.9 7.57341 154.936 7.63363C155.004 7.7468 155.04 7.76964 155.056 7.7738C155.139 7.79248 155.37 7.6762 155.744 7.42806C156.52 6.91309 157.085 7.14565 157.335 7.50074C157.503 7.74057 157.359 8.0562 157.206 8.39052C157.151 8.51095 157.094 8.63658 157.057 8.74664C156.997 8.92729 157 9.09964 157.002 9.25123C157.004 9.40385 157.006 9.53571 156.944 9.65199C156.853 9.82019 156.644 9.90221 156.326 10.0258C156.186 10.0808 156.026 10.1431 155.862 10.2199C155.371 10.4494 155.06 10.6155 154.868 10.9924C154.702 11.3205 154.4 11.5115 154.179 11.6506C154.093 11.7057 153.973 11.7814 153.951 11.8167C153.935 11.8531 153.926 11.9943 153.921 12.0888C153.903 12.3992 153.88 12.7844 153.578 12.9557C153.208 13.1654 152.591 12.9163 152.329 12.6525C152.261 12.5851 152.196 12.5902 152.171 12.5965C152.159 12.5996 152.119 12.611 152.106 12.6442C152.032 12.8529 152.096 13.1634 152.289 13.5434C152.615 14.1798 152.782 14.7311 152.786 15.1796C152.791 15.7465 152.692 16.0611 152.465 16.2002C152.408 16.2345 152.33 16.2657 152.231 16.2657L152.23 16.2677ZM151.191 7.57549C151.2 8.18287 151.094 8.65735 150.869 9.02281C150.156 10.1784 150.127 10.7826 150.075 11.879L150.06 12.1749C149.999 13.3637 151.774 15.5773 152.148 15.7735C152.195 15.7974 152.221 15.8016 152.229 15.8016C152.227 15.7995 152.323 15.7029 152.317 15.1859C152.314 14.8142 152.159 14.32 151.871 13.7562C151.614 13.2526 151.544 12.827 151.664 12.4895C151.726 12.3151 151.876 12.1853 152.066 12.1428C152.276 12.096 152.496 12.1635 152.658 12.3255C152.836 12.5041 153.231 12.6162 153.345 12.5518C153.426 12.5061 153.444 12.2165 153.453 12.0618C153.463 11.8863 153.473 11.7347 153.529 11.6153C153.601 11.4648 153.752 11.3693 153.928 11.2582C154.122 11.1357 154.342 10.9955 154.45 10.7816C154.728 10.2345 155.204 10.0123 155.662 9.79839C155.839 9.71533 156.007 9.64992 156.155 9.59281C156.297 9.53675 156.473 9.46822 156.53 9.42565C156.536 9.38932 156.535 9.31456 156.534 9.2585C156.53 9.08822 156.527 8.85565 156.613 8.60024C156.657 8.46527 156.72 8.32926 156.78 8.1974C156.845 8.05516 156.953 7.81844 156.942 7.7468C156.886 7.67412 156.624 7.4021 156.001 7.81533C155.528 8.12888 155.22 8.28773 154.952 8.22751C154.742 8.17975 154.619 8.01259 154.534 7.87243C154.396 7.63986 154.425 7.28997 154.611 6.95877C154.873 6.49363 155.349 6.21331 155.884 6.20811C156.145 6.20604 156.757 6.17074 156.788 5.89768C156.788 5.84992 156.637 5.68691 156.399 5.65369C156.293 5.63811 156.251 5.65369 155.965 5.78554C155.742 5.88833 155.404 6.04303 154.826 6.26003C153.947 6.58915 153.14 6.45522 152.673 6.36489C152.147 6.73243 151.648 7.13943 151.19 7.57549H151.191Z" fill="black"/>
<path d="M152.414 24.3553L151.116 21.2924C150.785 20.5127 150.02 20.005 149.172 20.005H148.394V16.6421C148.394 15.9309 148.002 15.2778 147.376 14.9404C146.851 14.658 146.215 15.038 146.215 15.6319V25.0904C146.215 25.6915 146.445 26.2698 146.86 26.7069L150.172 30.2058C150.428 30.4768 150.571 30.835 150.571 31.2067V35.7677C151.259 36.3626 151.971 36.9721 152.706 37.6002C153.692 38.4443 154.789 39.3819 155.933 40.3786V29.7345C155.933 28.4865 155.428 27.2904 154.534 26.4193L152.415 24.3532L152.414 24.3553Z" fill="white"/>
<path d="M155.933 40.6135C155.804 40.6135 155.7 40.5097 155.7 40.3809V29.7368C155.7 28.5584 155.216 27.4111 154.371 26.5878L152.252 24.5216C152.23 24.4998 152.212 24.4739 152.2 24.4458L150.902 21.383C150.608 20.6874 149.928 20.2378 149.172 20.2378H148.394C148.265 20.2378 148.161 20.134 148.161 20.0052V16.6423C148.161 16.0163 147.817 15.4421 147.266 15.1452C147.093 15.0517 146.889 15.0569 146.719 15.1576C146.55 15.2584 146.449 15.4359 146.449 15.6332V25.0916C146.449 25.6357 146.655 26.1527 147.029 26.5483L150.342 30.0472C150.641 30.3618 150.805 30.775 150.805 31.208V35.769C150.805 35.8978 150.701 36.0016 150.572 36.0016C150.443 36.0016 150.339 35.8978 150.339 35.769V31.208C150.339 30.8934 150.22 30.5944 150.004 30.3659L146.691 26.867C146.235 26.3853 145.983 25.754 145.983 25.0906V15.6321C145.983 15.2698 146.17 14.9427 146.481 14.7569C146.792 14.571 147.169 14.5638 147.487 14.7351C148.191 15.113 148.628 15.8439 148.628 16.6413V19.7716H149.173C150.117 19.7716 150.966 20.3323 151.333 21.2003L152.612 24.2195L154.698 26.2524C155.631 27.1619 156.167 28.4317 156.167 29.7347V40.3788C156.167 40.5076 156.063 40.6114 155.934 40.6114L155.933 40.6135Z" fill="black"/>
<path d="M150.069 25.341C149.979 25.341 149.894 25.288 149.855 25.2008L148.012 20.9346C147.961 20.8163 148.015 20.6792 148.134 20.6284C148.252 20.5775 148.389 20.6325 148.441 20.7498L150.284 25.016C150.335 25.1344 150.281 25.2714 150.162 25.3223C150.132 25.3348 150.101 25.341 150.069 25.341Z" fill="black"/>
<path d="M165.196 24.3553L166.493 21.2924C166.824 20.5127 167.589 20.005 168.438 20.005H169.216V16.6421C169.216 15.9309 169.607 15.2778 170.234 14.9404C170.759 14.658 171.394 15.038 171.394 15.6319V25.0904C171.394 25.6915 171.164 26.2698 170.75 26.7069L167.437 30.2058C167.181 30.4768 167.039 30.835 167.039 31.2067V35.7677C166.351 36.3626 165.639 36.9721 164.904 37.6002C163.918 38.4443 162.821 39.3819 161.677 40.3786V29.7345C161.677 28.4865 162.182 27.2904 163.076 26.4193L165.195 24.3532L165.196 24.3553Z" fill="white"/>
<path d="M161.677 40.6135C161.548 40.6135 161.444 40.5097 161.444 40.3809V29.7368C161.444 28.4338 161.979 27.165 162.912 26.2545L164.998 24.2216L166.277 21.2023C166.645 20.3344 167.493 19.7737 168.437 19.7737H168.982V16.6434C168.982 15.846 169.419 15.1151 170.123 14.7371C170.442 14.5658 170.818 14.5741 171.129 14.7589C171.44 14.9448 171.627 15.2718 171.627 15.6342V25.0927C171.627 25.7561 171.375 26.3863 170.919 26.8691L167.606 30.368C167.39 30.5964 167.271 30.8954 167.271 31.21V35.7711C167.271 35.8998 167.167 36.0036 167.038 36.0036C166.909 36.0036 166.805 35.8998 166.805 35.7711V31.21C166.805 30.776 166.969 30.3639 167.268 30.0493L170.581 26.5504C170.955 26.1548 171.162 25.6377 171.162 25.0937V15.6352C171.162 15.439 171.061 15.2604 170.891 15.1597C170.722 15.059 170.517 15.0548 170.345 15.1472C169.792 15.4442 169.449 16.0173 169.449 16.6444V20.0073C169.449 20.136 169.345 20.2399 169.216 20.2399H168.438C167.681 20.2399 167.003 20.6894 166.708 21.3851L165.41 24.4479C165.399 24.4759 165.381 24.5019 165.358 24.5237L163.239 26.5898C162.395 27.4132 161.911 28.5604 161.911 29.7388V40.383C161.911 40.5117 161.807 40.6156 161.678 40.6156L161.677 40.6135Z" fill="black"/>
<path d="M108.975 145.779C108.958 145.779 108.941 145.777 108.925 145.774C108.799 145.747 108.719 145.623 108.747 145.497L110.273 138.514C110.733 136.406 112.392 134.697 114.499 134.159C114.624 134.127 114.751 134.203 114.783 134.327C114.816 134.452 114.74 134.579 114.615 134.611C112.677 135.105 111.152 136.676 110.728 138.613L109.203 145.597C109.179 145.706 109.082 145.779 108.975 145.779Z" fill="black"/>
<path d="M120.335 136.657C120.264 136.657 120.195 136.625 120.149 136.565C120.037 136.419 119.917 136.274 119.789 136.137C119.414 135.734 118.986 135.396 118.518 135.13C118.405 135.067 118.367 134.925 118.43 134.813C118.494 134.7 118.637 134.662 118.749 134.725C119.259 135.015 119.723 135.383 120.13 135.82C120.268 135.968 120.4 136.125 120.52 136.285C120.598 136.388 120.578 136.533 120.475 136.611C120.433 136.642 120.383 136.657 120.334 136.657H120.335Z" fill="black"/>
<path d="M106.777 174.536L98.3291 171.218C98.2625 171.193 98.2251 171.123 98.2386 171.055L103.836 143.903L106.37 143.637C106.411 143.606 106.795 174.543 106.778 174.537L106.777 174.536Z" fill="white"/>
<path d="M106.777 174.769C106.749 174.769 106.72 174.764 106.692 174.752L98.2436 171.434C98.0729 171.37 97.973 171.19 98.0094 171.008L103.607 143.854C103.627 143.754 103.71 143.679 103.811 143.669L106.345 143.403C106.411 143.396 106.476 143.418 106.525 143.461C106.585 143.515 106.639 145.185 106.685 148.471C106.727 151.368 106.778 155.227 106.827 159.085C106.959 169.411 107.008 174.601 106.975 174.656C106.931 174.726 106.855 174.767 106.776 174.767L106.777 174.769ZM98.4819 171.028L106.542 174.194C106.509 171.046 106.216 146.584 106.146 143.893L104.029 144.115L98.4819 171.028Z" fill="black"/>
<path d="M128.483 143.981L106.492 143.679L106.922 174.311L136.592 174.102L128.483 143.981Z" fill="white"/>
<path d="M106.752 174.519C106.725 174.492 106.708 174.456 106.708 174.417L106.278 143.786C106.278 143.746 106.293 143.709 106.321 143.682C106.349 143.654 106.387 143.639 106.425 143.639L128.173 143.987C128.374 143.99 128.549 144.127 128.6 144.321L136.41 174.064L106.856 174.559H106.854C106.816 174.559 106.78 174.545 106.753 174.519H106.752Z" fill="white"/>
<path d="M106.858 174.792C106.753 174.792 106.659 174.755 106.588 174.686C106.515 174.616 106.475 174.522 106.474 174.421L106.044 143.79C106.043 143.688 106.082 143.589 106.154 143.518C106.227 143.445 106.328 143.406 106.429 143.408L128.175 143.756C128.48 143.761 128.746 143.969 128.823 144.263L136.633 174.006C136.651 174.076 136.636 174.148 136.594 174.205C136.55 174.263 136.483 174.297 136.412 174.298L106.858 174.793V174.792ZM106.511 143.874L106.939 174.326L136.108 173.837L128.373 144.381C128.349 144.287 128.264 144.222 128.168 144.22L106.511 143.874Z" fill="black"/>
<path d="M106.858 174.792C106.753 174.792 106.659 174.754 106.588 174.685C106.516 174.615 106.475 174.521 106.474 174.42L106.044 143.788C106.043 143.687 106.082 143.588 106.154 143.516C106.227 143.444 106.328 143.404 106.429 143.406L116.715 143.57C116.844 143.572 116.946 143.678 116.945 143.807C116.943 143.936 116.834 144.044 116.708 144.036L106.511 143.873L106.939 174.324L132.188 173.912C132.312 173.905 132.423 174.013 132.425 174.141C132.427 174.269 132.324 174.375 132.196 174.377L106.859 174.792H106.858ZM125.821 144.182C125.821 144.182 125.818 144.182 125.815 144.182L119.125 144.037C118.996 144.033 118.894 143.928 118.897 143.799C118.901 143.67 118.997 143.565 119.136 143.571L125.826 143.717C125.955 143.72 126.057 143.826 126.054 143.955C126.051 144.081 125.947 144.182 125.821 144.182Z" fill="black"/>
<path d="M124.61 147.142C123.938 147.142 123.391 146.596 123.391 145.924C123.391 145.252 123.938 144.706 124.61 144.706C125.283 144.706 125.83 145.252 125.83 145.924C125.83 146.596 125.283 147.142 124.61 147.142ZM124.61 145.171C124.195 145.171 123.857 145.509 123.857 145.924C123.857 146.339 124.195 146.677 124.61 146.677C125.026 146.677 125.364 146.339 125.364 145.924C125.364 145.509 125.026 145.171 124.61 145.171Z" fill="black"/>
<path d="M112.79 147.142C112.117 147.142 111.57 146.596 111.57 145.924C111.57 145.252 112.117 144.706 112.79 144.706C113.462 144.706 114.009 145.252 114.009 145.924C114.009 146.596 113.462 147.142 112.79 147.142ZM112.79 145.171C112.374 145.171 112.036 145.509 112.036 145.924C112.036 146.339 112.374 146.677 112.79 146.677C113.205 146.677 113.543 146.339 113.543 145.924C113.543 145.509 113.205 145.171 112.79 145.171Z" fill="black"/>
<path d="M112.76 146.155C112.64 146.155 112.537 146.062 112.528 145.939L112.105 140.158C111.99 138.545 112.521 137.005 113.601 135.821C114.683 134.635 116.154 133.982 117.744 133.982C120.383 133.982 122.706 135.888 123.268 138.514L124.835 145.847C124.862 145.973 124.782 146.096 124.656 146.123C124.529 146.149 124.407 146.07 124.379 145.945L122.812 138.612C122.296 136.199 120.164 134.448 117.745 134.448C116.289 134.448 114.94 135.047 113.948 136.135C112.954 137.224 112.466 138.642 112.571 140.126L112.995 145.906C113.004 146.035 112.907 146.146 112.779 146.155C112.774 146.155 112.768 146.155 112.761 146.155H112.76Z" fill="black"/>
<path d="M99.5914 170.801C99.5113 170.801 99.4332 170.76 99.3895 170.686C99.325 170.575 99.3625 170.433 99.4728 170.367L103.261 168.16L104.517 146.18C104.525 146.051 104.633 145.952 104.764 145.961C104.893 145.968 104.991 146.078 104.984 146.206L103.724 168.237C103.714 168.364 103.645 168.476 103.538 168.538L99.708 170.769C99.6705 170.791 99.631 170.801 99.5904 170.801H99.5914Z" fill="black"/>
<path d="M120.076 165.323C120.038 165.323 120.001 165.313 119.966 165.296C119.333 164.962 115.05 162.074 114.674 159.107C114.621 158.688 114.433 156.566 115.925 155.915C116.939 155.473 118.609 155.612 120.089 157.381C121.158 155.87 122.774 155.463 123.817 155.868C125.106 156.369 125.322 158.12 125.153 159.175C124.62 162.501 120.631 165.169 120.141 165.313C120.119 165.319 120.098 165.323 120.076 165.323ZM116.99 156.167C116.66 156.167 116.362 156.233 116.112 156.342C114.924 156.86 115.091 158.687 115.137 159.048C115.468 161.662 119.264 164.342 120.092 164.831C120.802 164.486 124.224 162.023 124.693 159.101C124.832 158.23 124.672 156.699 123.649 156.302C122.909 156.015 121.348 156.195 120.308 157.899C120.267 157.964 120.197 158.006 120.12 158.01C120.042 158.013 119.97 157.98 119.923 157.918C118.936 156.618 117.856 156.166 116.991 156.166L116.99 156.167Z" fill="black"/>
<path d="M113.584 32.9283C113.455 32.9283 113.351 32.8245 113.351 32.6957V30.8913C113.351 30.7625 113.455 30.6587 113.584 30.6587C113.713 30.6587 113.817 30.7625 113.817 30.8913V32.6957C113.817 32.8245 113.713 32.9283 113.584 32.9283Z" fill="black"/>
<path d="M113.584 37.1324C113.455 37.1324 113.351 37.0286 113.351 36.8998V35.0954C113.351 34.9666 113.455 34.8628 113.584 34.8628C113.713 34.8628 113.817 34.9666 113.817 35.0954V36.8998C113.817 37.0286 113.713 37.1324 113.584 37.1324Z" fill="black"/>
<path d="M112.383 34.1287H110.576C110.447 34.1287 110.343 34.0249 110.343 33.8961C110.343 33.7674 110.447 33.6636 110.576 33.6636H112.383C112.512 33.6636 112.616 33.7674 112.616 33.8961C112.616 34.0249 112.512 34.1287 112.383 34.1287Z" fill="black"/>
<path d="M116.592 34.1287H114.785C114.656 34.1287 114.552 34.0249 114.552 33.8961C114.552 33.7674 114.656 33.6636 114.785 33.6636H116.592C116.721 33.6636 116.825 33.7674 116.825 33.8961C116.825 34.0249 116.721 34.1287 116.592 34.1287Z" fill="black"/>
<path d="M124.914 23.8599C124.854 23.8599 124.794 23.837 124.749 23.7913C124.658 23.7 124.658 23.5536 124.749 23.4622L126.027 22.1862C126.119 22.0948 126.267 22.0948 126.357 22.1862C126.449 22.2776 126.449 22.424 126.357 22.5153L125.079 23.7913C125.033 23.837 124.974 23.8599 124.914 23.8599Z" fill="black"/>
<path d="M121.938 26.8325C121.879 26.8325 121.819 26.8097 121.774 26.764C121.682 26.6737 121.682 26.5262 121.774 26.4349L123.052 25.1589C123.143 25.0675 123.291 25.0675 123.382 25.1589C123.473 25.2492 123.473 25.3966 123.382 25.488L122.104 26.764C122.058 26.8097 121.999 26.8325 121.938 26.8325Z" fill="black"/>
<path d="M123.215 23.8601C123.156 23.8601 123.095 23.8372 123.05 23.7915L121.772 22.5155C121.681 22.4242 121.681 22.2778 121.772 22.1864C121.862 22.0961 122.01 22.0961 122.101 22.1864L123.38 23.4624C123.47 23.5538 123.47 23.7002 123.38 23.7915C123.334 23.8372 123.274 23.8601 123.215 23.8601Z" fill="black"/>
<path d="M126.192 26.8322C126.132 26.8322 126.072 26.8094 126.026 26.7637L124.748 25.4877C124.658 25.3963 124.658 25.2499 124.748 25.1586C124.839 25.0682 124.986 25.0682 125.078 25.1586L126.356 26.4346C126.447 26.5259 126.447 26.6723 126.356 26.7637C126.31 26.8094 126.251 26.8322 126.192 26.8322Z" fill="black"/>
<path d="M104.887 22.6154C103.121 22.6154 101.685 21.1805 101.685 19.4175C101.685 17.6546 103.122 16.2197 104.887 16.2197C106.652 16.2197 108.089 17.6546 108.089 19.4175C108.089 21.1805 106.652 22.6154 104.887 22.6154ZM104.887 16.6849C103.378 16.6849 102.151 17.911 102.151 19.4175C102.151 20.924 103.378 22.1502 104.887 22.1502C106.396 22.1502 107.623 20.924 107.623 19.4175C107.623 17.911 106.396 16.6849 104.887 16.6849Z" fill="black"/>
<path d="M130.539 14.1296C130.034 14.1296 129.537 13.9977 129.087 13.7392C127.697 12.9376 127.219 11.156 128.021 9.76786C128.41 9.09507 129.038 8.61436 129.789 8.41294C130.541 8.21152 131.326 8.31535 131.999 8.70365C133.39 9.50518 133.867 11.2868 133.065 12.675C132.676 13.3477 132.048 13.8285 131.297 14.0299C131.046 14.0974 130.791 14.1306 130.538 14.1306L130.539 14.1296ZM130.547 8.77737C130.335 8.77737 130.121 8.8054 129.91 8.86147C129.28 9.0307 128.752 9.43458 128.425 9.99939C127.751 11.1653 128.152 12.6625 129.32 13.3353C129.886 13.6613 130.545 13.7485 131.176 13.5793C131.807 13.41 132.334 13.0062 132.661 12.4414C133.335 11.2754 132.934 9.77824 131.766 9.10545C131.389 8.88846 130.971 8.77737 130.547 8.77737Z" fill="black"/>
</g>
<defs>
<clipPath id="clip0_59_2870">
<rect width="191" height="190" fill="white" transform="translate(0 55.2578) rotate(-29.2262)"/>
</clipPath>
</defs>
</svg>
