<svg width="156" height="160" viewBox="0 0 156 160" fill="none" xmlns="http://www.w3.org/2000/svg">
<path d="M9.64989 164.617H251.75L153.007 10.5356H108.392L9.64989 164.617Z" fill="white"/>
<path d="M9.65002 164.976H251.75C251.879 164.976 252 164.905 252.062 164.789C252.125 164.674 252.12 164.534 252.049 164.425L153.307 10.3431C153.241 10.2402 153.127 10.1792 153.007 10.1792H108.393C108.271 10.1792 108.159 10.2419 108.093 10.3431L9.35022 164.425C9.27968 164.536 9.27487 164.675 9.3374 164.789C9.39993 164.904 9.52016 164.976 9.65002 164.976ZM251.096 164.259H10.3041L108.588 10.8941H152.811L251.096 164.261V164.259Z" fill="black"/>
<path d="M152.537 -36.6602C153.094 -36.453 153.674 -36.2312 154.275 -35.9967V7.14098H107.125V-47C123.003 -45.4191 138.66 -41.8526 152.536 -36.6602H152.537Z" fill="black"/>
<path d="M86.329 4.15625H175.072V10.1262H86.329V4.15625Z" fill="white"/>
<path d="M86.3289 10.4843H175.072C175.269 10.4843 175.43 10.3237 175.43 10.1261V4.15612C175.43 3.95851 175.269 3.79785 175.072 3.79785H86.3289C86.1317 3.79785 85.9714 3.95851 85.9714 4.15612V10.1261C85.9714 10.3237 86.1317 10.4843 86.3289 10.4843ZM174.715 9.76782H86.6864V4.51277H174.715V9.76782Z" fill="black"/>
<path d="M86 94.0005H253V227H86V94.0005Z" fill="white"/>
<path d="M86.2017 227H252.798C252.91 227 253 226.84 253 226.642V93.359C253 93.1612 252.91 93.0005 252.798 93.0005H86.2017C86.0905 93.0005 86 93.1612 86 93.359V226.642C86 226.84 86.0905 227 86.2017 227ZM252.597 226.285H86.4025V93.7174H252.597V226.285Z" fill="black"/>
<path d="M86.2009 93.8198H252.798V105.482H86.2009V93.8198Z" fill="white"/>
<path d="M86.2017 105.842H252.798C252.91 105.842 253 105.681 253 105.484V93.8216C253 93.624 252.91 93.4634 252.798 93.4634H86.2017C86.0905 93.4634 86 93.624 86 93.8216V105.484C86 105.681 86.0905 105.842 86.2017 105.842ZM252.597 105.125H86.4025V94.1783H252.597V105.125Z" fill="black"/>
<path d="M86.284 105.483H169.337V227.028H86.284V105.483Z" fill="white"/>
<path d="M86.2855 227.384H169.337C169.534 227.384 169.695 227.223 169.695 227.026V105.483C169.695 105.286 169.534 105.125 169.337 105.125H86.2839C86.0867 105.125 85.9264 105.286 85.9264 105.483V227.027C85.9264 227.225 86.0867 227.386 86.2839 227.386L86.2855 227.384ZM168.981 226.667H86.643V105.842H168.98V226.669L168.981 226.667Z" fill="black"/>
<path d="M94.8534 193.503H162.439C162.636 193.503 162.796 193.343 162.796 193.145V140.684C162.796 140.487 162.636 140.326 162.439 140.326H94.8534C94.6562 140.326 94.4959 140.487 94.4959 140.684V193.145C94.4959 193.343 94.6562 193.503 94.8534 193.503ZM162.081 192.787H95.2109V141.041H162.081V192.787Z" fill="black"/>
<path d="M130.7 187.792H138.639L114.108 154.465H106.17L130.7 187.792Z" fill="black"/>
<path d="M136.511 176.408H144.808L122.405 145.845H114.108L136.511 176.408Z" fill="black"/>
<path d="M94.8546 130.093H162.438V135.214H94.8546V130.093Z" fill="black"/>
<path d="M94.8546 111.362H162.438V116.484H94.8546V111.362Z" fill="black"/>
<path d="M196.288 85.2339L159.76 87.0252C159.76 87.0252 147.704 136.803 163.526 175.265C173.052 198.425 179.351 209.548 181.57 213.19C182.09 214.043 183.072 214.491 184.055 214.329L191.06 213.167C192.429 212.941 193.335 211.62 193.061 210.255C190.499 197.499 184.95 159.948 180.727 141.006C180.722 140.986 180.749 140.98 180.756 140.997C181.865 144.301 192.879 174.258 230.901 186.841C231.626 187.08 232.423 186.799 232.848 186.161L236.923 180.04C237.326 179.436 237.306 178.642 236.872 178.062C231.163 170.43 194.156 124.779 196.288 85.2339Z" fill="black"/>
<path d="M108.386 62.498L114.185 64.7649L111.74 71.0835L105.94 68.8166L108.386 62.498Z" fill="black"/>
<path d="M94.7443 63.9004L123.299 75.0611L122.155 78.0188L93.5996 66.8581L94.7443 63.9004Z" fill="white"/>
<path d="M122.155 78.3772C122.204 78.3772 122.252 78.3675 122.299 78.3466C122.385 78.3081 122.454 78.2374 122.488 78.149L123.633 75.1914C123.703 75.0066 123.613 74.801 123.429 74.7287L94.8741 63.5679C94.7859 63.5342 94.6881 63.5358 94.5999 63.5744C94.5133 63.6129 94.4444 63.6836 94.4107 63.772L93.266 66.7296C93.1955 66.9144 93.2853 67.12 93.4697 67.1923L122.025 78.3531C122.066 78.3691 122.111 78.3772 122.155 78.3772ZM122.838 75.2653L121.951 77.5546L94.0612 66.6541L94.9478 64.3648L122.838 75.2653Z" fill="black"/>
<path d="M104.729 62.9561C102.983 62.7215 103.698 61.6917 104.267 61.2483C105.816 60.0386 110.565 57.8794 114.247 59.3333C116.301 60.143 120.136 61.1776 122.595 61.809C123.957 62.1576 124.931 63.3561 125.005 64.7667L125.013 64.9161C125.079 66.1676 124.082 67.2135 122.834 67.2038C120.8 67.1894 117.928 67.3966 116.404 68.5357C115.374 69.3052 113.699 69.8948 112.562 69.6715C111.99 69.559 111.759 68.8634 112.154 68.4312L112.931 67.583C113.882 66.5451 113.396 64.9563 112.099 64.4357C112.099 64.4357 108.955 63.1923 105.566 63.0461L104.731 62.9529L104.729 62.9561Z" fill="white"/>
<path d="M113.084 70.0779C114.292 70.0779 115.734 69.4835 116.617 68.8232C117.733 67.9894 119.942 67.5396 122.831 67.5621C123.524 67.5621 124.188 67.2889 124.673 66.7813C125.159 66.272 125.406 65.6021 125.371 64.8968L125.363 64.7458C125.281 63.1713 124.205 61.8507 122.685 61.4603C120.478 60.8932 116.463 59.82 114.379 58.9991C110.496 57.4664 105.659 59.7076 104.048 60.9655C103.588 61.3254 103.15 61.907 103.301 62.4628C103.424 62.9191 103.889 63.2051 104.681 63.3111C104.684 63.3111 104.686 63.3111 104.689 63.3111L105.524 63.4043C108.837 63.5473 111.936 64.7586 111.966 64.7699C112.508 64.9867 112.907 65.4414 113.031 65.986C113.143 66.4808 113.013 66.9612 112.665 67.3404L111.888 68.1886C111.613 68.4874 111.527 68.8955 111.652 69.2795C111.779 69.665 112.091 69.943 112.49 70.0217C112.678 70.0586 112.877 70.0763 113.082 70.0763L113.084 70.0779ZM122.644 66.8455C120.511 66.8455 117.731 67.0978 116.191 68.2497C115.269 68.9389 113.685 69.5285 112.631 69.3212C112.49 69.2939 112.38 69.1959 112.335 69.0594C112.314 68.9935 112.279 68.8264 112.418 68.6754L113.196 67.8271C113.699 67.2777 113.895 66.5499 113.731 65.8286C113.555 65.0542 112.995 64.4116 112.234 64.1064C112.102 64.0533 108.994 62.8388 105.582 62.6926L104.774 62.6026C104.242 62.5303 104.021 62.3825 103.992 62.2781C103.948 62.1174 104.176 61.7768 104.489 61.5326C105.776 60.5285 110.448 58.2199 114.119 59.6674C116.133 60.4627 119.793 61.4603 122.509 62.156C123.724 62.4677 124.585 63.5248 124.651 64.7859L124.659 64.9369C124.685 65.443 124.508 65.9234 124.159 66.288C123.811 66.6527 123.333 66.8439 122.838 66.8487C122.773 66.8487 122.709 66.8487 122.645 66.8487L122.644 66.8455Z" fill="black"/>
<path d="M126.424 60.027C132.204 59.9627 139.144 62.0095 145.255 59.7185C150.945 57.5866 155.933 51.2986 158.208 46.4741C159.242 44.2811 160.121 42.6729 160.863 41.4969C161.284 40.7483 161.81 40.0366 162.466 39.3522C162.472 39.3458 162.479 39.3377 162.485 39.3313C162.721 39.0855 162.973 38.8429 163.244 38.6035C170.323 32.3508 182.583 34.3751 187.888 35.2523C193.907 36.2467 198.893 37.0693 202.284 40.9057C203.185 41.9243 203.823 42.9926 204.262 44.1285V44.1237C210.741 56.3817 203.603 54.2112 200.365 60.0591C196.717 88.1417 209.431 94.6435 207.344 105.052C204.403 119.715 180.903 114.234 172.355 112.362C169.355 111.705 153.653 116.39 149.815 104.217C147.298 96.2356 152.983 93.0915 156.946 76.8508C157.51 74.5422 157.939 72.3734 158.266 70.3314C154.129 72.3412 149.89 73.9189 147.064 74.5727C139.718 76.2693 129.368 73.3518 124.29 71.0239C120.133 69.1169 115.266 60.1507 126.424 60.027Z" fill="white"/>
<path d="M190.678 115.297C195.217 115.297 199.595 114.581 202.834 112.462C205.421 110.77 207.057 108.301 207.693 105.123C208.535 100.927 207.05 97.3908 205.17 92.9133C202.366 86.2333 198.526 77.0871 200.71 60.1733C201.665 58.48 202.989 57.4695 204.158 56.5762C206.98 54.4218 209.208 52.7189 204.578 43.9583C204.11 42.7582 203.446 41.6818 202.55 40.6681C199.074 36.7368 193.917 35.8838 187.945 34.8989C182.638 34.0234 170.21 31.9718 163.005 38.3354C162.739 38.5699 162.477 38.8221 162.226 39.0824C161.54 39.8005 160.998 40.5251 160.55 41.3203C159.744 42.596 158.843 44.2844 157.884 46.3199C155.601 51.1653 150.636 57.3184 145.131 59.3813C141.047 60.9107 136.592 60.4689 132.284 60.0432C130.227 59.8391 128.284 59.648 126.421 59.6672C121.169 59.7251 119.651 61.7011 119.303 63.3462C118.685 66.2654 121.445 70.1082 124.143 71.3469C129.323 73.723 139.723 76.6341 147.146 74.9199C149.927 74.2773 153.96 72.7719 157.804 70.9485C157.479 72.8699 157.075 74.8235 156.602 76.7626C154.949 83.531 153.018 87.9667 151.467 91.5317C149.288 96.5345 147.973 99.5532 149.477 104.321C152.586 114.183 163.258 113.288 168.993 112.807C170.503 112.68 171.696 112.581 172.281 112.709L172.817 112.827C177.067 113.76 184.044 115.294 190.68 115.294L190.678 115.297ZM203.967 44.3326C208.288 52.5245 206.374 53.9848 203.725 56.0075C202.486 56.9538 201.082 58.0253 200.052 59.8857C200.03 59.9259 200.015 59.9677 200.011 60.0126C197.784 77.161 201.673 86.426 204.512 93.1897C206.345 97.5531 207.791 101.001 206.993 104.98C206.395 107.964 204.864 110.279 202.443 111.861C194.722 116.91 180.028 113.68 172.967 112.128L172.432 112.01C171.743 111.859 170.564 111.959 168.932 112.096C163.398 112.56 153.094 113.423 150.157 104.106C148.735 99.5934 150.009 96.6679 152.121 91.8177C153.684 88.2286 155.629 83.7624 157.296 76.9329C157.83 74.7464 158.275 72.5438 158.622 70.3862C158.643 70.2544 158.59 70.1211 158.482 70.0424C158.375 69.9621 158.232 69.9492 158.114 70.007C154.133 71.9413 149.868 73.5559 146.987 74.221C139.737 75.8951 129.533 73.029 124.443 70.6946C121.996 69.5717 119.466 66.0292 120.003 63.4941C120.425 61.5003 122.649 60.4239 126.432 60.3822C128.257 60.3597 130.181 60.5524 132.217 60.7549C136.606 61.1902 141.145 61.6401 145.384 60.0512C151.075 57.9193 156.19 51.5959 158.534 46.6252C159.481 44.6154 160.368 42.9542 161.168 41.6866C161.596 40.9283 162.102 40.2504 162.726 39.5981C162.983 39.3314 163.229 39.0937 163.481 38.8703C170.433 32.7301 182.625 34.7431 187.831 35.6026C193.91 36.6067 198.71 37.3987 202.018 41.1404C202.866 42.0995 203.491 43.1181 203.93 44.2539C203.94 44.2812 203.954 44.3053 203.971 44.3278L203.967 44.3326Z" fill="black"/>
<path d="M202.069 83.8682C197.106 82.3549 166.383 78.1425 154.203 85.229L152.132 90.8921C173.171 83.4072 197.665 88.5048 203.541 89.4446L202.068 83.8682H202.069Z" fill="white"/>
<path d="M152.133 91.249C152.173 91.249 152.214 91.2426 152.252 91.2281C171.653 84.3247 194.41 88.2415 201.889 89.5284C202.516 89.636 203.052 89.7292 203.486 89.7983C203.607 89.8175 203.727 89.7742 203.807 89.6842C203.889 89.5942 203.918 89.4689 203.887 89.3532L202.414 83.7769C202.382 83.6564 202.29 83.5616 202.172 83.5263C198.059 82.2715 166.699 77.5451 154.024 84.9192C153.951 84.9609 153.897 85.0268 153.868 85.1055L151.797 90.7686C151.749 90.8988 151.781 91.045 151.879 91.143C151.947 91.212 152.039 91.249 152.132 91.249H152.133ZM178.147 86.5386C170.08 86.5386 161.123 87.4414 152.728 90.3043L154.495 85.4734C160.956 81.7864 172.369 81.3735 180.83 81.6803C190.734 82.0402 199.286 83.4556 201.776 84.1544L203.057 88.9998C202.744 88.9468 202.394 88.8873 202.011 88.8215C197.792 88.0953 188.738 86.5386 178.147 86.5386Z" fill="black"/>
<path d="M189.572 31.5719C187.356 31.7181 185.53 32.9728 183.577 36.1184C179.911 42.0257 180.273 47.6374 179.895 49.8368C179.739 50.7397 179.003 51.4241 178.098 51.5221L172.323 52.1406C170.96 52.2868 169.843 51.0739 170.094 49.7211C170.965 45.038 172.688 36.5297 175.074 33.7648L172.754 33.8082C166.665 34.3817 150.808 88.105 152.561 140.856C152.727 145.816 156.674 149.811 161.607 150.022C173.589 150.533 194.975 150.536 205.284 144.951C220.056 136.949 196.615 114.588 190.247 89.3405C186.753 75.4903 182.68 52.7848 184.578 44.6396C187.982 30.0344 197.845 34.1568 197.845 34.1568C197.845 34.1568 193.63 31.3052 189.574 31.5735L189.572 31.5719Z" fill="white"/>
<path d="M171.191 150.587C182.914 150.587 197.468 149.589 205.452 145.265C214.949 140.12 209.288 129.456 202.12 115.956C197.84 107.894 192.988 98.7579 190.591 89.2519C187.367 76.4685 182.976 53.0739 184.924 44.7198C186.102 39.6671 188.174 36.3464 191.082 34.8491C194.391 33.1461 197.673 34.4715 197.706 34.486C197.876 34.5567 198.07 34.486 198.159 34.3253C198.245 34.1631 198.195 33.9623 198.045 33.8594C197.868 33.7405 193.679 30.9419 189.551 31.215C187.104 31.3757 185.227 32.7863 183.277 35.9303C180.305 40.7194 179.94 45.3319 179.72 48.0871C179.665 48.7651 179.619 49.3499 179.545 49.7772C179.418 50.5162 178.808 51.0865 178.061 51.1669L172.286 51.7854C171.75 51.8432 171.234 51.6488 170.867 51.252C170.5 50.8536 170.346 50.3202 170.445 49.7868C171.037 46.601 172.839 36.9039 175.343 33.9992C175.436 33.8932 175.455 33.7405 175.396 33.6136C175.337 33.4851 175.216 33.4016 175.066 33.408L172.746 33.4514C169.305 33.7743 163.814 47.8526 159.367 67.6887C156.246 81.6079 151.165 109.626 152.204 140.871C152.374 145.988 156.497 150.165 161.591 150.381C164.358 150.5 167.646 150.59 171.192 150.59L171.191 150.587ZM194.761 33.2554C193.58 33.2554 192.183 33.4787 190.765 34.2065C187.656 35.8018 185.456 39.2832 184.227 44.5559C182.251 53.0337 186.657 76.5778 189.897 89.4254C192.316 99.015 197.189 108.193 201.488 116.29C208.471 129.44 213.984 139.826 205.11 144.633C194.861 150.185 173.461 150.166 161.618 149.66C156.895 149.459 153.073 145.584 152.914 140.84C151.878 109.676 156.946 81.7268 160.06 67.8397C164.717 47.0686 170.186 34.4041 172.783 34.1599L174.343 34.1309C172.743 36.5183 171.232 41.6143 169.74 49.6503C169.599 50.4086 169.818 51.1669 170.339 51.7324C170.86 52.2963 171.596 52.5726 172.358 52.4907L178.133 51.8722C179.196 51.7581 180.063 50.9452 180.244 49.8929C180.323 49.4334 180.371 48.8325 180.427 48.1369C180.64 45.4459 180.999 40.9444 183.879 36.3014C185.694 33.3759 187.403 32.0665 189.593 31.9219C191.731 31.7805 193.942 32.5517 195.505 33.2779C195.268 33.2586 195.019 33.2489 194.76 33.2489L194.761 33.2554Z" fill="black"/>
<path d="M87.7317 79.6465H93.771V83.2227H87.7317V79.6465Z" fill="black"/>
<path d="M118.074 79.6465H124.114V83.2227H118.074V79.6465Z" fill="black"/>
<path d="M97.2068 93.8918H114.786C117.334 93.8918 119.397 92.3801 119.397 90.5149V78.019H92.5959V90.5149C92.5959 92.3801 94.6608 93.8918 97.2068 93.8918Z" fill="white"/>
<path d="M97.2067 94.25H114.786C117.526 94.25 119.754 92.5743 119.754 90.5147V78.0189C119.754 77.8213 119.594 77.6606 119.397 77.6606H92.5958C92.3986 77.6606 92.2383 77.8213 92.2383 78.0189V90.5147C92.2383 92.5743 94.4667 94.25 97.2067 94.25ZM119.039 78.3772V90.5147C119.039 92.1791 117.132 93.5334 114.784 93.5334H97.205C94.8595 93.5334 92.9501 92.1791 92.9501 90.5147V78.3772H119.038H119.039Z" fill="black"/>
<path d="M86.8962 20.6665L38.0332 20.6665V15.7569L86.8962 15.7569V20.6665Z" fill="black"/>
<path d="M51.1431 49.9734C51.1431 54.9457 48.5987 57.4101 45.458 57.4101C42.3173 57.4101 39.773 54.2307 39.773 49.9734C39.773 45.716 45.458 39.4424 45.458 39.4424C45.458 39.4424 51.1431 45.716 51.1431 49.9734Z" fill="white"/>
<path d="M45.4595 57.7684C49.1293 57.7684 51.5005 54.7079 51.5005 49.9734C51.5005 45.6276 45.9597 39.4617 45.7241 39.2014C45.5894 39.052 45.3313 39.052 45.195 39.2014C44.9593 39.4617 39.4186 45.6276 39.4186 49.9734C39.4186 54.3191 42.0719 57.7684 45.4595 57.7684ZM45.4595 39.9854C46.569 41.2771 50.787 46.4213 50.787 49.9734C50.787 54.34 48.7461 57.0535 45.4595 57.0535C42.4727 57.0535 40.132 53.9432 40.132 49.9734C40.132 46.4197 44.3501 41.2771 45.4595 39.9854Z" fill="black"/>
<path d="M45.4594 40.2072C45.6566 40.2072 45.8169 40.0466 45.8169 39.849V18.5155C45.8169 18.3179 45.6566 18.1572 45.4594 18.1572C45.2622 18.1572 45.1019 18.3179 45.1019 18.5155V39.849C45.1019 40.0466 45.2622 40.2072 45.4594 40.2072Z" fill="black"/>
<path d="M70.188 54.8976C70.188 60.6073 66.4717 63.4364 61.8865 63.4364C57.3013 63.4364 53.585 59.7847 53.585 54.8976C53.585 50.0104 61.8865 42.8066 61.8865 42.8066C61.8865 42.8066 70.188 50.0088 70.188 54.8976Z" fill="white"/>
<path d="M61.8864 63.7949C67.1466 63.7949 70.5454 60.3023 70.5454 54.8978C70.5454 49.903 62.4636 42.8342 62.1205 42.5369C61.9858 42.4213 61.787 42.4213 61.6523 42.5369C61.3092 42.8358 53.2274 49.9046 53.2274 54.8978C53.2274 59.891 57.0302 63.7949 61.8864 63.7949ZM61.8864 43.2856C63.2235 44.4937 69.8304 50.6806 69.8304 54.8978C69.8304 60.9304 65.7261 63.08 61.8864 63.08C57.431 63.08 53.9424 59.4861 53.9424 54.8978C53.9424 50.679 60.5493 44.4937 61.8864 43.2856Z" fill="black"/>
<path d="M61.8866 43.1649C62.0838 43.1649 62.2441 43.0042 62.2441 42.8066V18.5155C62.2441 18.3179 62.0838 18.1572 61.8866 18.1572C61.6894 18.1572 61.5291 18.3179 61.5291 18.5155V42.8066C61.5291 43.0042 61.6894 43.1649 61.8866 43.1649Z" fill="black"/>
<path d="M78.4652 42.8564C78.6624 42.8564 78.8228 42.6958 78.8228 42.4982V18.5155C78.8228 18.3179 78.6624 18.1572 78.4652 18.1572C78.268 18.1572 78.1077 18.3179 78.1077 18.5155V42.4982C78.1077 42.6958 78.268 42.8564 78.4652 42.8564Z" fill="black"/>
<path d="M82.0708 62.9081L78.4652 49.5737L74.8595 62.9081V46.1228C74.8595 44.121 76.4739 42.5 78.4652 42.5C80.4564 42.5 82.0708 44.1226 82.0708 46.1228V62.9081Z" fill="white"/>
<path d="M74.8595 63.2648C75.0182 63.2648 75.1609 63.1587 75.2042 62.9997L78.4652 50.9393L81.7261 62.9997C81.7726 63.1732 81.941 63.284 82.1173 63.2616C82.2953 63.2375 82.4268 63.0864 82.4268 62.9065V46.1212C82.4268 43.9266 80.6488 42.1401 78.4636 42.1401C76.2784 42.1401 74.5004 43.9266 74.5004 46.1212V62.9065C74.5004 63.0864 74.6335 63.2375 74.8098 63.2616C74.8259 63.2632 74.8419 63.2648 74.8579 63.2648H74.8595ZM78.4652 49.2138C78.3033 49.2138 78.1622 49.3215 78.1205 49.4789L75.217 60.2187V46.1228C75.217 44.3218 76.6744 42.8567 78.4652 42.8567C80.256 42.8567 81.7133 44.3218 81.7133 46.1228V60.2187L78.8099 49.4805C78.7682 49.3247 78.6271 49.2154 78.4652 49.2154V49.2138Z" fill="black"/>
</svg>
