<svg width="112" height="154" viewBox="0 0 112 154" fill="none" xmlns="http://www.w3.org/2000/svg">
<g clip-path="url(#clip0_59_3134)">
<path d="M102.512 110.548L103.608 106.572L108.137 106.777C108.557 105.902 109.043 105.071 109.593 104.295L107.195 100.48L110.147 97.5812L113.966 100.008C114.761 99.4664 115.601 98.9907 116.476 98.587L116.319 94.0863L120.334 93.0415L122.418 97.0337C123.37 96.9597 124.337 96.9669 125.309 97.0542L127.439 93.0805L131.442 94.1695L131.236 98.6671C132.117 99.0842 132.954 99.5671 133.735 100.113L137.576 97.7312L140.495 100.662L138.052 104.456C138.598 105.246 139.076 106.079 139.483 106.947L144.015 106.792L145.067 110.779L141.048 112.848C141.122 113.794 141.115 114.754 141.027 115.721L145.029 117.836L143.933 121.812L139.404 121.607C138.985 122.483 138.498 123.313 137.948 124.089L140.346 127.904L137.395 130.803L133.575 128.376C132.78 128.918 131.94 129.393 131.066 129.797L131.222 134.298L127.206 135.343L125.123 131.35C124.17 131.424 123.203 131.417 122.231 131.33L120.101 135.303L116.098 134.215L116.304 129.717C115.422 129.3 114.587 128.817 113.805 128.271L109.964 130.653L107.045 127.722L109.488 123.928C108.943 123.138 108.464 122.305 108.058 121.436L103.526 121.591L102.473 117.604L106.492 115.535C106.418 114.589 106.425 113.629 106.513 112.663L102.511 110.548H102.512ZM120.948 124.426C126.639 125.974 132.517 122.647 134.075 116.995C135.633 111.342 132.283 105.505 126.591 103.958C120.9 102.411 115.022 105.737 113.464 111.391C111.906 117.043 115.256 122.88 120.948 124.427V124.426Z" fill="white"/>
<path d="M127.205 135.569C127.225 135.569 127.245 135.567 127.263 135.561L131.278 134.517C131.381 134.49 131.453 134.395 131.448 134.289L131.297 129.938C132.086 129.566 132.851 129.132 133.576 128.648L137.268 130.993C137.358 131.05 137.477 131.038 137.553 130.963L140.504 128.064C140.581 127.989 140.594 127.872 140.537 127.782L138.22 124.094C138.709 123.389 139.153 122.632 139.541 121.841L143.918 122.038C144.025 122.044 144.121 121.973 144.15 121.87L145.246 117.895C145.274 117.792 145.228 117.684 145.132 117.634L141.264 115.589C141.336 114.713 141.343 113.837 141.284 112.981L145.169 110.981C145.264 110.931 145.313 110.824 145.285 110.721L144.232 106.734C144.205 106.631 144.106 106.558 144.002 106.564L139.621 106.714C139.246 105.931 138.811 105.171 138.322 104.451L140.683 100.783C140.741 100.694 140.729 100.577 140.653 100.501L137.734 97.57C137.658 97.494 137.54 97.4807 137.449 97.5372L133.737 99.8384C133.026 99.3524 132.264 98.9107 131.467 98.5265L131.666 94.1788C131.671 94.073 131.601 93.9775 131.497 93.9487L127.494 92.8598C127.391 92.833 127.281 92.8782 127.231 92.9728L125.172 96.8139C124.289 96.742 123.407 96.7359 122.546 96.7954L120.531 92.9368C120.482 92.8423 120.373 92.794 120.27 92.8217L116.255 93.8665C116.152 93.8932 116.08 93.9878 116.084 94.0946L116.235 98.4453C115.447 98.8172 114.682 99.2507 113.957 99.7346L110.265 97.3892C110.173 97.3317 110.055 97.344 109.98 97.419L107.029 100.318C106.952 100.393 106.938 100.51 106.995 100.601L109.313 104.288C108.823 104.994 108.378 105.752 107.991 106.542L103.615 106.344C103.508 106.337 103.412 106.409 103.383 106.512L102.286 110.488C102.258 110.59 102.305 110.698 102.4 110.749L106.269 112.793C106.196 113.669 106.19 114.546 106.249 115.401L102.364 117.401C102.269 117.451 102.22 117.559 102.248 117.661L103.301 121.648C103.328 121.751 103.421 121.832 103.531 121.818L107.912 121.668C108.286 122.452 108.723 123.211 109.211 123.931L106.849 127.599C106.791 127.688 106.804 127.805 106.879 127.881L109.799 130.812C109.874 130.888 109.992 130.902 110.083 130.845L113.796 128.544C114.507 129.031 115.269 129.471 116.066 129.856L115.867 134.203C115.862 134.309 115.932 134.405 116.036 134.433L120.039 135.522C120.142 135.549 120.252 135.504 120.302 135.409L122.361 131.568C123.244 131.64 124.126 131.646 124.987 131.587L127.001 135.445C127.042 135.522 127.121 135.569 127.205 135.569ZM130.985 134.122L127.324 135.074L125.325 131.244C125.283 131.162 125.194 131.115 125.104 131.121C124.171 131.194 123.212 131.187 122.251 131.101C122.161 131.092 122.071 131.14 122.027 131.221L119.984 135.034L116.335 134.042L116.533 129.726C116.537 129.635 116.485 129.55 116.402 129.511C115.532 129.099 114.702 128.619 113.936 128.085C113.861 128.031 113.761 128.029 113.683 128.077L109.997 130.362L107.337 127.691L109.682 124.05C109.731 123.973 109.729 123.875 109.678 123.799C109.141 123.022 108.666 122.194 108.266 121.339C108.227 121.256 108.147 121.202 108.049 121.208L103.701 121.357L102.742 117.721L106.599 115.735C106.681 115.693 106.729 115.607 106.722 115.515C106.649 114.588 106.656 113.634 106.743 112.682C106.751 112.591 106.703 112.503 106.622 112.46L102.781 110.431L103.78 106.807L108.126 107.003C108.217 107.01 108.304 106.956 108.343 106.873C108.757 106.009 109.241 105.186 109.779 104.425C109.832 104.35 109.835 104.252 109.786 104.174L107.485 100.513L110.175 97.871L113.841 100.199C113.919 100.248 114.018 100.246 114.095 100.195C114.877 99.6617 115.711 99.1901 116.571 98.7936C116.655 98.7556 116.706 98.6713 116.703 98.5799L116.553 94.261L120.214 93.3087L122.213 97.1396C122.255 97.2207 122.342 97.2711 122.434 97.2618C123.367 97.1889 124.326 97.1961 125.287 97.2824C125.378 97.2896 125.467 97.2433 125.511 97.1622L127.554 93.3488L131.203 94.3412L131.005 98.6569C131.001 98.7484 131.053 98.8336 131.136 98.8727C132.006 99.2846 132.836 99.7644 133.602 100.299C133.677 100.352 133.777 100.354 133.855 100.306L137.54 98.021L140.201 100.693L137.856 104.333C137.807 104.41 137.809 104.509 137.86 104.585C138.398 105.362 138.873 106.19 139.272 107.044C139.311 107.127 139.391 107.187 139.489 107.175L143.836 107.027L144.796 110.662L140.939 112.648C140.857 112.69 140.809 112.776 140.816 112.868C140.889 113.796 140.882 114.748 140.795 115.701C140.787 115.793 140.834 115.88 140.916 115.923L144.757 117.953L143.758 121.578L139.412 121.381C139.32 121.373 139.234 121.429 139.195 121.511C138.781 122.375 138.297 123.199 137.759 123.959C137.706 124.034 137.703 124.132 137.752 124.211L140.053 127.871L137.362 130.513L133.697 128.185C133.619 128.136 133.52 128.138 133.443 128.189C132.661 128.723 131.827 129.194 130.967 129.592C130.883 129.63 130.831 129.714 130.835 129.805L130.985 134.124V134.122ZM123.786 125.035C125.658 125.035 127.504 124.554 129.174 123.609C131.707 122.174 133.525 119.848 134.295 117.054C135.884 111.29 132.456 105.316 126.65 103.738C123.839 102.974 120.895 103.343 118.363 104.776C115.831 106.21 114.012 108.537 113.242 111.33C111.653 117.094 115.081 123.068 120.885 124.646C121.844 124.907 122.818 125.035 123.785 125.035H123.786ZM123.753 103.804C124.679 103.804 125.612 103.927 126.53 104.177C132.09 105.689 135.376 111.411 133.853 116.934C133.116 119.609 131.373 121.838 128.947 123.212C126.521 124.586 123.702 124.939 121.008 124.206C115.448 122.694 112.162 116.972 113.685 111.449C114.422 108.774 116.165 106.545 118.59 105.171C120.19 104.266 121.96 103.804 123.752 103.804H123.753Z" fill="black"/>
<path d="M28.1368 141.679L32.4328 141.99L112.108 141.679C115.727 141.679 118.29 138.782 117.833 135.209L97.1564 -26.6074C96.6999 -30.1804 93.3966 -33.0775 89.7777 -33.0775L10.0222 -34C0.867104 -34 -0.375114 -30.1804 0.081398 -26.6074L20.7581 135.209C21.2146 138.782 24.5179 141.679 28.1368 141.679Z" fill="black"/>
<path d="M33.1891 141.99H117.16C120.779 141.99 123.342 139.079 122.885 135.489L102.209 -27.1304C101.752 -30.7219 98.4489 -33.6323 94.8299 -33.6323H10.8592C7.24023 -33.6323 4.67714 -30.7209 5.13365 -27.1304L25.8103 135.488C26.2669 139.079 29.5701 141.989 33.1891 141.989V141.99Z" fill="white"/>
<path d="M32.3562 137.441H116.779C117.248 137.441 117.667 137.259 117.961 136.928C118.257 136.594 118.388 136.152 118.329 135.684L98.5859 -19.5898C98.4669 -20.5278 97.6005 -21.29 96.6553 -21.29H12.2323C11.7644 -21.29 11.3441 -21.1082 11.0501 -20.7774C10.7541 -20.4435 10.6236 -20.0018 10.6826 -19.5323L30.4245 135.741C30.5436 136.679 31.41 137.442 32.3551 137.442L32.3562 137.441ZM118.1 135.712L117.872 135.74C117.915 136.077 117.825 136.393 117.616 136.627C117.411 136.858 117.113 136.985 116.778 136.985H32.3551C31.6326 136.985 30.9711 136.402 30.879 135.684L11.1381 -19.5898C11.0957 -19.9268 11.1868 -20.2422 11.3948 -20.4764C11.5998 -20.7075 11.8979 -20.8349 12.2323 -20.8349H96.6543C97.3769 -20.8349 98.0383 -20.2514 98.1305 -19.5333L117.873 135.74L118.101 135.712H118.1Z" fill="black"/>
<path d="M18.0311 74.5346C18.0404 74.5346 18.0507 74.5346 18.0601 74.5325C18.1853 74.5171 18.2754 74.4031 18.2588 74.2778L5.3615 -27.1601C5.14825 -28.8408 5.60788 -30.4167 6.65652 -31.5971C7.69273 -32.7641 9.18546 -33.4062 10.8593 -33.4062H94.83C98.331 -33.4062 101.539 -30.579 101.981 -27.1036L103.993 -11.2776C104.009 -11.1523 104.124 -11.064 104.25 -11.0804C104.376 -11.0958 104.464 -11.2098 104.449 -11.3352L102.437 -27.1611C101.967 -30.8564 98.5546 -33.8623 94.83 -33.8623H10.8593C9.05192 -33.8623 7.43808 -33.1648 6.31284 -31.8991C5.17622 -30.619 4.67622 -28.9157 4.90706 -27.1036L17.8044 74.3343C17.8189 74.4493 17.9172 74.5336 18.0321 74.5336L18.0311 74.5346Z" fill="black"/>
<path d="M117.159 142.218C118.967 142.218 120.582 141.52 121.708 140.255C122.845 138.975 123.344 137.272 123.113 135.46L115.727 77.3681C115.712 77.2438 115.598 77.1545 115.471 77.1709C115.344 77.1863 115.255 77.3003 115.272 77.4257L122.658 135.518C122.871 137.198 122.411 138.774 121.363 139.955C120.327 141.122 118.834 141.764 117.16 141.764L77.3294 141.53H77.3284C77.2021 141.53 77.0996 141.63 77.0985 141.756C77.0985 141.881 77.2 141.984 77.3263 141.985L117.158 142.219L117.159 142.218Z" fill="black"/>
<path d="M105.049 105.162C105.118 105.162 105.186 105.131 105.232 105.074C105.309 104.974 105.29 104.831 105.19 104.754L87.5259 91.2636C87.4255 91.1865 87.2816 91.2061 87.204 91.3047C87.1274 91.4043 87.146 91.5471 87.2454 91.6242L104.91 105.115C104.951 105.147 105.001 105.162 105.049 105.162Z" fill="black"/>
<path d="M84.5582 89.513C84.6265 89.513 84.6948 89.4822 84.7404 89.4247C84.817 89.325 84.7984 89.1822 84.699 89.1052L77.2136 83.3891C77.1132 83.3131 76.9693 83.3316 76.8917 83.4302C76.8151 83.5299 76.8337 83.6727 76.9331 83.7497L84.4185 89.4657C84.4599 89.4976 84.5095 89.513 84.5582 89.513Z" fill="black"/>
<path d="M108.719 117C108.788 117 108.856 116.969 108.902 116.912C108.979 116.812 108.96 116.669 108.86 116.592L100.267 110.03C100.167 109.952 100.023 109.971 99.9452 110.071C99.8676 110.17 99.8872 110.313 99.9866 110.39L108.58 116.953C108.621 116.984 108.671 117 108.719 117Z" fill="black"/>
<path d="M96.0871 107.352C96.1554 107.352 96.2237 107.321 96.2693 107.263C96.3469 107.164 96.3272 107.021 96.2278 106.944L80.8855 95.226C80.785 95.15 80.6411 95.1685 80.5635 95.2671C80.4869 95.3668 80.5055 95.5096 80.6049 95.5866L95.9473 107.304C95.9887 107.336 96.0384 107.352 96.0871 107.352Z" fill="black"/>
<path d="M91.0572 116.09C91.1256 116.09 91.1939 116.059 91.2394 116.001C91.316 115.902 91.2974 115.759 91.198 115.682L78.4322 105.933C78.3307 105.857 78.1879 105.875 78.1102 105.974C78.0336 106.073 78.0523 106.216 78.1516 106.293L90.9175 116.042C90.9589 116.074 91.0086 116.09 91.0572 116.09Z" fill="black"/>
<path d="M29.1799 -6.50878C24.3528 -6.49645 20.8136 -2.65016 21.2908 2.06423L27.6251 64.696C28.1023 69.4103 32.4169 73.2361 37.2439 73.2238L143.025 72.9474C147.852 72.9351 151.391 69.0888 150.914 64.3744L144.58 1.74268C144.102 -2.9717 139.788 -6.79745 134.961 -6.78513L29.1799 -6.50878Z" fill="white"/>
<path d="M37.2203 73.4518H37.2451L86.3696 73.3234C86.4959 73.3234 86.5984 73.2207 86.5984 73.0954C86.5984 72.97 86.4948 72.8683 86.3685 72.8683L37.2441 72.9967H37.2203C32.5175 72.9967 28.3177 69.2676 27.854 64.6744L21.5207 2.04266C21.2982 -0.155807 21.9617 -2.22997 23.3882 -3.79869C24.8375 -5.3931 26.8954 -6.27454 29.1831 -6.2807L134.964 -6.55705H134.988C139.691 -6.55705 143.89 -2.82787 144.354 1.76529L149.167 49.3529C149.179 49.4782 149.29 49.5697 149.418 49.5563C149.545 49.544 149.637 49.432 149.623 49.3067L144.811 1.71906C144.323 -3.10114 139.919 -7.01318 134.988 -7.01318H134.963L29.1821 -6.73683C26.7639 -6.73067 24.5859 -5.79581 23.0476 -4.10483C21.5332 -2.43954 20.8292 -0.240048 21.0642 2.08684L27.3975 64.7186C27.885 69.5388 32.2897 73.4508 37.2213 73.4508L37.2203 73.4518ZM96.6924 73.2967L141.404 73.1796C141.53 73.1796 141.633 73.0769 141.633 72.9515C141.633 72.8262 141.53 72.7245 141.403 72.7245L96.6914 72.8416C96.5651 72.8416 96.4626 72.9443 96.4626 73.0697C96.4626 73.195 96.5651 73.2967 96.6924 73.2967Z" fill="black"/>
<path d="M98.0038 56.9795H133.529C134.09 56.9795 134.601 56.7597 134.965 56.3601C135.344 55.9461 135.52 55.3923 135.462 54.8026C135.346 53.6264 134.309 52.6699 133.149 52.6699H97.6239C97.0629 52.6699 96.5525 52.8898 96.1881 53.2894C95.8093 53.7034 95.6333 54.2571 95.6913 54.8468C95.8072 56.0231 96.8444 56.9795 98.0038 56.9795ZM133.148 53.1261C134.078 53.1261 134.911 53.8986 135.004 54.8478C135.05 55.3081 134.914 55.7375 134.624 56.0549C134.348 56.358 133.959 56.5244 133.528 56.5244H98.0028C97.0732 56.5244 96.2399 55.7519 96.1467 54.8026C96.1012 54.3424 96.2368 53.913 96.5266 53.5955C96.803 53.2925 97.1923 53.1261 97.6229 53.1261H133.148Z" fill="black"/>
<path d="M93.6757 64.9517H134.952C135.514 64.9517 136.024 64.7319 136.388 64.3322C136.767 63.9182 136.943 63.3645 136.885 62.7748C136.769 61.5985 135.732 60.6421 134.573 60.6421H93.2958C92.7347 60.6421 92.2244 60.8619 91.86 61.2616C91.4811 61.6756 91.3052 62.2293 91.3631 62.819C91.4791 63.9953 92.5163 64.9517 93.6757 64.9517ZM134.573 61.0982C135.502 61.0982 136.335 61.8708 136.429 62.82C136.474 63.2803 136.339 63.7097 136.049 64.0271C135.772 64.3302 135.383 64.4966 134.952 64.4966H93.6757C92.7461 64.4966 91.9128 63.7241 91.8196 62.7748C91.7741 62.3146 91.9097 61.8852 92.1996 61.5677C92.4759 61.2646 92.8652 61.0982 93.2958 61.0982H134.573Z" fill="black"/>
<path d="M76.7432 8.60503H107.851C108.412 8.60503 108.923 8.38518 109.287 7.98555C109.666 7.57154 109.842 7.01782 109.784 6.42813C109.668 5.25185 108.631 4.29541 107.472 4.29541H76.3623C75.8012 4.29541 75.2909 4.51526 74.9265 4.91489C74.5476 5.3289 74.3716 5.88262 74.4296 6.47231C74.5455 7.64859 75.5828 8.60503 76.7422 8.60503H76.7432ZM107.472 4.75154C108.401 4.75154 109.234 5.52409 109.328 6.47334C109.373 6.93358 109.238 7.363 108.948 7.68044C108.671 7.9835 108.282 8.14993 107.851 8.14993H76.7432C75.8136 8.14993 74.9803 7.37738 74.8871 6.42813C74.8416 5.96789 74.9772 5.53847 75.2671 5.22103C75.5435 4.91797 75.9327 4.75154 76.3633 4.75154H107.473H107.472Z" fill="black"/>
<path d="M24.8217 36.2153L148.094 36.7423C148.669 36.7444 149.117 36.2502 149.054 35.6831L147.945 25.7407C147.906 25.3904 147.607 25.1264 147.252 25.1284L23.6126 25.7849C23.1841 25.7869 22.8538 26.1599 22.9066 26.5821L24.0236 35.5136C24.0733 35.9133 24.4149 36.2143 24.8207 36.2163L24.8217 36.2153Z" fill="black"/>
<path d="M54.9278 73.69H65.4545C65.8407 73.69 66.1222 73.3305 66.0839 72.8857L59.1565 -6.52227C59.1182 -6.96607 58.7735 -7.32666 58.3874 -7.32666H47.8606C47.4745 -7.32666 47.1929 -6.9671 47.2312 -6.52227L54.1586 72.8857C54.1969 73.3295 54.5417 73.69 54.9278 73.69Z" fill="black"/>
<path d="M50.2073 33.8618C46.3057 42.9803 43.9476 50.1028 43.4083 52.9022C43.2747 53.5977 43.7178 54.3415 44.4186 54.5634C45.4786 54.8993 46.5283 55.0627 47.5697 55.0719L52.8325 34.5789L50.2073 33.8618Z" fill="black"/>
<path d="M47.5708 55.2988C47.6754 55.2988 47.7675 55.2279 47.7934 55.1272L53.0562 34.6342C53.0873 34.514 53.0159 34.3917 52.8947 34.3589L50.2685 33.6418C50.1567 33.612 50.0418 33.6675 49.9962 33.7723C46.077 42.9319 43.7168 50.0861 43.1837 52.8589C43.0264 53.6787 43.5388 54.5221 44.3504 54.779C45.4073 55.1139 46.4901 55.2885 47.5698 55.2988H47.5718H47.5708ZM52.5552 34.739L47.3928 54.8406C46.4197 54.8149 45.4435 54.6485 44.4891 54.3465C43.9042 54.1615 43.5212 53.5328 43.634 52.9452C44.1599 50.2146 46.4808 43.1743 50.3399 34.1349L52.5552 34.74V34.739Z" fill="black"/>
<path d="M51.1941 34.04C48.9747 47.8935 46.718 54.9512 44.8919 54.7118C52.4715 56.3073 62.4113 55.9158 73.1637 54.6769C74.1647 54.5618 74.8252 53.6609 74.6657 52.6264C73.7745 46.8271 70.9008 40.9159 66.788 34.9359L51.193 34.04H51.1941Z" fill="white"/>
<path d="M56.7487 55.9972C61.4412 55.9972 66.8645 55.6325 73.1905 54.9042C73.7226 54.8425 74.1905 54.5816 74.5093 54.1665C74.8458 53.7289 74.9824 53.17 74.8934 52.5927C74.057 47.1551 71.469 41.3373 66.9784 34.8077C66.938 34.7491 66.8728 34.7132 66.8024 34.709L51.2074 33.8132C51.0905 33.8081 50.9859 33.8892 50.9673 34.0043C47.87 53.3354 45.5512 54.5713 44.9218 54.486C44.7966 54.4686 44.6868 54.5528 44.6661 54.673C44.6454 54.7932 44.7241 54.9093 44.8442 54.9339C48.2085 55.6418 52.1225 55.9962 56.7477 55.9962L56.7487 55.9972ZM66.6637 35.157C71.0746 41.5911 73.6191 47.3184 74.44 52.6615C74.5093 53.1156 74.4048 53.5522 74.1449 53.8902C73.9027 54.2056 73.5456 54.4049 73.1387 54.4511C61.0986 55.838 52.3461 55.9017 45.7086 54.6432C47.9642 52.8012 50.0045 42.8783 51.3886 34.2796L66.6637 35.157Z" fill="black"/>
<path d="M55.9538 41.4383H55.9559C56.0822 41.4373 56.1847 41.3346 56.1826 41.2082L56.1225 35.2333C56.1215 35.108 56.019 35.0083 55.8927 35.0083H55.8907C55.7644 35.0093 55.6619 35.1121 55.664 35.2384L55.724 41.2133C55.725 41.3387 55.8275 41.4383 55.9538 41.4383Z" fill="black"/>
<path d="M63.7829 41.0203C63.8067 41.0203 63.8305 41.0172 63.8543 41.009C63.9744 40.9699 64.0396 40.8415 64.0003 40.7213L62.1608 35.1645C62.1214 35.0453 61.992 34.9806 61.8709 35.0197C61.7508 35.0587 61.6856 35.1871 61.7249 35.3073L63.5645 40.8641C63.5965 40.9596 63.6856 41.0203 63.7829 41.0203Z" fill="black"/>
<path d="M49.8068 27.4987C44.5781 18.1953 41.1692 10.9557 40.2075 8.12544C39.9684 7.42275 40.2872 6.69438 40.9384 6.50021C41.9228 6.2064 42.9238 6.08415 43.9394 6.11702L52.2622 26.8854L49.8068 27.4987Z" fill="black"/>
<path d="M49.8067 27.7265C49.8253 27.7265 49.844 27.7245 49.8626 27.7193L52.3181 27.106C52.3822 27.0896 52.4361 27.0475 52.4661 26.9889C52.4961 26.9304 52.4992 26.8626 52.4754 26.8009L44.1526 6.03257C44.1184 5.94833 44.0377 5.89182 43.9466 5.88874C42.8896 5.85381 41.8565 5.98736 40.8721 6.28118C40.5243 6.38494 40.2375 6.62328 40.0677 6.95099C39.8752 7.32083 39.8473 7.77491 39.9911 8.19713C40.9425 10.9976 44.3565 18.2659 49.6069 27.6084C49.6483 27.6813 49.7249 27.7255 49.8067 27.7255V27.7265ZM51.9526 26.728L49.9216 27.2355C44.7343 17.9927 41.3648 10.8189 40.4259 8.05331C40.3224 7.74717 40.34 7.42151 40.4756 7.16057C40.5884 6.9438 40.7769 6.78559 41.0046 6.71779C41.8959 6.45171 42.8296 6.32124 43.783 6.34076L51.9526 26.728Z" fill="black"/>
<path d="M50.7435 27.359C46.4258 13.3731 43.1256 6.20339 41.3772 6.36879C48.5396 5.07334 58.3159 5.86438 69.0196 7.53891C70.0165 7.69506 70.8012 8.62479 70.8063 9.65623C70.8343 15.438 68.942 21.2526 65.8499 27.0858L50.7446 27.359H50.7435Z" fill="white"/>
<path d="M50.7437 27.5869H50.7479L65.8532 27.3136C65.9371 27.3116 66.0126 27.2653 66.052 27.1924C69.4318 20.8168 71.0612 15.0813 71.0353 9.65498C71.0302 8.51568 70.1596 7.48733 69.055 7.31371C56.5501 5.35667 47.7428 4.9858 41.335 6.14462C41.2139 6.1662 41.1321 6.2792 41.1487 6.3994C41.1652 6.52062 41.2718 6.61 41.3981 6.59459C41.9996 6.53295 44.484 7.8623 50.5233 27.4246C50.5533 27.5201 50.6423 27.5859 50.7427 27.5859L50.7437 27.5869ZM65.7093 26.8606L50.9125 27.1277C48.2241 18.4386 44.6838 8.3698 42.2056 6.46001C48.4922 5.47584 57.0387 5.89396 68.9836 7.76368C69.8718 7.90237 70.5716 8.7345 70.5768 9.65704C70.6026 14.9724 69.0105 20.6011 65.7093 26.8606Z" fill="black"/>
<path d="M55.1528 26.577C55.1632 26.577 55.1745 26.577 55.1859 26.575C55.3112 26.5565 55.3981 26.4414 55.3805 26.3171L54.5131 20.3258C54.4944 20.2014 54.3806 20.1152 54.2532 20.1326C54.128 20.1511 54.041 20.2662 54.0586 20.3905L54.9261 26.3818C54.9427 26.4948 55.041 26.577 55.1528 26.577Z" fill="black"/>
<path d="M61.0668 26.8195C61.1765 26.8195 61.2738 26.7414 61.2925 26.6294L62.2293 21.1292C62.25 21.0049 62.1661 20.8877 62.0409 20.8662C61.9146 20.8446 61.7976 20.9288 61.7759 21.0531L60.839 26.5534C60.8183 26.6777 60.9022 26.7948 61.0274 26.8164C61.0409 26.8185 61.0533 26.8195 61.0657 26.8195H61.0668Z" fill="black"/>
<path d="M64.6868 26.6919H50.7015C49.8433 26.6919 49.2181 27.3997 49.304 28.2719L49.8226 33.5359C49.9085 34.4091 50.6735 35.1159 51.5317 35.1159H65.517C66.3751 35.1159 67.0004 34.4081 66.9145 33.5359L66.3958 28.2719C66.3099 27.3987 65.5449 26.6919 64.6868 26.6919Z" fill="white"/>
<path d="M51.5327 35.344H65.518C65.99 35.344 66.4186 35.1591 66.726 34.8231C67.0449 34.4749 67.1929 34.0095 67.1442 33.5143L66.6256 28.2503C66.5283 27.2662 65.6588 26.4648 64.6878 26.4648H50.7025C50.2304 26.4648 49.8019 26.6498 49.4944 26.9857C49.1766 27.334 49.0276 27.7993 49.0762 28.2945L49.5949 33.5585C49.6922 34.5427 50.5617 35.344 51.5327 35.344ZM64.6878 26.9199C65.429 26.9199 66.0935 27.5374 66.1691 28.2945L66.6877 33.5585C66.724 33.9242 66.6173 34.2653 66.3865 34.517C66.167 34.7564 65.8596 34.8889 65.518 34.8889H51.5327C50.7905 34.8889 50.1259 34.2725 50.0514 33.5143L49.5327 28.2503C49.4965 27.8846 49.6042 27.5435 49.834 27.2918C50.0534 27.0525 50.3619 26.9199 50.7025 26.9199H64.6878Z" fill="black"/>
<path d="M7.56323 100.448L39.2936 108.846L70.9328 100.409C70.9918 100.393 70.9918 100.31 70.9328 100.294L38.9199 91.8071L7.56323 100.36C7.51768 100.372 7.51872 100.436 7.56323 100.448Z" fill="white"/>
<path d="M39.2925 109.074C39.3122 109.074 39.3329 109.071 39.3525 109.066L70.9918 100.629C71.117 100.596 71.2061 100.482 71.2061 100.351C71.2061 100.221 71.1181 100.108 70.9907 100.074L38.9788 91.5873C38.9395 91.577 38.8981 91.577 38.8587 91.5873L7.50213 100.14C7.38205 100.173 7.29922 100.282 7.29922 100.405C7.29922 100.528 7.38412 100.636 7.5042 100.668L39.2335 109.066C39.2532 109.071 39.2728 109.074 39.2925 109.074ZM70.2609 100.352L39.2925 108.611L8.27644 100.402L38.9209 92.0445L70.262 100.353L70.2609 100.352ZM70.8738 100.189H70.8727C70.8727 100.189 70.8727 100.189 70.8738 100.189Z" fill="black"/>
<path d="M39.3159 153.55L39.2859 108.776L7.26676 100.375L7.29678 144.952L39.3159 153.55Z" fill="white"/>
<path d="M26.271 150.271L26.241 105.497L17.4306 103.146L17.4606 147.722L26.271 150.271Z" fill="black"/>
<path d="M39.3161 153.778C39.3658 153.778 39.4155 153.762 39.4558 153.731C39.5128 153.688 39.5459 153.621 39.5459 153.55L39.5159 108.776C39.5159 108.674 39.4455 108.583 39.3451 108.557L7.32593 100.155C7.25554 100.137 7.18308 100.152 7.12718 100.195C7.07025 100.238 7.03816 100.305 7.03816 100.376L7.06817 144.953C7.06817 145.055 7.13753 145.146 7.23794 145.172L39.2571 153.771C39.2768 153.776 39.2975 153.779 39.3171 153.779L39.3161 153.778ZM39.0563 108.952L39.0863 153.253L7.52573 144.778L7.4957 100.671L39.0563 108.952Z" fill="black"/>
<path d="M39.3161 153.55L39.286 108.777L71.0164 100.322L71.0464 144.952L39.3161 153.55Z" fill="white"/>
<path d="M61.1453 102.819L61.1753 147.333L52.7003 149.954L52.6703 105.417L61.1453 102.819Z" fill="black"/>
<path d="M39.779 153.636C39.8401 153.636 39.9022 153.628 39.9633 153.611L71.1067 145.172C71.206 145.145 71.2754 145.055 71.2754 144.952L71.2454 100.591C71.2454 100.455 71.1822 100.33 71.0735 100.247C70.9648 100.164 70.8272 100.137 70.6947 100.173L39.2262 108.558C39.1258 108.585 39.0565 108.675 39.0565 108.778L39.0865 152.948C39.0865 153.165 39.1859 153.365 39.3598 153.495C39.483 153.587 39.6289 153.637 39.779 153.637V153.636ZM70.8168 144.777L39.8422 153.171C39.7718 153.19 39.6962 153.177 39.6382 153.132C39.5803 153.088 39.5461 153.02 39.5461 152.947L39.5161 108.951L70.7868 100.62L70.8168 144.778V144.777Z" fill="black"/>
<path d="M61.0171 108.802L54.7129 106.63C54.1197 106.426 53.5255 106.935 53.6435 107.548L54.599 112.506C54.7532 113.304 53.7584 113.804 53.2005 113.209L42.7886 102.109C42.3684 101.661 42.5816 100.931 43.1768 100.775L51.6694 98.5391C51.9406 98.4672 52.2305 98.5391 52.4355 98.7302L61.8432 107.446C62.4881 108.043 61.8515 109.091 61.0181 108.803L61.0171 108.802Z" fill="white"/>
<path d="M53.7893 113.699C53.9507 113.699 54.1143 113.661 54.2706 113.582C54.6971 113.367 54.9145 112.928 54.8244 112.462L53.869 107.504C53.8286 107.298 53.9011 107.093 54.0615 106.955C54.222 106.817 54.4373 106.776 54.6381 106.845L60.9423 109.017C61.4951 109.208 61.963 108.93 62.1804 108.572C62.3988 108.213 62.4268 107.674 61.9982 107.277L52.5905 98.5616C52.3255 98.3161 51.9591 98.2257 51.6092 98.3171L43.1165 100.553C42.7584 100.647 42.483 100.914 42.3805 101.268C42.278 101.621 42.3671 101.993 42.6197 102.262L53.0315 113.362C53.2385 113.582 53.5087 113.697 53.7882 113.697L53.7893 113.699ZM54.4414 106.356C54.1961 106.356 53.9559 106.443 53.7613 106.61C53.4756 106.855 53.3472 107.221 53.4176 107.59L54.3731 112.548C54.4342 112.865 54.253 113.081 54.0625 113.176C53.8721 113.272 53.5895 113.29 53.3679 113.054L42.9561 101.954C42.8143 101.803 42.7635 101.594 42.8215 101.396C42.8795 101.198 43.0337 101.048 43.2346 100.994L51.7272 98.7589C51.9249 98.7065 52.1299 98.7589 52.2779 98.8955L61.6856 107.611C61.9423 107.849 61.9009 108.151 61.7881 108.338C61.6752 108.525 61.4247 108.7 61.0935 108.587L54.7892 106.416C54.6754 106.376 54.5574 106.357 54.4425 106.357L54.4414 106.356Z" fill="black"/>
<path d="M28.2818 84.093L34.5302 87.8684C34.9732 88.1365 35.5395 87.8088 35.5229 87.2941L35.3086 80.6422C35.2869 79.9631 36.1989 79.7125 36.5322 80.3063L45.001 95.4017C45.1853 95.7305 45.0497 96.1465 44.705 96.3048L37.174 99.7761C36.8728 99.9148 36.5146 99.8069 36.3417 99.5264L27.3843 84.9857C27.0272 84.4053 27.6959 83.7406 28.2818 84.094V84.093Z" fill="white"/>
<path d="M36.9005 100.064C37.0258 100.064 37.1521 100.037 37.2721 99.9814L44.8031 96.5111C45.0246 96.4083 45.1954 96.2183 45.271 95.9871C45.3465 95.756 45.3217 95.5022 45.2027 95.2906L36.7339 80.1951C36.532 79.8356 36.1283 79.6681 35.7276 79.777C35.3281 79.8869 35.0672 80.2372 35.0807 80.6492L35.2949 87.3011C35.3001 87.4583 35.2214 87.599 35.0848 87.6781C34.9482 87.7572 34.7856 87.7552 34.6511 87.674L28.4027 83.8986C28.0476 83.6839 27.6129 83.7363 27.3189 84.0281C27.0259 84.3198 26.9742 84.7523 27.1905 85.1037L36.1479 99.6444C36.3136 99.9125 36.6024 100.064 36.9016 100.064H36.9005ZM35.972 80.1992C36.1024 80.1992 36.2432 80.2557 36.3332 80.417L44.802 95.5125C44.86 95.6163 44.8714 95.7344 44.8352 95.8474C44.7989 95.9604 44.7182 96.0488 44.6105 96.0991L37.0796 99.5694C36.8839 99.6598 36.6521 99.5899 36.5392 99.4071L27.5818 84.8664C27.4535 84.6578 27.529 84.4626 27.6439 84.3496C27.7578 84.2366 27.9545 84.1606 28.1646 84.288L34.413 88.0634C34.6945 88.2339 35.032 88.237 35.3167 88.0716C35.6014 87.9072 35.7649 87.6134 35.7546 87.2867L35.5403 80.6348C35.533 80.3913 35.6956 80.2588 35.8508 80.2157C35.8891 80.2054 35.9305 80.1992 35.973 80.1992H35.972Z" fill="black"/>
<path d="M44.268 101.435L39.1231 97.1911C39.1231 97.1911 41.4275 85.234 51.2782 83.5164C55.0587 82.8568 59.1704 84.1862 62.7894 89.8816C65.6765 94.4245 60.1435 99.6494 44.268 101.436V101.435Z" fill="white"/>
<path d="M44.2677 101.662C44.276 101.662 44.2853 101.662 44.2936 101.66C54.6019 100.5 61.5345 97.7262 63.314 94.0494C63.9921 92.6482 63.8772 91.1647 62.9838 89.7583C59.7509 84.671 55.7997 82.4962 51.2387 83.2903C41.3465 85.0152 38.921 97.0256 38.8983 97.1468C38.8827 97.228 38.9128 97.3112 38.9769 97.3646L44.1218 101.608C44.1632 101.642 44.215 101.661 44.2688 101.661L44.2677 101.662ZM53.0243 83.5882C56.6733 83.5882 59.8855 85.7384 62.5956 90.0018C63.4124 91.287 63.5148 92.5835 62.901 93.8532C61.1971 97.3749 54.4353 100.05 44.3402 101.198L39.3776 97.1037C39.6674 95.8093 42.2885 85.3152 51.3194 83.7403C51.8981 83.6396 52.4674 83.5882 53.0264 83.5882H53.0243Z" fill="black"/>
<path d="M44.2676 101.435C44.2676 101.435 45.9663 90.7198 55.5542 88.4915C65.142 86.2632 70.2858 98.5079 44.2676 101.435Z" fill="white"/>
<path d="M44.2678 101.662C44.276 101.662 44.2854 101.662 44.2936 101.66C59.2748 99.9751 62.5842 95.4826 63.312 93.6294C63.8451 92.2723 63.6236 90.9347 62.6867 89.8642C61.2457 88.2154 58.4249 87.5897 55.5015 88.2688C45.8754 90.5063 44.0576 101.289 44.0411 101.398C44.0297 101.468 44.0524 101.54 44.1021 101.591C44.1456 101.636 44.2056 101.661 44.2678 101.661V101.662ZM57.8152 88.4527C59.7116 88.4527 61.3731 89.0557 62.341 90.1632C63.1598 91.1001 63.3534 92.2723 62.8844 93.464C62.4393 94.5981 61.1867 96.2901 57.751 97.904C54.4995 99.4317 50.0596 100.531 44.5514 101.172C44.9168 99.4399 47.1725 90.6727 55.6061 88.7126C56.3587 88.5379 57.104 88.4527 57.8141 88.4527H57.8152Z" fill="black"/>
<path d="M44.2109 101.256L38.3746 95.7465C38.3746 95.7465 31.2401 88.2573 24.0198 91.4472C19.8231 93.3015 18.4029 97.308 18.0085 100.739C18.0043 100.771 18.0012 100.803 17.9981 100.835C17.7507 103.241 19.2766 105.479 21.5964 106.222L28.5176 108.438C28.5176 108.438 35.2214 109.582 44.2109 101.255V101.256Z" fill="white"/>
<path d="M29.465 108.727C31.6596 108.727 37.2879 107.981 44.3675 101.423C44.4141 101.379 44.4399 101.32 44.4399 101.257C44.4399 101.195 44.4141 101.134 44.3685 101.091L38.5322 95.5813C38.468 95.5135 31.2103 88.0192 23.9258 91.2388C19.5221 93.1845 18.1536 97.4644 17.7799 100.713L17.7696 100.812C17.5149 103.293 19.0946 105.66 21.5262 106.439L28.4474 108.655C28.4578 108.658 28.4682 108.661 28.4785 108.662C28.5375 108.672 28.8781 108.726 29.465 108.726V108.727ZM43.8758 101.254C35.3738 109.036 28.9185 108.266 28.5706 108.216L21.667 106.007C19.4403 105.294 17.9932 103.129 18.2271 100.86L18.2364 100.77C18.5967 97.6359 19.9083 93.5143 24.1132 91.6559C31.0996 88.5708 38.1378 95.8299 38.2082 95.9039L43.8758 101.254Z" fill="black"/>
<path d="M44.2109 101.256C44.2109 101.256 36.7556 94.0557 29.3271 98.2298C19.259 103.887 27.0394 116.187 44.2109 101.256Z" fill="white"/>
<path d="M29.9918 108.618C33.8664 108.618 39.0071 106.084 44.3621 101.428C44.4108 101.386 44.4387 101.326 44.4408 101.263C44.4429 101.199 44.417 101.137 44.3714 101.093C44.2959 101.02 36.707 93.8217 29.2143 98.0316C26.203 99.7236 24.4919 102.157 24.6347 104.542C24.732 106.154 25.7051 107.459 27.3044 108.122C28.1077 108.455 29.0094 108.618 29.9918 108.618ZM43.8673 101.252C34.2401 109.546 28.8965 108.289 27.4815 107.702C26.0498 107.108 25.1792 105.946 25.0923 104.514C24.9618 102.34 26.6274 100.008 29.44 98.4272C35.9999 94.7411 42.6831 100.204 43.8673 101.251V101.252Z" fill="black"/>
</g>
<defs>
<clipPath id="clip0_59_3134">
<rect width="190" height="188" fill="white" transform="matrix(-1 0 0 1 190 -34)"/>
</clipPath>
</defs>
</svg>
