<svg width="158" height="160" viewBox="0 0 158 160" fill="none" xmlns="http://www.w3.org/2000/svg">
<path d="M17.1473 157.456C17.0147 157.456 16.8915 157.368 16.8536 157.235C16.1119 154.618 15.4744 151.936 14.9574 149.267C14.9249 149.103 15.0345 148.944 15.1996 148.912C15.3661 148.882 15.5245 148.988 15.557 149.152C16.0713 151.806 16.7047 154.47 17.441 157.071C17.4871 157.233 17.3923 157.399 17.2299 157.445C17.2028 157.453 17.1744 157.456 17.1473 157.456Z" fill="black"/>
<path d="M33.2567 199.183C33.1755 199.183 33.0956 199.151 33.036 199.089C27.9794 193.787 23.4654 187.909 19.6215 181.616C12.8973 170.611 8.35084 158.633 6.11079 146.016C6.08101 145.852 6.192 145.695 6.35848 145.665C6.52631 145.634 6.68197 145.746 6.71174 145.91C8.93826 158.452 13.4576 170.359 20.1426 181.3C23.9649 187.555 28.4517 193.4 33.4786 198.671C33.595 198.792 33.5896 198.984 33.4665 199.098C33.4069 199.154 33.3325 199.182 33.2567 199.182V199.183Z" fill="black"/>
<path d="M198.979 11.5414C188.022 -0.220884 173.008 -6.67872 156.698 -6.64243C144.507 -6.61554 133.35 -2.7602 123.537 4.81607C118.585 8.64049 114.1 13.3158 110.15 18.7695C106.178 13.3347 101.673 8.67813 96.7039 4.87521C86.8612 -2.65803 75.6894 -6.46364 63.4984 -6.43675C47.1886 -6.40046 32.1999 0.123245 21.2907 11.9326C10.5127 23.6048 4.59387 39.5303 4.62906 56.7785C4.66561 74.5309 11.3546 90.7682 25.6788 107.875C38.4937 123.178 56.8987 138.702 78.2123 156.677C85.4901 162.817 93.7397 169.775 102.306 177.187C104.569 179.148 107.47 180.225 110.477 180.218C113.482 180.211 116.38 179.123 118.632 177.155C127.169 169.703 135.394 162.705 142.65 156.532C163.888 138.467 182.229 122.864 194.982 107.503C209.238 90.334 215.86 74.0684 215.823 56.3134C215.788 39.0665 209.805 23.1666 198.979 11.5428V11.5414Z" fill="white"/>
<path d="M110.449 180.521C107.379 180.521 104.416 179.418 102.104 177.414C93.5501 170.013 85.3113 163.063 78.0416 156.93L78.0145 156.907C56.6928 138.924 38.2784 123.394 25.4445 108.068C11.0716 90.9014 4.35957 74.6036 4.32437 56.7773C4.28918 39.4538 10.2351 23.4544 21.0659 11.7257C32.0333 -0.145445 47.1019 -6.7041 63.4969 -6.7404H63.6254C75.8354 -6.7404 87.0262 -2.91328 96.8892 4.63475C101.764 8.36508 106.224 12.9463 110.148 18.2535C114.05 12.9302 118.49 8.32878 123.349 4.57695C133.217 -3.04233 144.438 -6.91784 156.696 -6.94472C173.102 -6.9743 188.186 -0.488232 199.201 11.3359C210.08 23.0162 216.092 38.9887 216.126 56.3122C216.161 74.1425 209.517 90.4686 195.214 107.694C182.446 123.075 164.095 138.685 142.847 156.76L142.681 156.902C135.472 163.036 127.301 169.988 118.831 177.382C116.523 179.4 113.555 180.514 110.476 180.521H110.447H110.449ZM63.6254 -6.13548H63.4982C47.2751 -6.10053 32.3649 0.388227 21.5139 12.1357C10.786 23.7528 4.89691 39.6057 4.9321 56.7773C4.96729 74.4544 11.6346 90.6299 25.9114 107.682C38.7115 122.967 57.107 138.483 78.4084 156.448L78.4355 156.471C85.7065 162.603 93.948 169.554 102.505 176.96C104.706 178.867 107.525 179.917 110.449 179.917H110.476C113.407 179.91 116.232 178.85 118.43 176.929C126.903 169.533 135.076 162.579 142.287 156.444L142.452 156.302C163.681 138.245 182.012 122.652 194.747 107.311C208.955 90.1997 215.555 73.996 215.52 56.3149C215.486 39.1447 209.532 23.3173 198.755 11.7486C187.888 0.0830789 173.003 -6.33846 156.833 -6.33846H156.699C144.579 -6.31158 133.484 -2.47774 123.724 5.05685C118.808 8.85305 114.324 13.527 110.397 18.9471C110.34 19.0264 110.248 19.0721 110.151 19.0735C110.053 19.0735 109.961 19.0264 109.904 18.9485C105.955 13.5445 101.452 8.89069 96.5197 5.116C86.7663 -2.34869 75.7001 -6.13279 63.6282 -6.13279L63.6254 -6.13548Z" fill="black"/>
<path d="M54.0952 121.882C54.0208 121.882 53.9477 121.855 53.8881 121.801C45.3353 113.948 38.9346 107.405 33.7466 101.209C30.4806 97.3097 27.6288 93.4221 25.2683 89.6569C25.179 89.5144 25.2236 89.3289 25.3657 89.2401C25.5092 89.1514 25.696 89.1958 25.7853 89.3369C28.1309 93.0794 30.9665 96.9441 34.2149 100.822C39.315 106.913 45.8849 113.629 54.3009 121.356C54.4241 121.469 54.4322 121.661 54.3185 121.783C54.259 121.848 54.1764 121.88 54.0952 121.88V121.882Z" fill="black"/>
<path d="M25.5284 89.7994C25.4269 89.7994 25.3267 89.7483 25.2699 89.6569C18.4658 78.7979 15.147 68.0358 15.124 56.7574C15.124 56.5907 15.2594 56.455 15.4286 56.4536C15.5964 56.4536 15.7331 56.588 15.7331 56.7561C15.7561 67.9188 19.0451 78.5761 25.7869 89.337C25.8763 89.4794 25.8316 89.665 25.6895 89.7537C25.6394 89.7846 25.5839 89.7994 25.5284 89.7994Z" fill="black"/>
<path d="M15.4287 57.0583C15.2609 57.0583 15.1242 56.9238 15.1242 56.7558C15.1025 46.3001 17.6417 36.3324 22.4656 27.9308C22.5495 27.7856 22.7349 27.7345 22.8811 27.8179C23.0273 27.9012 23.0787 28.0854 22.9948 28.2306C18.2237 36.5408 15.7116 46.4037 15.7332 56.7545C15.7332 56.9212 15.5979 57.0569 15.4287 57.0583Z" fill="black"/>
<path d="M22.7295 28.3851C22.6781 28.3851 22.6267 28.373 22.5793 28.3461C22.4331 28.2628 22.3817 28.0786 22.4656 27.9334C24.3307 24.6857 26.537 21.6732 29.0247 18.9793C29.1384 18.8556 29.3306 18.8475 29.4551 18.9605C29.5796 19.0734 29.5878 19.2643 29.4741 19.3879C27.0175 22.0482 24.8383 25.0244 22.9962 28.2318C22.9393 28.33 22.8365 28.3851 22.7309 28.3851H22.7295Z" fill="black"/>
<path d="M110.187 37.3849C110.09 37.3849 109.998 37.3378 109.941 37.2599L101.162 25.2462C97.8204 20.6744 94.0401 16.7585 89.9268 13.6103C82.1062 7.62561 73.2583 4.59027 63.6268 4.59027H63.5226C50.353 4.6185 38.2608 9.87322 29.4738 19.3866C29.3601 19.5089 29.168 19.5183 29.0434 19.4054C28.9189 19.2925 28.9108 19.1002 29.0245 18.9779C37.9278 9.33955 50.1784 4.01493 63.5212 3.98535H63.6268C73.3964 3.98535 82.3701 7.06237 90.299 13.1317C94.4596 16.3149 98.2806 20.2711 101.656 24.8913L110.187 36.5662L118.67 24.8577C118.769 24.7219 118.958 24.691 119.095 24.7892C119.231 24.8873 119.263 25.0755 119.164 25.2113L110.435 37.2599C110.378 37.3392 110.286 37.3849 110.189 37.3862L110.187 37.3849Z" fill="black"/>
<path d="M130.165 13.5876C130.074 13.5876 129.984 13.5473 129.924 13.4707C129.82 13.339 129.844 13.1494 129.978 13.0459C137.914 6.9201 146.911 3.80276 156.722 3.78125H156.834C164.185 3.78125 171.165 5.36076 177.584 8.47542C177.735 8.54935 177.798 8.73082 177.723 8.88004C177.649 9.03059 177.467 9.09243 177.316 9.0185C170.983 5.94417 164.092 4.38617 156.834 4.38617H156.723C147.053 4.40768 138.179 7.482 130.353 13.5231C130.298 13.5661 130.231 13.5863 130.166 13.5863L130.165 13.5876Z" fill="black"/>
<path d="M113.249 73.3827C113.249 73.3827 115.991 78.8175 118.711 84.5468C120.352 88.0029 121.753 92.1876 122.019 94.7309C122.443 98.7919 116.301 104.115 111.551 102.348C107.078 100.683 105.313 98.3752 105.313 98.3752C105.313 98.3752 109.435 97.5687 111.439 96.1088C113.444 94.6489 103.207 80.2801 103.207 80.2801L113.25 73.3813L113.249 73.3827Z" fill="white"/>
<path d="M113.539 102.998C112.809 102.998 112.104 102.879 111.445 102.633C106.94 100.958 105.145 98.6577 105.071 98.561C105.007 98.4776 104.991 98.3674 105.029 98.2706C105.067 98.1738 105.152 98.1012 105.255 98.0811C105.296 98.073 109.333 97.2705 111.259 95.8671C111.431 95.742 112.071 94.7661 107.815 87.8055C105.538 84.0833 102.984 80.4927 102.958 80.4564C102.911 80.3906 102.893 80.3086 102.907 80.2293C102.92 80.1499 102.966 80.0787 103.034 80.033L113.077 73.1342C113.15 73.0845 113.241 73.0684 113.326 73.0899C113.411 73.1114 113.483 73.1692 113.522 73.2472C113.549 73.3009 116.297 78.7506 118.988 84.418C120.722 88.0703 122.062 92.2026 122.323 94.7002C122.537 96.7516 121.175 99.2291 118.851 101.012C117.156 102.313 115.281 102.997 113.539 102.997V102.998ZM105.89 98.5637C106.582 99.2694 108.387 100.849 111.659 102.067C113.693 102.824 116.243 102.251 118.479 100.534C120.639 98.8769 121.91 96.6118 121.716 94.7634C121.466 92.3653 120.117 88.2169 118.437 84.6761C116.117 79.7897 113.755 75.0659 113.134 73.8292L103.632 80.3556C104.252 81.2375 106.393 84.3158 108.334 87.4896C112.603 94.469 112.253 95.8899 111.619 96.3523C109.99 97.5393 107.076 98.2908 105.89 98.561V98.5637Z" fill="black"/>
<path d="M64.4872 124.177C64.4872 124.177 60.6365 160.265 58.9487 172.705C57.2609 185.145 59.7594 205.402 59.7594 205.402L69.8173 205.38C69.8173 205.38 71.2385 187.403 72.3294 178.053C72.5974 175.759 73.2363 173.528 74.2054 171.431C75.7281 168.135 78.1157 162.458 79.2093 157.141C80.8809 149.006 85.8171 136.272 85.8171 136.272C85.8171 136.272 86.0093 201.074 86.0865 206.169C86.0865 206.169 93.9341 206.911 96.8441 205.29C96.8441 205.29 103.038 181.974 102.971 169.117C102.905 156.259 105.31 124.443 105.31 124.443L64.4899 124.177H64.4872Z" fill="black"/>
<path d="M65.6555 134.904C65.5012 134.904 65.3685 134.789 65.3523 134.633C65.3347 134.466 65.4565 134.317 65.623 134.301C67.2445 134.133 69.1719 132.992 69.72 130.294C69.7539 130.13 69.9136 130.023 70.0787 130.057C70.2438 130.091 70.3508 130.249 70.3169 130.413C69.7038 133.432 67.5219 134.712 65.6852 134.902C65.6744 134.902 65.6636 134.903 65.6528 134.903L65.6555 134.904Z" fill="white"/>
<path d="M57.8468 81.1743C57.8468 81.1743 56.205 61.0682 69.7387 55.9398C81.9364 51.3169 98.2123 51.3895 106.965 57.1497C111.287 59.9941 116.811 76.1831 116.811 76.1831L108.346 85.109C108.346 85.109 108.745 123.365 106.387 133.341C106.387 133.341 94.9531 134.089 90.228 131.961C85.5029 129.834 69.7847 126.397 62.0304 129.475L65.8595 80.8773L57.8468 81.1743Z" fill="white"/>
<path d="M101.778 133.774C98.0311 133.774 92.9338 133.509 90.1023 132.235C85.4503 130.14 69.8931 126.679 62.1443 129.754C62.0468 129.793 61.9358 129.779 61.8506 129.717C61.7653 129.655 61.7193 129.554 61.7274 129.449L65.5294 81.1903L57.8577 81.4753C57.698 81.4914 57.5559 81.3583 57.5424 81.197C57.5383 81.1459 57.1431 76.0592 58.4194 70.412C60.1194 62.8922 63.9959 57.7894 69.6292 55.6547C82.5145 50.771 98.6375 51.3047 107.133 56.8941C111.492 59.7628 116.873 75.418 117.099 76.0834C117.136 76.1896 117.11 76.3066 117.033 76.3886L108.652 85.2258C108.674 87.6226 108.957 123.791 106.684 133.408C106.653 133.537 106.541 133.633 106.408 133.641C106.218 133.653 104.305 133.774 101.778 133.774ZM70.1787 127.942C77.9464 127.942 86.9811 130.164 90.354 131.683C94.5932 133.592 104.517 133.139 106.141 133.051C108.408 122.891 108.046 85.4892 108.042 85.1102C108.042 85.0322 108.07 84.9569 108.124 84.8991L116.463 76.1063C115.855 74.3655 110.747 59.9993 106.796 57.3995C98.4493 51.9069 82.5646 51.4001 69.8457 56.2206C57.56 60.8758 58.0053 78.3875 58.1325 80.8596L65.8475 80.5733C65.9354 80.5666 66.018 80.6042 66.0789 80.666C66.1398 80.7279 66.1696 80.8126 66.1628 80.8986L62.3717 129.022C64.5562 128.25 67.2795 127.941 70.1773 127.941L70.1787 127.942Z" fill="black"/>
<path d="M72.9818 120.349C72.8303 120.349 72.699 120.237 72.68 120.084C72.6597 119.919 72.7775 119.767 72.9439 119.747C91.1987 117.476 97.0877 105.315 97.1446 105.192C97.215 105.04 97.3963 104.975 97.5493 105.046C97.7022 105.117 97.7686 105.296 97.6968 105.448C97.6386 105.574 91.6047 118.037 73.0197 120.348C73.0076 120.349 72.994 120.35 72.9818 120.35V120.349Z" fill="black"/>
<path d="M100.264 71.821C100.264 71.821 103.835 77.7506 109.847 85.7677C115.861 93.7849 115.183 96.6603 111.964 99.7763C108.745 102.892 97.2406 99.0128 87.6538 84.1237C78.0669 69.2333 87.1327 64.9787 90.2281 64.5795C96.0496 63.8294 100.263 71.821 100.263 71.821H100.264Z" fill="white"/>
<path d="M108.946 101.08C108.624 101.08 108.287 101.06 107.936 101.02C103.074 100.465 94.78 95.7475 87.3994 84.285C83.2685 77.8688 82.0774 72.6894 83.86 68.8932C85.3596 65.7006 88.5458 64.4894 90.1916 64.2783C96.1105 63.5094 100.302 71.2403 100.531 71.6718C100.675 71.9097 104.252 77.7989 110.094 85.5862C116.126 93.629 115.529 96.7477 112.179 99.9914C111.438 100.709 110.332 101.079 108.946 101.079V101.08ZM90.9956 64.8322C90.7561 64.8322 90.5138 64.847 90.2688 64.8792C88.8517 65.062 85.8022 66.1899 84.4122 69.1499C82.7474 72.6961 83.9574 77.8164 87.9123 83.9597C95.1766 95.2434 103.276 99.8784 108.005 100.419C109.655 100.608 110.987 100.303 111.753 99.5599C114.916 96.4963 115.402 93.6787 109.604 85.9492C103.65 78.0113 100.038 72.0361 100.003 71.9756C100 71.9702 99.9978 71.9662 99.9951 71.9608C99.9558 71.8869 96.1701 64.8322 90.9956 64.8322Z" fill="black"/>
<path d="M96.0416 68.4484C96.0416 68.4484 98.8962 71.1759 99.1114 73.972C99.3266 76.7667 96.3597 78.2279 92.3533 75.7558C88.347 73.2837 89.1672 70.2551 90.4828 68.857C93.3225 65.8392 96.0416 68.4497 96.0416 68.4497V68.4484Z" fill="white"/>
<path d="M96.1552 77.3164C94.9681 77.3164 93.5889 76.8728 92.1907 76.0112C89.9114 74.6037 89.2685 73.074 89.1305 72.0389C88.9708 70.8371 89.3917 69.5695 90.2593 68.6486C91.2013 67.6472 92.2368 67.1256 93.3358 67.0987C95.006 67.0423 96.2025 68.1822 96.2526 68.2306C96.3798 68.3516 99.1938 71.075 99.4144 73.9477C99.5105 75.1992 99.0124 76.2518 98.046 76.8339C97.51 77.1578 96.8671 77.3164 96.1552 77.3164ZM93.4251 67.7023C93.3981 67.7023 93.371 67.7023 93.3439 67.7023C92.4168 67.7278 91.5289 68.1849 90.7032 69.0613C89.9602 69.8518 89.5974 70.9339 89.7341 71.9582C89.9074 73.2581 90.8684 74.4814 92.5129 75.4963C94.5472 76.7519 96.4976 77.0583 97.7293 76.3163C98.5035 75.8499 98.8865 75.0245 98.8067 73.9934C98.6023 71.3479 95.856 68.6917 95.829 68.6648C95.8141 68.65 94.7976 67.7009 93.4251 67.7009V67.7023Z" fill="black"/>
<path d="M59.6704 80.7129L69.999 80.2505C69.999 80.2505 70.0762 88.8887 71.0087 89.042C74.3289 89.5918 81.2818 89.6186 85.8066 89.0769C87.3821 88.8874 88.63 87.691 88.9264 86.1424C89.1497 84.9729 89.3947 83.2065 91.406 82.6097C93.1656 82.0881 91.4277 84.661 92.8895 86.5967C93.6745 87.6372 96.1622 87.1761 99.5528 86.3951C102.945 85.6154 103.805 89.214 100.005 91.389C95.8848 93.7469 93.2671 93.4821 91.9528 93.759C89.3352 94.3088 66.1957 97.9114 62.6238 95.9824C59.864 94.4929 59.6731 80.7116 59.6731 80.7116L59.6704 80.7129Z" fill="white"/>
<path d="M67.0388 96.8335C64.8948 96.8335 63.249 96.6655 62.4761 96.2488C59.6419 94.719 59.3861 82.1448 59.3658 80.7158C59.3631 80.5518 59.493 80.4174 59.6568 80.4093L69.984 79.9469C70.0652 79.9415 70.1478 79.9724 70.2073 80.0302C70.2669 80.0867 70.3021 80.1647 70.3021 80.2467C70.3359 83.9971 70.6472 88.2786 71.0939 88.7491C74.4587 89.2976 81.2993 89.311 85.7686 88.776C87.2019 88.6039 88.3497 87.5231 88.6258 86.0848L88.6556 85.9275C88.8789 84.7392 89.2159 82.9419 91.3166 82.3195C91.5832 82.2402 91.973 82.1595 92.26 82.3827C92.6024 82.6475 92.5835 83.1422 92.5578 83.77C92.5266 84.5685 92.4874 85.5632 93.1303 86.4155C93.8125 87.3188 96.4098 86.808 99.4809 86.1009C101.304 85.6815 102.315 86.4397 102.652 87.2892C103.108 88.4399 102.521 90.2964 100.154 91.6514C96.8578 93.5374 94.5379 93.7713 93.0031 93.9259C92.6132 93.9649 92.2762 93.9998 92.0123 94.0549C89.8034 94.5187 74.9974 96.8335 67.0361 96.8335H67.0388ZM59.9803 81.0021C60.0588 84.9879 60.6854 94.594 62.7671 95.7178C66.2037 97.5729 89.22 94.024 91.8878 93.4634C92.1842 93.4016 92.5361 93.3653 92.9435 93.325C94.4269 93.1758 96.6683 92.9499 99.8504 91.1285C101.906 89.9522 102.451 88.4292 102.086 87.5124C101.775 86.7287 100.83 86.4128 99.619 86.6924C96.1066 87.5003 93.5499 87.9802 92.643 86.7798C91.8688 85.7554 91.9148 84.5954 91.9487 83.7471C91.9622 83.4043 91.9812 82.9352 91.8851 82.8626C91.8593 82.8424 91.7443 82.8263 91.4898 82.9016C89.7452 83.4191 89.4718 84.8723 89.2525 86.0404L89.2227 86.1991C88.8979 87.8969 87.539 89.1752 85.8403 89.3782C81.3088 89.9213 74.3545 89.9038 70.9558 89.3419C70.6486 89.2909 70.1342 89.2062 69.8473 84.6088C69.7431 82.9312 69.7065 81.2481 69.6957 80.5679L59.9776 81.0035L59.9803 81.0021Z" fill="black"/>
<path d="M115.01 95.6358L115.004 95.6532C114.65 96.8873 113.349 97.5943 112.112 97.226C110.872 96.8563 110.712 96.7851 109.598 96.1882L108.311 95.4986C107.35 94.9838 105.876 95.3037 105.707 96.2823C105.47 97.6562 104.944 99.764 112.09 103.22C116.251 105.231 117.895 99.4561 117.342 96.6977C117.2 95.992 116.804 95.539 116.396 95.2513C115.907 94.9072 115.171 95.1115 115.01 95.6371V95.6358Z" fill="white"/>
<path d="M113.724 103.937C113.211 103.937 112.622 103.812 111.958 103.49C104.749 100.005 105.136 97.7826 105.393 96.3134L105.408 96.23C105.485 95.7783 105.787 95.4046 106.257 95.1761C106.916 94.8575 107.801 94.879 108.456 95.2312L109.743 95.9208C110.832 96.5042 110.968 96.5674 112.2 96.9357C112.72 97.0903 113.268 97.0325 113.744 96.7744C114.219 96.5163 114.565 96.0889 114.713 95.57C114.713 95.5686 114.719 95.5498 114.72 95.5485C114.82 95.2218 115.08 94.9664 115.432 94.8468C115.821 94.7164 116.248 94.7742 116.575 95.004C117.147 95.4073 117.506 95.9571 117.642 96.6373C118.004 98.4373 117.477 101.845 115.581 103.298C115.148 103.63 114.529 103.937 113.725 103.937H113.724ZM107.291 95.5565C107.019 95.5565 106.749 95.6103 106.522 95.7205C106.318 95.8187 106.063 96.0055 106.008 96.3308L105.993 96.4155C105.767 97.7074 105.427 99.6592 112.224 102.945C113.371 103.498 114.374 103.457 115.208 102.817C116.847 101.56 117.381 98.4386 117.044 96.7529C116.939 96.2287 116.663 95.8052 116.221 95.4947C116.058 95.3791 115.83 95.3482 115.628 95.4167C115.465 95.4718 115.346 95.5821 115.304 95.7192L115.3 95.734C115.106 96.4075 114.658 96.9653 114.038 97.3014C113.418 97.6388 112.704 97.7127 112.027 97.5111C110.749 97.1307 110.558 97.0406 109.455 96.4491L108.168 95.7595C107.911 95.6224 107.599 95.5525 107.292 95.5525L107.291 95.5565Z" fill="black"/>
<path d="M96.6549 41.9031C97.5522 41.4984 98.0178 42.1719 99.3565 41.9891C100.778 41.7955 102.342 40.7497 102.928 39.2199C103.636 37.3729 102.616 35.6133 101.971 34.5029C101.331 33.3993 100.516 32.1693 99.102 31.6383C97.2585 30.946 96.487 32.0093 94.3756 31.356C92.6593 30.825 92.7838 30.0036 91.2571 29.5721C89.9834 29.2119 86.3127 29.4175 85.4912 31.356C84.9701 32.586 86.0935 33.3347 85.5331 35.1562C85.1961 36.2504 84.6682 36.3835 84.2825 37.2291C83.3256 39.3248 84.5248 43.0054 86.8095 44.238C89.909 45.9116 95.1065 42.5994 96.6549 41.9017V41.9031Z" fill="black"/>
<path d="M93.8048 45.4185L94.5262 51.2969C94.6629 52.4167 95.4763 53.3389 96.574 53.6225L99.6181 54.4103L99.189 54.7342C93.8968 58.7361 86.5662 58.7428 81.2673 54.7504L79.6904 53.562L83.4721 52.7232C84.559 52.4826 85.3941 51.6182 85.5917 50.5294L87.1631 41.8696L93.8048 45.4171V45.4185Z" fill="white"/>
<path d="M90.2178 58.0331C86.9951 58.0331 83.7737 57.0195 81.083 54.9937L79.5061 53.8054C79.4114 53.7341 79.3667 53.6145 79.3924 53.5002C79.4181 53.3846 79.5075 53.2945 79.6239 53.269L83.4056 52.4302C84.3747 52.2151 85.115 51.4489 85.291 50.4783L86.8624 41.8186C86.88 41.7231 86.9423 41.6425 87.0303 41.5995C87.1182 41.5578 87.2211 41.5591 87.3064 41.6048L93.948 45.1523C94.0346 45.1994 94.0942 45.2841 94.1064 45.3822L94.8278 51.2607C94.951 52.2635 95.667 53.0754 96.651 53.3308L99.695 54.1186C99.8073 54.1481 99.894 54.2382 99.917 54.3525C99.94 54.4654 99.8953 54.5823 99.8033 54.6523L99.3742 54.9762C96.6807 57.0141 93.4486 58.0331 90.2178 58.0331ZM80.3981 53.7166L81.4511 54.5098C86.5985 58.388 93.7761 58.3987 98.9343 54.546L96.4967 53.9156C95.269 53.597 94.3757 52.5834 94.2228 51.3333L93.5203 45.6107L87.3876 42.3348L85.8906 50.5845C85.6713 51.7957 84.7469 52.7515 83.5382 53.019L80.3981 53.7153V53.7166Z" fill="black"/>
<path d="M87.9183 43.0647C87.9183 43.0647 85.5821 42.1896 86.4592 40.2727C87.3363 38.3544 88.7642 39.7713 88.7642 39.7713C88.7642 39.7713 90.092 35.0475 92.8802 36.9107C95.6698 38.7738 98.3118 39.4513 98.3118 39.4513C98.3118 39.4513 97.3292 44.2046 95.5656 47.369C94.5017 49.2765 93.1536 50.606 91.5646 49.9648C87.2144 48.2105 87.9169 43.066 87.9169 43.066L87.9183 43.0647Z" fill="white"/>
<path d="M92.3846 50.434C92.0773 50.434 91.766 50.3708 91.452 50.2444C87.4727 48.6394 87.5228 44.3015 87.5959 43.2543C87.2128 43.0701 86.4292 42.6117 86.103 41.8307C85.8851 41.3064 85.9108 40.7405 86.1828 40.1477C86.4928 39.4702 86.9124 39.079 87.4281 38.9862C87.8923 38.9029 88.3214 39.0884 88.6097 39.2712C88.8993 38.4701 89.6492 36.7669 90.9323 36.2977C91.6077 36.049 92.321 36.1727 93.0519 36.6607C95.7616 38.4714 98.363 39.1516 98.3901 39.1597C98.5471 39.2 98.6445 39.3559 98.6121 39.5132C98.5715 39.7095 97.5996 44.3485 95.8333 47.5169C94.7505 49.4594 93.5933 50.4367 92.3832 50.4367L92.3846 50.434ZM87.6636 39.5697C87.6202 39.5697 87.5769 39.5737 87.535 39.5818C87.2277 39.6382 86.9597 39.9124 86.7378 40.3977C86.5361 40.8373 86.5131 41.2298 86.6674 41.5981C86.9963 42.3872 88.0168 42.7771 88.0263 42.7811C88.1589 42.8308 88.2402 42.9653 88.2212 43.1051C88.1941 43.3054 87.6067 48.0385 91.6808 49.6825C92.8976 50.1745 94.1157 49.3451 95.3 47.2212C96.7821 44.5649 97.716 40.715 97.9543 39.6638C97.1922 39.4352 95.0144 38.6999 92.7121 37.1621C92.145 36.783 91.632 36.6862 91.1434 36.8637C89.775 37.3637 89.0658 39.8278 89.0577 39.852C89.0279 39.9555 88.9467 40.0361 88.8411 40.063C88.7369 40.0912 88.6245 40.0603 88.5488 39.985C88.5447 39.981 88.1183 39.5697 87.6622 39.5697H87.6636Z" fill="black"/>
<path d="M149.068 38.7855C152.542 35.0512 157.707 34.2648 161.59 35.3187C166.504 36.6509 168.982 40.8732 170.729 43.8507C173.818 49.1135 172.326 51.0197 174.755 54.0779C179.055 59.4926 189.485 55.9074 194.563 60.0666C206.765 70.0598 200.114 86.5754 189.298 94.3735C182.085 99.5731 172.272 96.566 169.603 95.7473C161.501 93.2645 148.077 88.3996 146.776 76.7811C145.902 68.9696 153.931 62.7067 149.617 56.1951C148.52 54.5363 147.609 54.0873 146.793 52.0131C145.468 48.6457 145.17 42.9756 149.068 38.7855Z" fill="black"/>
<path d="M136.874 85.813C136.874 85.813 133.415 101.578 132.459 108.901C131.503 116.223 133.147 126.047 136.265 123.646C139.383 121.245 144.791 90.3189 144.791 90.3189L136.873 85.813H136.874Z" fill="white"/>
<path d="M135.337 124.318C135.046 124.318 134.799 124.228 134.607 124.119C132.279 122.795 131.379 114.83 132.157 108.863C133.103 101.612 136.541 85.9071 136.576 85.7499C136.597 85.6558 136.662 85.5765 136.751 85.5375C136.84 85.4985 136.942 85.5025 137.026 85.5523L144.944 90.0582C145.055 90.1214 145.114 90.2464 145.093 90.3728C144.871 91.6404 139.63 121.443 136.453 123.888C136.036 124.209 135.659 124.319 135.337 124.319V124.318ZM137.084 86.2809C136.538 88.7946 133.619 102.366 132.762 108.94C131.954 115.133 133.038 122.528 134.91 123.594C135.139 123.724 135.51 123.846 136.081 123.408C138.543 121.513 142.924 99.1992 144.456 90.4763L137.085 86.2809H137.084Z" fill="black"/>
<path d="M193.598 88.1709C192.692 85.0805 191.55 81.3582 190.554 78.6657C187.15 69.4548 180.095 67.3967 177.346 66.7434C176.913 66.6399 172.024 65.996 172.024 65.996V66.0014C166.529 64.5818 158.91 63.9339 150.018 66.7461C149.735 66.8348 149.46 66.941 149.189 67.0539V67.0512C142.905 68.534 137.199 81.8583 135.626 85.8279C135.374 86.4637 135.631 87.1856 136.228 87.5257L140.582 90.0032L134.948 122.225C134.538 125.66 135.37 134.711 138.627 135.937C142.028 137.218 150.961 132.717 158.243 132.717C166.05 132.717 175.477 132.673 178.643 131.296C178.736 131.256 178.306 136.489 178.403 136.443C182.477 134.559 185.402 125.012 185.002 120.566L183.319 113.622C181.963 108.024 181.142 102.317 180.856 96.5753L187.537 99.2934L190.589 97.527C193.415 95.3063 194.604 91.6082 193.597 88.1709H193.598Z" fill="white"/>
<path d="M178.405 136.746C178.344 136.746 178.283 136.728 178.23 136.693C178.107 136.609 178.104 135.652 178.222 133.821C178.27 133.09 178.325 132.229 178.347 131.737C174.981 132.917 166.922 133.02 158.246 133.02C154.747 133.02 150.823 134.082 147.361 135.019C143.606 136.035 140.363 136.911 138.523 136.219C135.074 134.922 134.232 125.681 134.649 122.189L140.25 90.1592L136.081 87.7879C135.358 87.3765 135.041 86.4866 135.346 85.7164C136.957 81.6527 142.706 68.2786 149.117 66.7582C149.417 66.6332 149.677 66.5378 149.929 66.4585C157.389 64.0993 164.832 63.8412 172.05 65.6949C172.056 65.6949 172.062 65.6949 172.068 65.6963C172.57 65.7621 176.985 66.3456 177.421 66.4491C183.929 67.9936 188.444 72.0694 190.842 78.5609C191.673 80.8071 192.699 84.0119 193.893 88.085C194.939 91.6567 193.719 95.4556 190.783 97.7623C190.772 97.7717 190.76 97.7798 190.748 97.7865L187.695 99.5529C187.614 99.5999 187.514 99.6066 187.426 99.5717L181.191 97.0351C181.496 102.598 182.313 108.151 183.621 113.549L185.304 120.494C185.306 120.509 185.309 120.523 185.311 120.538C185.691 124.77 182.861 134.715 178.538 136.716C178.497 136.735 178.452 136.745 178.409 136.745L178.405 136.746ZM178.646 130.994C178.708 130.994 178.77 131.013 178.823 131.049C178.943 131.133 178.945 132.07 178.83 133.86C178.783 134.583 178.728 135.427 178.705 135.938C182.36 133.698 185.086 125.004 184.701 120.615L183.024 113.692C181.671 108.102 180.839 102.348 180.553 96.5888C180.548 96.4853 180.596 96.3871 180.682 96.3266C180.767 96.2675 180.876 96.254 180.973 96.293L187.514 98.9547L190.417 97.2743C193.146 95.1195 194.279 91.5814 193.304 88.253C192.131 84.2498 191.082 80.9698 190.267 78.7679C187.943 72.4781 183.571 68.53 177.276 67.0365C176.973 66.9639 173.999 66.5606 172.039 66.3025C172.011 66.3039 171.98 66.3025 171.95 66.2931C164.828 64.4542 157.481 64.7029 150.111 67.0338C149.865 67.1118 149.611 67.2072 149.309 67.3322C149.28 67.3443 149.249 67.3524 149.219 67.3538C143.11 68.8486 137.49 81.9498 135.91 85.9368C135.713 86.4369 135.91 86.9934 136.381 87.2609L140.736 89.7384C140.847 89.8016 140.906 89.9279 140.884 90.053L135.25 122.276C134.832 125.792 135.711 134.513 138.738 135.652C140.393 136.275 143.548 135.422 147.2 134.432C150.699 133.486 154.665 132.412 158.245 132.412C165.042 132.412 175.314 132.412 178.523 131.015C178.562 130.998 178.604 130.99 178.646 130.99V130.994Z" fill="black"/>
<path d="M145.358 116.848C145.631 116.186 146.184 115.677 146.873 115.464C150.687 114.275 163.986 111.143 177.676 119.863C178.321 120.275 178.735 120.964 178.79 121.725C179.285 128.635 181.13 164.754 169.625 207.52L161.875 206.972L160.295 133.849C160.295 133.849 148.816 160.655 158.15 203.318L150.09 204.797C150.09 204.797 138.294 189.393 136.181 165.853C134.313 145.029 143.267 121.908 145.358 116.85V116.848Z" fill="white"/>
<path d="M169.625 207.821C169.617 207.821 169.61 207.821 169.603 207.821L161.853 207.273C161.696 207.262 161.574 207.134 161.57 206.977L160.025 135.423C159.107 138.008 157.249 143.959 156.021 152.654C154.474 163.605 153.639 181.272 158.449 203.254C158.467 203.333 158.45 203.418 158.404 203.485C158.358 203.553 158.287 203.6 158.205 203.615L150.144 205.094C150.032 205.113 149.915 205.07 149.846 204.98C149.728 204.825 137.973 189.236 135.877 165.879C133.99 144.848 143.207 121.25 145.075 116.733C145.385 115.983 146.006 115.415 146.781 115.175C150.576 113.992 164.032 110.814 177.839 119.608C178.564 120.069 179.032 120.853 179.093 121.703C179.581 128.533 181.438 164.775 169.919 207.597C169.883 207.73 169.762 207.821 169.625 207.821ZM162.174 206.688L169.395 207.199C180.817 164.576 178.971 128.546 178.485 121.746C178.438 121.084 178.074 120.477 177.51 120.118C163.927 111.466 150.695 114.589 146.963 115.753C146.362 115.94 145.88 116.381 145.64 116.964C143.783 121.458 134.61 144.934 136.484 165.827C138.456 187.797 149.021 202.822 150.221 204.466L157.786 203.079C153.03 181.139 153.87 163.498 155.42 152.545C157.109 140.61 159.985 133.8 160.014 133.732C160.069 133.601 160.21 133.525 160.352 133.554C160.493 133.58 160.596 133.701 160.598 133.844L162.173 206.689L162.174 206.688Z" fill="black"/>
<path d="M159.621 140.855H159.612C159.444 140.85 159.312 140.71 159.316 140.543L159.523 133.596C159.561 132.321 158.956 131.12 157.905 130.388L154.887 128.28C154.749 128.183 154.716 127.995 154.812 127.858C154.91 127.721 155.099 127.688 155.237 127.784L158.256 129.892C159.475 130.742 160.176 132.135 160.133 133.614L159.926 140.561C159.921 140.725 159.785 140.855 159.621 140.855Z" fill="black"/>
<path d="M163.464 48.5465C163.174 48.6729 162.843 48.5169 162.76 48.2118C162.367 46.7627 160.945 44.4304 159.146 43.7757C156.84 42.9369 154.02 43.3321 153.196 45.0649C152.477 46.5771 152.862 47.5921 150.873 49.4203C150.683 49.595 150.787 49.927 150.972 50.1072L151.948 51.1557C152.157 51.3573 152.28 51.9649 152.272 52.2553C152.247 53.1533 152.121 55.0541 152.4 55.335C152.943 55.8848 155.969 56.073 155.969 56.073L157.343 64.5983C157.396 64.9223 157.169 65.2248 156.844 65.2651L153.855 65.8767C153.855 65.8767 155.754 69.3664 163.005 69.7751C167.639 70.0359 173.565 67.0435 173.565 67.0435C173.565 67.0435 162.631 64.8685 162.745 54.2287C162.748 53.9948 162.876 53.7797 163.079 53.6641C163.859 53.2205 165.976 51.891 165.839 50.2604C165.694 48.529 164.459 48.115 163.465 48.5478L163.464 48.5465Z" fill="white"/>
<path d="M163.598 70.0936C163.392 70.0936 163.189 70.0882 162.986 70.0761C155.65 69.6621 153.667 66.1684 153.586 66.0205C153.54 65.9358 153.537 65.835 153.578 65.7489C153.618 65.6616 153.698 65.5997 153.793 65.5796L156.781 64.9666C156.879 64.9531 156.944 64.9155 156.989 64.8563C157.035 64.7959 157.053 64.7206 157.041 64.644L155.705 56.3566C154.869 56.2934 152.711 56.081 152.182 55.546C151.902 55.2623 151.884 54.445 151.951 52.719C151.958 52.5443 151.963 52.3829 151.967 52.2458C151.975 51.9676 151.845 51.4769 151.736 51.3707L150.749 50.3114C150.577 50.1461 150.465 49.8907 150.467 49.6568C150.47 49.4766 150.54 49.314 150.666 49.1984C151.975 47.9953 152.194 47.2035 152.449 46.2881C152.567 45.866 152.687 45.4291 152.921 44.9357C153.861 42.9623 156.938 42.6505 159.252 43.4906C161.201 44.2004 162.649 46.6322 163.055 48.1324C163.077 48.2144 163.133 48.252 163.166 48.2668C163.198 48.2816 163.265 48.3031 163.342 48.2682C163.956 48.0006 164.609 48.0248 165.128 48.3327C165.539 48.576 166.048 49.1029 166.142 50.2335C166.283 51.9232 164.377 53.2715 163.23 53.9248C163.119 53.988 163.05 54.1049 163.048 54.23C162.939 64.5001 173.516 66.7235 173.623 66.745C173.75 66.7706 173.848 66.8727 173.865 67.0004C173.883 67.1282 173.818 67.2532 173.702 67.311C173.467 67.4293 168.141 70.0909 163.598 70.0909V70.0936ZM154.372 66.0796C155.077 66.9453 157.412 69.1566 163.021 69.4725C166.57 69.6715 170.958 67.8957 172.682 67.1214C170.101 66.3418 162.343 63.2473 162.439 54.2246C162.443 53.8858 162.63 53.5686 162.926 53.4005C163.749 52.9327 165.652 51.692 165.535 50.2845C165.478 49.5923 165.229 49.0976 164.817 48.8543C164.468 48.6472 164.02 48.6365 163.587 48.8247C163.368 48.9201 163.117 48.9161 162.903 48.8139C162.688 48.7118 162.53 48.5209 162.468 48.291C162.106 46.9562 160.769 44.6884 159.043 44.0606C156.972 43.3065 154.24 43.5834 153.473 45.1952C153.261 45.6415 153.147 46.0515 153.038 46.4494C152.782 47.3702 152.518 48.3233 151.082 49.6433C151.066 49.6702 151.091 49.7993 151.186 49.8907L152.173 50.95C152.469 51.2363 152.586 51.9595 152.577 52.2633C152.573 52.4018 152.568 52.5658 152.56 52.7432C152.535 53.3858 152.479 54.8886 152.63 55.1387C152.935 55.4452 154.78 55.6965 155.988 55.7718C156.13 55.7812 156.247 55.8861 156.27 56.0259L157.644 64.5512C157.682 64.7905 157.623 65.0284 157.477 65.222C157.332 65.4142 157.121 65.5365 156.882 65.5661L154.374 66.081L154.372 66.0796Z" fill="black"/>
<path d="M119.088 166.587C120.647 159.559 130.031 161.659 132.517 174.096C133.492 178.969 135.407 187.119 135.274 190.704C135.224 192.057 135.726 193.374 136.626 194.389C142.997 201.571 142.693 202.391 145.108 209.821C145.145 209.938 143.199 213.043 141.829 213.48C136.312 209.301 130.992 199.878 128.057 196.552C125.12 193.224 119.317 172.859 119.317 172.859C119.317 172.859 118.134 170.893 119.089 166.584L119.088 166.587Z" fill="black"/>
<path d="M130.621 143.996C131.736 143.893 133.578 144.486 136.884 141.015C142.363 145.81 150.252 143.623 153.39 140.187C157.224 135.989 157.098 127.893 151.993 123.51C156.19 123.665 157.391 122.114 157.752 121.497C159.886 117.865 155.098 108.927 150.258 108.694C148.471 108.608 145.999 110.694 141.131 114.87C136.101 119.182 135.856 120.052 134.389 120.142C130.078 120.409 129.109 113.18 123.473 112.03C118.91 111.1 114.199 114.517 113.949 120.01C113.847 122.219 116.616 121.885 118.01 126.337C119.801 132.057 123.794 144.623 130.622 143.994L130.621 143.996Z" fill="black"/>
<path d="M108.268 135.103C103.772 135.907 101.708 135.894 97.9897 134.173C97.9897 134.173 93.8466 131.896 94.2378 130.732L95.4424 120.357C95.6387 118.784 95.5101 117.187 95.0634 115.665L93.6152 111.616C93.3688 110.929 92.3429 111.119 92.3632 111.849L92.4214 113.949C92.4214 113.949 91.727 113.957 91.4347 113.848C90.7945 113.609 90.3113 113.073 90.0839 112.432C89.8199 111.692 89.3868 110.507 89.2068 110.182C88.9375 109.699 88.6262 109 88.0685 108.694L88.0523 108.684C87.4662 108.371 86.7719 108.857 86.872 109.51L87.2185 111.772C87.4703 113.415 88.2431 114.935 89.4247 116.11L91.7676 118.44C92.2021 118.871 92.332 119.519 92.0992 120.082L88.1186 129.702C87.2212 131.923 86.9938 134.016 87.5772 135.388C90.6144 142.538 109.356 147.036 109.356 147.036L108.268 135.103Z" fill="white"/>
<path d="M109.356 147.34C109.332 147.34 109.309 147.337 109.284 147.332C108.513 147.146 90.3571 142.716 87.2968 135.508C86.6931 134.087 86.8907 131.931 87.8355 129.59L91.8175 119.968C92.0043 119.515 91.9014 119 91.5522 118.653L89.2093 116.324C87.9722 115.094 87.1804 113.536 86.9165 111.818L86.57 109.555C86.5063 109.139 86.6823 108.73 87.0288 108.487C87.3753 108.245 87.8233 108.218 88.1955 108.418C88.7748 108.735 89.0997 109.34 89.3609 109.827C89.4001 109.9 89.4367 109.969 89.4732 110.035C89.6587 110.367 90.0634 111.467 90.372 112.331C90.579 112.915 91.0068 113.364 91.5427 113.564C91.6524 113.604 91.8852 113.629 92.1085 113.639L92.0584 111.857C92.0449 111.382 92.363 110.991 92.8326 110.904C93.3023 110.816 93.7422 111.068 93.9019 111.515L95.3501 115.564C95.8171 117.152 95.9484 118.77 95.7454 120.394L94.5408 130.767C94.538 130.788 94.534 130.808 94.5272 130.828C94.3404 131.382 96.2435 132.869 98.137 133.909C101.762 135.586 103.738 135.607 108.214 134.806C108.298 134.791 108.384 134.811 108.452 134.864C108.52 134.915 108.563 134.993 108.571 135.078L109.659 147.011C109.668 147.107 109.63 147.203 109.555 147.267C109.5 147.316 109.428 147.341 109.356 147.341V147.34ZM87.665 108.89C87.5648 108.89 87.4673 108.921 87.3807 108.981C87.2224 109.093 87.1439 109.273 87.1736 109.464L87.5201 111.726C87.7638 113.317 88.496 114.758 89.6411 115.896L91.984 118.226C92.5064 118.745 92.6621 119.519 92.3806 120.198L88.3999 129.817C87.5147 132.009 87.3171 133.997 87.8571 135.271C90.5533 141.617 106.25 145.924 109.012 146.638L107.993 135.459C103.669 136.213 101.533 136.148 97.8595 134.447C96.8255 133.88 93.5676 131.971 93.9371 130.67L95.139 120.323C95.3312 118.778 95.208 117.242 94.7695 115.751L93.3267 111.718C93.2346 111.459 92.991 111.49 92.9436 111.499C92.8962 111.509 92.658 111.566 92.6662 111.841L92.7244 113.94C92.7271 114.021 92.6959 114.1 92.6391 114.158C92.5822 114.217 92.5051 114.25 92.4225 114.251C92.2966 114.251 91.6551 114.254 91.3262 114.13C90.621 113.866 90.0634 113.284 89.7954 112.533C89.3785 111.359 89.0658 110.556 88.9386 110.328C88.9007 110.26 88.8614 110.187 88.8208 110.112C88.5867 109.674 88.32 109.179 87.9194 108.959C87.8341 108.913 87.7462 108.89 87.6622 108.89H87.665Z" fill="black"/>
<path d="M104.229 134.817C103.966 134.953 103.834 135.251 103.906 135.536L106.071 144.169C106.765 146.689 107.174 149.28 107.292 151.89L108.024 168.156C108.024 168.156 116.547 174.247 133.248 169.901L134.603 154.53C134.885 151.33 135.607 148.181 136.747 145.174L138.86 139.606C138.979 139.293 138.872 138.941 138.599 138.745C137.405 137.89 134.058 135.634 130.586 134.573C124.695 132.773 109.781 131.944 104.228 134.817H104.229Z" fill="white"/>
<path d="M121.849 171.753C112.677 171.753 107.91 168.448 107.847 168.402C107.771 168.348 107.725 168.262 107.721 168.169L106.989 151.904C106.872 149.319 106.465 146.743 105.777 144.248L103.61 135.609C103.503 135.185 103.701 134.748 104.088 134.548C109.977 131.501 125.063 132.569 130.676 134.284C134.163 135.35 137.503 137.587 138.777 138.5C139.16 138.774 139.312 139.273 139.145 139.714L137.032 145.282C135.901 148.263 135.186 151.383 134.906 154.557L133.551 169.928C133.54 170.055 133.45 170.161 133.325 170.194C128.949 171.332 125.119 171.753 121.849 171.753ZM108.322 167.989C109.405 168.679 117.791 173.546 132.962 169.663L134.298 154.506C134.583 151.277 135.311 148.102 136.461 145.069L138.574 139.502C138.644 139.317 138.581 139.108 138.42 138.992C137.17 138.097 133.896 135.903 130.496 134.864C124.41 133.003 109.681 132.338 104.37 135.086C104.233 135.157 104.164 135.311 104.202 135.463L106.366 144.096C107.063 146.627 107.477 149.247 107.596 151.877L108.322 167.989Z" fill="black"/>
<path d="M139.57 142.062C139.26 141.492 138.902 140.987 138.509 140.531L136.747 145.177C136.038 147.046 135.493 148.971 135.113 150.926C134.815 152.915 133.864 154.318 131.632 154.123C128.817 153.877 124.671 153.298 122.646 149.859C121.755 148.347 120.157 146.779 119.253 147.577C118.687 148.075 119.68 148.926 120.05 149.575C120.276 149.975 119.999 150.105 119.542 150.041C116.395 149.601 114.379 146.696 113.523 148.04C113.255 148.461 113.37 149.715 113.859 150.572C115.387 153.253 119.056 154.327 121.295 154.967C125.472 156.162 131.07 162.4 137.342 161.714C142.099 161.194 142.364 147.203 139.573 142.06L139.57 142.062Z" fill="white"/>
<path d="M136.364 162.072C132.632 162.072 129.205 159.872 126.152 157.912C124.36 156.763 122.668 155.677 121.209 155.26C118.96 154.618 115.198 153.541 113.592 150.722C113.074 149.811 112.914 148.43 113.265 147.88C113.878 146.916 114.863 147.521 116.006 148.222C116.967 148.81 118.162 149.544 119.584 149.743C119.682 149.757 119.752 149.757 119.8 149.754C119.796 149.746 119.79 149.737 119.785 149.727C119.695 149.571 119.561 149.394 119.419 149.207C119 148.657 118.426 147.903 119.051 147.352C119.322 147.114 119.662 147.019 120.038 147.078C121.046 147.238 122.208 148.513 122.91 149.707C124.743 152.819 128.362 153.534 131.66 153.822C133.463 153.979 134.493 153.018 134.813 150.882C135.2 148.89 135.755 146.939 136.463 145.069L138.226 140.424C138.264 140.323 138.352 140.25 138.459 140.233C138.565 140.215 138.673 140.253 138.743 140.334C139.17 140.828 139.539 141.361 139.841 141.918C142.143 146.16 142.292 155.676 140.121 159.784C139.401 161.145 138.478 161.897 137.376 162.018C137.038 162.054 136.701 162.073 136.367 162.073L136.364 162.072ZM114.128 147.994C113.974 147.994 113.867 148.064 113.779 148.204C113.591 148.499 113.672 149.634 114.123 150.425C115.605 153.027 119.219 154.061 121.378 154.68C122.924 155.122 124.652 156.231 126.483 157.406C129.725 159.485 133.401 161.844 137.309 161.416C138.196 161.319 138.961 160.675 139.58 159.503C141.68 155.528 141.533 146.314 139.304 142.206C139.103 141.836 138.869 141.476 138.608 141.133L137.032 145.283C136.335 147.121 135.79 149.038 135.412 150.984C135.043 153.452 133.762 154.616 131.606 154.425C128.152 154.123 124.356 153.362 122.383 150.014C121.65 148.766 120.623 147.783 119.94 147.676C119.744 147.646 119.59 147.685 119.455 147.805C119.281 147.957 119.461 148.261 119.904 148.841C120.053 149.036 120.206 149.238 120.314 149.429C120.501 149.758 120.436 149.98 120.348 150.108C120.2 150.321 119.916 150.401 119.499 150.343C117.951 150.127 116.695 149.356 115.685 148.738C114.872 148.239 114.417 147.996 114.13 147.996L114.128 147.994Z" fill="black"/>
<path d="M117.258 125.775L117.844 133.586L115.253 134.252C114.364 134.481 114.258 135.7 115.1 136.067C117.458 137.095 121.531 138.147 126.386 136.37C127.224 136.063 127.326 134.929 126.554 134.485L124.66 133.4L122.712 124.279L117.258 125.774V125.775Z" fill="white"/>
<path d="M121.092 137.636C118.615 137.636 116.523 137.019 114.977 136.344C114.475 136.125 114.179 135.632 114.223 135.087C114.268 134.539 114.641 134.097 115.176 133.958L117.52 133.355L116.953 125.796C116.942 125.652 117.036 125.52 117.177 125.481L122.631 123.985C122.712 123.962 122.799 123.976 122.871 124.019C122.942 124.062 122.993 124.133 123.01 124.215L124.929 133.204L126.705 134.222C127.164 134.485 127.421 134.974 127.377 135.499C127.331 136.027 126.991 136.469 126.49 136.652C124.553 137.361 122.737 137.633 121.092 137.633V137.636ZM117.58 126.002L118.147 133.564C118.158 133.711 118.062 133.843 117.92 133.88L115.329 134.547C114.989 134.634 114.849 134.91 114.83 135.138C114.812 135.364 114.905 135.653 115.221 135.792C117.691 136.87 121.615 137.795 126.279 136.088C126.56 135.985 126.743 135.746 126.769 135.45C126.793 135.159 126.656 134.897 126.399 134.75L124.506 133.665C124.431 133.622 124.379 133.55 124.36 133.466L122.48 124.66L117.579 126.004L117.58 126.002Z" fill="black"/>
<path d="M124.4 125.413C124.4 125.413 126.812 125.297 127.083 123.368C127.494 120.429 125.065 120.977 125.065 120.977C125.065 120.977 125.363 118.421 121.984 118.628C119.869 118.757 118.078 118.931 116.933 119.056C116.114 119.146 115.45 119.756 115.299 120.56C115.003 122.141 114.612 124.827 114.862 127.002C115.091 128.994 115.858 130.557 117.729 130.451C122.851 130.158 124.4 125.413 124.4 125.413Z" fill="white"/>
<path d="M117.554 130.759C116.34 130.759 114.909 130.076 114.559 127.036C114.3 124.782 114.724 121.977 115 120.505C115.176 119.564 115.941 118.861 116.9 118.756C118.04 118.631 119.844 118.456 121.965 118.327C123.213 118.25 124.144 118.526 124.733 119.143C125.214 119.647 125.341 120.256 125.369 120.639C125.756 120.622 126.367 120.675 126.833 121.1C127.348 121.571 127.534 122.349 127.385 123.412C127.16 125.016 125.578 125.593 124.618 125.7C124.249 126.616 122.413 130.489 117.748 130.755C117.684 130.759 117.621 130.76 117.556 130.76L117.554 130.759ZM122.363 118.918C122.247 118.918 122.128 118.922 122.003 118.929C119.893 119.058 118.1 119.233 116.967 119.357C116.286 119.431 115.724 119.948 115.598 120.615C115.329 122.053 114.914 124.792 115.164 126.968C115.42 129.191 116.254 130.228 117.711 130.148C122.569 129.87 124.096 125.364 124.111 125.318C124.15 125.199 124.259 125.115 124.385 125.11C124.473 125.106 126.55 124.98 126.781 123.326C126.9 122.474 126.781 121.874 126.422 121.546C125.939 121.103 125.139 121.271 125.131 121.272C125.035 121.294 124.934 121.267 124.86 121.201C124.787 121.135 124.751 121.04 124.762 120.942C124.762 120.935 124.841 120.13 124.285 119.552C123.881 119.131 123.235 118.918 122.363 118.918Z" fill="black"/>
</svg>
