<svg width="24" height="24" viewBox="0 0 24 24" fill="none" xmlns="http://www.w3.org/2000/svg">
<path d="M3 5C5.571 7.667 18.429 7.667 21 5M11 18L14 14.5M14 14.5L19 17M14 14.5L20 11.5M3.04 4.294C3.02486 4.20432 3.03467 4.11221 3.06836 4.02773C3.10204 3.94325 3.15831 3.86966 3.231 3.815C3.927 3.32 6.314 2 12 2C17.686 2 20.073 3.32 20.769 3.815C20.8419 3.86954 20.8983 3.94308 20.9322 4.02756C20.9661 4.11205 20.976 4.20423 20.961 4.294L19.261 17.038C19.1797 17.648 18.9587 18.2309 18.6153 18.7415C18.2718 19.2521 17.8152 19.6766 17.281 19.982L16.961 20.165C15.4501 21.0283 13.7401 21.4823 12 21.4823C10.2599 21.4823 8.54988 21.0283 7.039 20.165L6.719 19.982C6.18475 19.6766 5.72816 19.2521 5.38474 18.7415C5.04132 18.2309 4.82035 17.648 4.739 17.038L3.04 4.294Z" stroke="#2F3542" stroke-width="1.5"/>
<path d="M4.5 16.0002L7.736 15.5382C7.81913 15.5264 7.90383 15.5321 7.98462 15.555C8.06541 15.5779 8.14049 15.6175 8.205 15.6712L11 18.0002L14 21.0002M8 15.5002L10.615 12.4502C10.7176 12.3303 10.8632 12.2557 11.0204 12.2424C11.1776 12.2291 11.3338 12.2783 11.455 12.3792L14 14.5002" stroke="#2F3542" stroke-width="1.5"/>
</svg>
