<svg width="24" height="24" viewBox="0 0 24 24" fill="none" xmlns="http://www.w3.org/2000/svg">
<path d="M14 9.01002L14.01 8.99902M8 8.01002L8.01 7.99902M8 14.01L8.01 13.999" stroke="#2F3542" stroke-width="1.5" stroke-linecap="round" stroke-linejoin="round"/>
<path d="M5.99996 19.0002L2.23596 3.00418C2.21187 2.90192 2.21505 2.79511 2.24519 2.69446C2.27534 2.59381 2.33138 2.50284 2.40773 2.43065C2.48407 2.35846 2.57803 2.30758 2.6802 2.28311C2.78238 2.25863 2.88919 2.26142 2.98996 2.29118L19 7.00019" stroke="#2F3542" stroke-width="1.5"/>
<path d="M22.1981 8.42489C22.2539 8.20191 22.2652 7.97011 22.2315 7.74274C22.1977 7.51537 22.1195 7.29688 22.0013 7.09974C21.8831 6.90261 21.7272 6.73068 21.5425 6.59378C21.3579 6.45689 21.1481 6.3577 20.9251 6.30189C20.7021 6.24608 20.4703 6.23473 20.2429 6.2685C20.0156 6.30227 19.7971 6.38049 19.5999 6.4987C19.4028 6.61691 19.2309 6.77279 19.094 6.95745C18.9571 7.1421 18.8579 7.35191 18.8021 7.57489C18.4111 9.14289 16.9021 11.6249 14.5751 13.9499C12.2751 16.2509 9.42708 18.1439 6.60708 18.7949C6.38037 18.8438 6.16564 18.9373 5.97537 19.0699C5.7851 19.2025 5.62309 19.3716 5.49876 19.5674C5.37443 19.7632 5.29026 19.9818 5.25114 20.2104C5.21203 20.439 5.21874 20.6731 5.2709 20.8991C5.32305 21.1251 5.41961 21.3384 5.55496 21.5268C5.69031 21.7151 5.86174 21.8747 6.0593 21.9962C6.25685 22.1177 6.47659 22.1987 6.70574 22.2345C6.93489 22.2704 7.16887 22.2603 7.39408 22.2049C11.0741 21.3559 14.4761 18.9989 17.0501 16.4249C19.5991 13.8759 21.5901 10.8569 22.1981 8.42489Z" stroke="#2F3542" stroke-width="1.5" stroke-linecap="round"/>
</svg>
