<svg width="24" height="24" viewBox="0 0 24 24" fill="none" xmlns="http://www.w3.org/2000/svg">
<path fill-rule="evenodd" clip-rule="evenodd" d="M1.25 12C1.25 6.06279 6.06279 1.25 12 1.25C17.9372 1.25 22.75 6.06279 22.75 12C22.75 12.4142 22.4142 12.75 22 12.75C21.5858 12.75 21.25 12.4142 21.25 12C21.25 7.76618 18.4058 4.19689 14.5238 3.09847C14.7331 3.48884 14.961 3.95058 15.1886 4.47777C15.9689 6.28543 16.75 8.87478 16.75 12C16.75 12.4142 16.4142 12.75 16 12.75C15.5858 12.75 15.25 12.4142 15.25 12C15.25 9.12522 14.5311 6.73957 13.8114 5.07223C13.4518 4.23921 13.0933 3.58852 12.8274 3.14966C12.7342 2.99591 12.6525 2.86835 12.5862 2.76827C12.3924 2.75615 12.1969 2.75 12 2.75C6.89121 2.75 2.75 6.89121 2.75 12C2.75 17.1088 6.89121 21.25 12 21.25C12.4142 21.25 12.75 21.5858 12.75 22C12.75 22.4142 12.4142 22.75 12 22.75C6.06279 22.75 1.25 17.9372 1.25 12Z" fill="white"/>
<path fill-rule="evenodd" clip-rule="evenodd" d="M22.75 12C22.75 6.06279 17.9372 1.25 12 1.25C6.06279 1.25 1.25 6.06279 1.25 12C1.25 12.4142 1.58579 12.75 2 12.75C2.41421 12.75 2.75 12.4142 2.75 12C2.75 7.76618 5.59418 4.19689 9.47618 3.09847C9.26691 3.48884 9.03898 3.95058 8.81141 4.47777C8.03113 6.28543 7.25 8.87478 7.25 12C7.25 12.4142 7.58579 12.75 8 12.75C8.41421 12.75 8.75 12.4142 8.75 12C8.75 9.12522 9.46887 6.73957 10.1886 5.07223C10.5482 4.23921 10.9067 3.58852 11.1726 3.14966C11.2658 2.99591 11.3475 2.86835 11.4138 2.76827C11.6076 2.75615 11.8031 2.75 12 2.75C17.1088 2.75 21.25 6.89121 21.25 12C21.25 17.1088 17.1088 21.25 12 21.25C11.5858 21.25 11.25 21.5858 11.25 22C11.25 22.4142 11.5858 22.75 12 22.75C17.9372 22.75 22.75 17.9372 22.75 12Z" fill="white"/>
<path fill-rule="evenodd" clip-rule="evenodd" d="M9.28004 7.75C9.53861 6.72495 9.86351 5.82532 10.1886 5.07223C10.5482 4.23921 10.9067 3.58852 11.1726 3.14966C11.3056 2.93036 11.4151 2.76436 11.4898 2.65536C11.5271 2.60087 11.5557 2.56066 11.5741 2.53521L11.5939 2.50816L11.5978 2.50293M7.7369 7.75C8.02985 6.48387 8.42073 5.38284 8.81141 4.47777C9.20183 3.57329 9.59332 2.86148 9.88985 2.37221C10.0382 2.12745 10.163 1.93799 10.2524 1.80753C10.2971 1.7423 10.3329 1.69178 10.3585 1.65644C10.3713 1.63877 10.3815 1.62489 10.3889 1.61486L10.398 1.60271L10.4009 1.59882L10.4027 1.59638C10.4027 1.59638 10.4027 1.59638 11 2.05M7.7369 7.75H2.63C2.21579 7.75 1.88 8.08579 1.88 8.5C1.88 8.91421 2.21579 9.25 2.63 9.25H7.4527C7.32538 10.11 7.25 11.0292 7.25 12C7.25 12.9708 7.32538 13.89 7.4527 14.75H2.63C2.21579 14.75 1.88 15.0858 1.88 15.5C1.88 15.9142 2.21579 16.25 2.63 16.25H7.7369C8.02985 17.5161 8.42074 18.6172 8.81141 19.5222C9.20183 20.4267 9.59332 21.1385 9.88985 21.6278C10.0382 21.8725 10.163 22.062 10.2524 22.1925C10.2971 22.2577 10.3329 22.3082 10.3585 22.3436C10.3713 22.3612 10.3815 22.3751 10.3889 22.3851L10.398 22.3973L10.4009 22.4012L10.4019 22.4026C10.4019 22.4026 10.4027 22.4036 10.9775 21.9671L10.4027 22.4036C10.6533 22.7335 11.1238 22.7978 11.4536 22.5473C11.7834 22.2968 11.8477 21.8266 11.5976 21.4968L11.5939 21.4918L11.5741 21.4648C11.5557 21.4393 11.5271 21.3991 11.4898 21.3446C11.4151 21.2356 11.3056 21.0696 11.1726 20.8503C10.9067 20.4115 10.5482 19.7608 10.1886 18.9278C9.86351 18.1747 9.53861 17.2751 9.28004 16.25H12C12.4142 16.25 12.75 15.9142 12.75 15.5C12.75 15.0858 12.4142 14.75 12 14.75H8.9705C8.83287 13.8957 8.75 12.976 8.75 12C8.75 11.024 8.83287 10.1043 8.9705 9.25H21.37C21.7842 9.25 22.12 8.91421 22.12 8.5C22.12 8.08579 21.7842 7.75 21.37 7.75H9.28004" fill="white"/>
<path fill-rule="evenodd" clip-rule="evenodd" d="M12.5464 1.45273C12.2167 1.70309 12.1523 2.1731 12.4022 2.50293L13 2.05L13.5973 1.59638C13.3467 1.26652 12.8762 1.20221 12.5464 1.45273ZM14.72 7.75C14.4614 6.72495 14.1365 5.82532 13.8114 5.07223C13.4518 4.23921 13.0933 3.58852 12.8274 3.14966C12.6944 2.93036 12.5849 2.76436 12.5102 2.65536C12.4729 2.60087 12.4443 2.56066 12.4259 2.53521L12.4061 2.50816L12.4022 2.50293M16.2631 7.75C15.9701 6.48387 15.5793 5.38284 15.1886 4.47777C14.7982 3.57329 14.4067 2.86148 14.1101 2.37221C13.9618 2.12745 13.837 1.93799 13.7476 1.80753C13.7029 1.7423 13.667 1.69178 13.6415 1.65644C13.6287 1.63877 13.6185 1.62489 13.6111 1.61486L13.602 1.60271L13.5991 1.59882L13.5973 1.59638C13.5973 1.59638 13.5973 1.59638 13 2.05M16.2631 7.75L21.37 7.75C21.7842 7.75 22.12 8.08579 22.12 8.5C22.12 8.91421 21.7842 9.25 21.37 9.25L16.5473 9.25C16.6746 10.11 16.75 11.0292 16.75 12C16.75 12.9708 16.6746 13.89 16.5473 14.75H21.37C21.7842 14.75 22.12 15.0858 22.12 15.5C22.12 15.9142 21.7842 16.25 21.37 16.25H16.2631C15.9701 17.5161 15.5793 18.6172 15.1886 19.5222C14.7982 20.4267 14.4067 21.1385 14.1101 21.6278C13.9618 21.8725 13.837 22.062 13.7476 22.1925C13.7029 22.2577 13.667 22.3082 13.6415 22.3436C13.6287 22.3612 13.6185 22.3751 13.6111 22.3851L13.602 22.3973L13.5991 22.4012L13.598 22.4026C13.598 22.4026 13.5973 22.4036 13.0225 21.9671L13.5973 22.4036C13.3467 22.7335 12.8762 22.7978 12.5464 22.5473C12.2166 22.2968 12.1522 21.8266 12.4024 21.4968L12.4061 21.4918L12.4259 21.4648C12.4443 21.4393 12.4729 21.3991 12.5102 21.3446C12.5849 21.2356 12.6944 21.0696 12.8273 20.8503C13.0933 20.4115 13.4518 19.7608 13.8114 18.9278C14.1365 18.1747 14.4614 17.2751 14.72 16.25H12C11.5858 16.25 11.25 15.9142 11.25 15.5C11.25 15.0858 11.5858 14.75 12 14.75H15.0295C15.1671 13.8957 15.25 12.976 15.25 12C15.25 11.024 15.1671 10.1043 15.0295 9.25L2.63 9.25C2.21579 9.25 1.88 8.91421 1.88 8.5C1.88 8.08579 2.21579 7.75 2.63 7.75L14.72 7.75" fill="white"/>
<path fill-rule="evenodd" clip-rule="evenodd" d="M1.25 12C1.25 6.06279 6.06279 1.25 12 1.25C17.9372 1.25 22.75 6.06279 22.75 12C22.75 12.4142 22.4142 12.75 22 12.75C21.5858 12.75 21.25 12.4142 21.25 12C21.25 7.76618 18.4058 4.19689 14.5238 3.09847C14.7331 3.48884 14.961 3.95058 15.1886 4.47777C15.9689 6.28543 16.75 8.87478 16.75 12C16.75 12.4142 16.4142 12.75 16 12.75C15.5858 12.75 15.25 12.4142 15.25 12C15.25 9.12522 14.5311 6.73957 13.8114 5.07223C13.4518 4.23921 13.0933 3.58852 12.8274 3.14966C12.7342 2.99591 12.6525 2.86835 12.5862 2.76827C12.3924 2.75615 12.1969 2.75 12 2.75C6.89121 2.75 2.75 6.89121 2.75 12C2.75 17.1088 6.89121 21.25 12 21.25C12.4142 21.25 12.75 21.5858 12.75 22C12.75 22.4142 12.4142 22.75 12 22.75C6.06279 22.75 1.25 17.9372 1.25 12Z" fill="white"/>
<path fill-rule="evenodd" clip-rule="evenodd" d="M22.75 12C22.75 6.06279 17.9372 1.25 12 1.25C6.06279 1.25 1.25 6.06279 1.25 12C1.25 12.4142 1.58579 12.75 2 12.75C2.41421 12.75 2.75 12.4142 2.75 12C2.75 7.76618 5.59418 4.19689 9.47618 3.09847C9.26691 3.48884 9.03898 3.95058 8.81141 4.47777C8.03113 6.28543 7.25 8.87478 7.25 12C7.25 12.4142 7.58579 12.75 8 12.75C8.41421 12.75 8.75 12.4142 8.75 12C8.75 9.12522 9.46887 6.73957 10.1886 5.07223C10.5482 4.23921 10.9067 3.58852 11.1726 3.14966C11.2658 2.99591 11.3475 2.86835 11.4138 2.76827C11.6076 2.75615 11.8031 2.75 12 2.75C17.1088 2.75 21.25 6.89121 21.25 12C21.25 17.1088 17.1088 21.25 12 21.25C11.5858 21.25 11.25 21.5858 11.25 22C11.25 22.4142 11.5858 22.75 12 22.75C17.9372 22.75 22.75 17.9372 22.75 12Z" fill="white"/>
<path fill-rule="evenodd" clip-rule="evenodd" d="M9.28004 7.75C9.53861 6.72495 9.86351 5.82532 10.1886 5.07223C10.5482 4.23921 10.9067 3.58852 11.1726 3.14966C11.3056 2.93036 11.4151 2.76436 11.4898 2.65536C11.5271 2.60087 11.5557 2.56066 11.5741 2.53521L11.5939 2.50816L11.5978 2.50293M7.7369 7.75C8.02985 6.48387 8.42073 5.38284 8.81141 4.47777C9.20183 3.57329 9.59332 2.86148 9.88985 2.37221C10.0382 2.12745 10.163 1.93799 10.2524 1.80753C10.2971 1.7423 10.3329 1.69178 10.3585 1.65644C10.3713 1.63877 10.3815 1.62489 10.3889 1.61486L10.398 1.60271L10.4009 1.59882L10.4027 1.59638C10.4027 1.59638 10.4027 1.59638 11 2.05M7.7369 7.75H2.63C2.21579 7.75 1.88 8.08579 1.88 8.5C1.88 8.91421 2.21579 9.25 2.63 9.25H7.4527C7.32538 10.11 7.25 11.0292 7.25 12C7.25 12.9708 7.32538 13.89 7.4527 14.75H2.63C2.21579 14.75 1.88 15.0858 1.88 15.5C1.88 15.9142 2.21579 16.25 2.63 16.25H7.7369C8.02985 17.5161 8.42074 18.6172 8.81141 19.5222C9.20183 20.4267 9.59332 21.1385 9.88985 21.6278C10.0382 21.8725 10.163 22.062 10.2524 22.1925C10.2971 22.2577 10.3329 22.3082 10.3585 22.3436C10.3713 22.3612 10.3815 22.3751 10.3889 22.3851L10.398 22.3973L10.4009 22.4012L10.4019 22.4026C10.4019 22.4026 10.4027 22.4036 10.9775 21.9671L10.4027 22.4036C10.6533 22.7335 11.1238 22.7978 11.4536 22.5473C11.7834 22.2968 11.8477 21.8266 11.5976 21.4968L11.5939 21.4918L11.5741 21.4648C11.5557 21.4393 11.5271 21.3991 11.4898 21.3446C11.4151 21.2356 11.3056 21.0696 11.1726 20.8503C10.9067 20.4115 10.5482 19.7608 10.1886 18.9278C9.86351 18.1747 9.53861 17.2751 9.28004 16.25H12C12.4142 16.25 12.75 15.9142 12.75 15.5C12.75 15.0858 12.4142 14.75 12 14.75H8.9705C8.83287 13.8957 8.75 12.976 8.75 12C8.75 11.024 8.83287 10.1043 8.9705 9.25H21.37C21.7842 9.25 22.12 8.91421 22.12 8.5C22.12 8.08579 21.7842 7.75 21.37 7.75H9.28004" fill="white"/>
<path fill-rule="evenodd" clip-rule="evenodd" d="M12.5464 1.45273C12.2167 1.70309 12.1523 2.1731 12.4022 2.50293L13 2.05L13.5973 1.59638C13.3467 1.26652 12.8762 1.20221 12.5464 1.45273ZM14.72 7.75C14.4614 6.72495 14.1365 5.82532 13.8114 5.07223C13.4518 4.23921 13.0933 3.58852 12.8274 3.14966C12.6944 2.93036 12.5849 2.76436 12.5102 2.65536C12.4729 2.60087 12.4443 2.56066 12.4259 2.53521L12.4061 2.50816L12.4022 2.50293M16.2631 7.75C15.9701 6.48387 15.5793 5.38284 15.1886 4.47777C14.7982 3.57329 14.4067 2.86148 14.1101 2.37221C13.9618 2.12745 13.837 1.93799 13.7476 1.80753C13.7029 1.7423 13.667 1.69178 13.6415 1.65644C13.6287 1.63877 13.6185 1.62489 13.6111 1.61486L13.602 1.60271L13.5991 1.59882L13.5973 1.59638C13.5973 1.59638 13.5973 1.59638 13 2.05M16.2631 7.75L21.37 7.75C21.7842 7.75 22.12 8.08579 22.12 8.5C22.12 8.91421 21.7842 9.25 21.37 9.25L16.5473 9.25C16.6746 10.11 16.75 11.0292 16.75 12C16.75 12.9708 16.6746 13.89 16.5473 14.75H21.37C21.7842 14.75 22.12 15.0858 22.12 15.5C22.12 15.9142 21.7842 16.25 21.37 16.25H16.2631C15.9701 17.5161 15.5793 18.6172 15.1886 19.5222C14.7982 20.4267 14.4067 21.1385 14.1101 21.6278C13.9618 21.8725 13.837 22.062 13.7476 22.1925C13.7029 22.2577 13.667 22.3082 13.6415 22.3436C13.6287 22.3612 13.6185 22.3751 13.6111 22.3851L13.602 22.3973L13.5991 22.4012L13.598 22.4026C13.598 22.4026 13.5973 22.4036 13.0225 21.9671L13.5973 22.4036C13.3467 22.7335 12.8762 22.7978 12.5464 22.5473C12.2166 22.2968 12.1522 21.8266 12.4024 21.4968L12.4061 21.4918L12.4259 21.4648C12.4443 21.4393 12.4729 21.3991 12.5102 21.3446C12.5849 21.2356 12.6944 21.0696 12.8273 20.8503C13.0933 20.4115 13.4518 19.7608 13.8114 18.9278C14.1365 18.1747 14.4614 17.2751 14.72 16.25H12C11.5858 16.25 11.25 15.9142 11.25 15.5C11.25 15.0858 11.5858 14.75 12 14.75H15.0295C15.1671 13.8957 15.25 12.976 15.25 12C15.25 11.024 15.1671 10.1043 15.0295 9.25L2.63 9.25C2.21579 9.25 1.88 8.91421 1.88 8.5C1.88 8.08579 2.21579 7.75 2.63 7.75L14.72 7.75" fill="white"/>
</svg>
