<svg width="26" height="14" viewBox="0 0 26 14" fill="none" xmlns="http://www.w3.org/2000/svg">
<path fill-rule="evenodd" clip-rule="evenodd" d="M21.9221 8.90203C22.7428 9.70325 23.6089 10.4571 24.345 11.3391C24.6701 11.731 24.9779 12.1355 25.2134 12.5904C25.5471 13.237 25.2449 13.9485 24.6651 13.9871L21.0609 13.9855C20.1314 14.0627 19.3898 13.6884 18.7663 13.0529C18.2673 12.5446 17.8052 12.0037 17.3254 11.4782C17.1287 11.2635 16.9228 11.0614 16.6768 10.9017C16.1848 10.5823 15.7577 10.6801 15.4766 11.1933C15.1902 11.7152 15.1253 12.2931 15.0971 12.8748C15.0585 13.7235 14.802 13.9466 13.9495 13.9854C12.1276 14.0714 10.3985 13.7957 8.79229 12.8766C7.37616 12.0664 6.27802 10.9226 5.3222 9.62765C3.46121 7.10615 2.03606 4.33543 0.755192 1.48709C0.466879 0.845351 0.677729 0.500871 1.38579 0.488678C2.56156 0.465837 3.73717 0.467463 4.91432 0.487053C5.39219 0.494043 5.70854 0.768131 5.89306 1.21958C6.52918 2.78372 7.30756 4.27187 8.28459 5.65125C8.54478 6.01849 8.81009 6.38573 9.18789 6.64421C9.60585 6.93041 9.92408 6.83556 10.1207 6.36996C10.2455 6.07474 10.3001 5.75676 10.3282 5.44057C10.4214 4.35274 10.4336 3.26679 10.2703 2.18279C10.17 1.50627 9.78891 1.06831 9.11384 0.94029C8.76936 0.87502 8.82065 0.746835 8.98745 0.55021C9.27714 0.211094 9.54961 0 10.0927 0H14.166C14.8072 0.126559 14.9496 0.414629 15.0374 1.05986L15.0409 5.58436C15.0339 5.83414 15.1657 6.57537 15.6156 6.7407C15.9757 6.8584 16.213 6.57033 16.4291 6.342C17.4043 5.30693 18.1003 4.0837 18.7222 2.81705C18.9981 2.26009 19.2354 1.68168 19.4653 1.10375C19.6357 0.674899 19.903 0.463886 20.3861 0.473234L24.3063 0.476729C24.4226 0.476729 24.5402 0.478436 24.6528 0.4977C25.3134 0.610278 25.4944 0.894447 25.2904 1.53951C24.9689 2.55158 24.3434 3.39498 23.7318 4.24228C23.0781 5.14689 22.3789 6.02052 21.7305 6.9305C21.1349 7.76146 21.1822 8.18032 21.9221 8.90203Z" fill="white"/>
</svg>
